<svg xmlns="http://www.w3.org/2000/svg" xmlns:xlink="http://www.w3.org/1999/xlink" width="250" height="68" viewBox="0 0 250 68">
  <defs>
    <clipPath id="clip-path">
      <rect id="長方形_432367" data-name="長方形 432367" width="250" height="68" transform="translate(835 138)" fill="#fff" stroke="#707070" stroke-width="1" opacity="0.43"/>
    </clipPath>
    <clipPath id="clip-path-2">
      <rect id="長方形_430673" data-name="長方形 430673" width="35" height="35" transform="translate(88 115)" fill="#fff" stroke="#707070" stroke-width="1"/>
    </clipPath>
    <clipPath id="clip-path-3">
      <rect id="長方形_430672" data-name="長方形 430672" width="29.617" height="29.038" fill="#faacc8"/>
    </clipPath>
    <clipPath id="clip-path-4">
      <rect id="長方形_430671" data-name="長方形 430671" width="29.618" height="29.037" fill="#faacc8"/>
    </clipPath>
  </defs>
  <g id="マスクグループ_1111044" data-name="マスクグループ 1111044" transform="translate(-835 -138)" clip-path="url(#clip-path)">
    <path id="パス_1167199" data-name="パス 1167199" d="M-46.909-10.718c0-1.15,1.2-1.886,3.013-1.886a5.989,5.989,0,0,1,3.657,1.173,1.678,1.678,0,0,0,1.035.368,1.515,1.515,0,0,0,1.61-1.587,1.683,1.683,0,0,0-.6-1.357,8.257,8.257,0,0,0-5.451-1.679c-4.14,0-6.739,1.978-6.739,5.106,0,2.99,1.771,4.393,6.417,4.439,2.76.023,3.565.46,3.565,1.449,0,1.2-1.127,1.886-3.082,1.886A6.677,6.677,0,0,1-47.921-4.3,1.645,1.645,0,0,0-49-4.715a1.515,1.515,0,0,0-1.61,1.587,1.685,1.685,0,0,0,.46,1.242C-48.818-.46-46.633.276-43.735.276c4.37,0,6.808-1.817,6.808-5.106,0-3.082-1.84-4.554-6.532-4.554C-46.081-9.384-46.909-9.8-46.909-10.718ZM-32.58-12.6a1.708,1.708,0,0,0,1.794-1.817,1.672,1.672,0,0,0-1.794-1.771,1.666,1.666,0,0,0-1.771,1.771A1.7,1.7,0,0,0-32.58-12.6Zm0,1.426a1.488,1.488,0,0,0-1.564,1.656v7.981A1.507,1.507,0,0,0-32.58.138a1.512,1.512,0,0,0,1.587-1.679V-9.522A1.494,1.494,0,0,0-32.58-11.178Zm13.064,8.763a1.389,1.389,0,0,0-1.426-1.472,1.427,1.427,0,0,0-1.173.575A1.526,1.526,0,0,1-23.38-2.6c-.851,0-1.357-.575-1.357-1.564v-4h3.22a1.38,1.38,0,0,0,1.541-1.449,1.374,1.374,0,0,0-1.541-1.426h-3.22v-2.185A1.512,1.512,0,0,0-26.324-14.9a1.507,1.507,0,0,0-1.564,1.679v8.947c0,2.875,1.61,4.554,4.347,4.554A4.012,4.012,0,0,0-19.7-1.656,1.681,1.681,0,0,0-19.516-2.415ZM-11.742-8.6A2.556,2.556,0,0,1-9.1-6.716h-5.4A2.657,2.657,0,0,1-11.742-8.6Zm4.6,7.061a1.492,1.492,0,0,0,.322-.92A1.286,1.286,0,0,0-8.2-3.818a1.463,1.463,0,0,0-1.035.437,3.242,3.242,0,0,1-2.392.943A2.769,2.769,0,0,1-14.5-4.554h6.785a1.527,1.527,0,0,0,1.61-1.633v-.184c0-2.645-2.461-4.945-5.635-4.945a5.6,5.6,0,0,0-5.98,5.8c0,3.45,2.438,5.8,6.1,5.8A5.7,5.7,0,0,0-7.142-1.541ZM18.274-15.548a2.3,2.3,0,0,0-2.185,1.265L11.742-7.015,7.394-14.283A2.3,2.3,0,0,0,5.21-15.548a2.158,2.158,0,0,0-2.162,2.369V-1.656A1.6,1.6,0,0,0,4.727.138,1.593,1.593,0,0,0,6.405-1.656V-9.775h.046l3.657,6.1a1.727,1.727,0,0,0,1.587.966,1.765,1.765,0,0,0,1.61-.989L16.871-9.66h.046V-1.7A1.641,1.641,0,0,0,18.642.138a1.635,1.635,0,0,0,1.7-1.84V-13.248A2.094,2.094,0,0,0,18.274-15.548Zm15.41,4.37A1.45,1.45,0,0,0,32.143-9.89H32.1a4.318,4.318,0,0,0-3.427-1.426c-3.2,0-5.313,2.277-5.313,5.8s2.116,5.8,5.313,5.8A4.318,4.318,0,0,0,32.1-1.15h.046A1.467,1.467,0,0,0,33.684.138a1.512,1.512,0,0,0,1.587-1.679V-9.522A1.494,1.494,0,0,0,33.684-11.178ZM29.314-2.6A2.709,2.709,0,0,1,26.577-5.52a2.7,2.7,0,0,1,2.737-2.921A2.762,2.762,0,0,1,32.119-5.52,2.762,2.762,0,0,1,29.314-2.6Zm15.87-8.717a4.378,4.378,0,0,0-3.427,1.4h-.046a1.457,1.457,0,0,0-1.564-1.265,1.488,1.488,0,0,0-1.564,1.656V2.737a1.579,1.579,0,1,0,3.151,0V-1.1h.046a4.426,4.426,0,0,0,3.4,1.38C48.381.276,50.5-2,50.5-5.52S48.381-11.316,45.184-11.316ZM44.54-2.6A2.762,2.762,0,0,1,41.734-5.52,2.762,2.762,0,0,1,44.54-8.441,2.7,2.7,0,0,1,47.277-5.52,2.709,2.709,0,0,1,44.54-2.6Z" transform="translate(959.612 197)" fill="#ffcbde"/>
    <g id="マスクグループ_1110949" data-name="マスクグループ 1110949" transform="translate(854.75 20)" clip-path="url(#clip-path-2)">
      <g id="グループ_1120404" data-name="グループ 1120404" transform="translate(90.691 118.639)">
        <g id="グループ_1120403" data-name="グループ 1120403" clip-path="url(#clip-path-3)">
          <g id="グループ_1120402" data-name="グループ 1120402" transform="translate(0 0)">
            <g id="グループ_1120401" data-name="グループ 1120401" clip-path="url(#clip-path-4)">
              <path id="パス_1159919" data-name="パス 1159919" d="M18.284.275h0a.029.029,0,0,0-.026.017.027.027,0,0,0,.006.029l.291.3.021.022.02.022.86,1,.019.022.018.025.79,1.059L20.3,2.8l.017.025.717,1.111.017.026.014.026.64,1.157.015.027.013.027.474,1.014.008.009a.024.024,0,0,0,.016.006h.006l.608-.124h0l1.972-.518h0l1.253-.406a.038.038,0,0,0,.018-.016.028.028,0,0,0-.006-.028,14.684,14.684,0,0,0-7.8-4.853h-.007Zm-6.931,0h-.006A14.689,14.689,0,0,0,3.466,5.233a.027.027,0,0,0,0,.029.026.026,0,0,0,.021.015h0l1.29.4h0l1.958.494h0l.634.123h0A.027.027,0,0,0,7.4,6.282L7.908,5.19l.013-.027.015-.027L8.575,3.98l.015-.026.016-.026.718-1.11.016-.026.018-.024.79-1.059.017-.024.02-.023.86-1,.019-.023.021-.022.287-.294a.025.025,0,0,0,.006-.029.026.026,0,0,0-.025-.017Zm4.353.073V6.984A.026.026,0,0,0,15.715,7a.027.027,0,0,0,.018.007h0L16.8,6.977h0L18.828,6.8h0l1.555-.226a.028.028,0,0,0,.024-.027l0-.011-.263-.562v0l-.609-1.1v0l-.684-1.058h0L18.093,2.8h0l-.82-.956,0,0-.882-.9h0Zm-1.8.017a.029.029,0,0,0-.017.006l-.635.564h0l-.883.9v0l-.821.956v0L10.8,3.8h0l-.683,1.059h0l-.61,1.1v0l-.291.621a.026.026,0,0,0,0,.025.025.025,0,0,0,.02.014l1.49.2h0l2.013.161h0l1.17.029h0a.026.026,0,0,0,.018-.007A.026.026,0,0,0,13.935,7V.393a.026.026,0,0,0-.016-.024l-.011,0M21.1,8.258h0l-2.039.3-.025,0-.025,0-2.082.184-.024,0h-.026l-1.146.037a.028.028,0,0,0-.026.027v4.83a.027.027,0,0,0,.027.027h6.385a.026.026,0,0,0,.019-.008.028.028,0,0,0,.007-.019l-.013-.419v0l-.123-1.253v0L21.8,10.722v0l-.293-1.226v0l-.374-1.2v0l-.006-.013a.026.026,0,0,0-.025-.017M2.365,6.787a.026.026,0,0,0-.023.012,14.6,14.6,0,0,0-2.183,6.84.032.032,0,0,0,.007.02.026.026,0,0,0,.019.008H5.7a.026.026,0,0,0,.027-.026l.016-.507V13.1l0-.029.13-1.316,0-.029,0-.029L6.1,10.4l0-.029.007-.029.306-1.285.006-.029.009-.029.305-.983a.024.024,0,0,0,0-.021.026.026,0,0,0-.018-.013L6.371,7.91l-.024,0L6.324,7.9,4.316,7.392l-.024-.006-.024-.007L2.374,6.787ZM8.519,8.32a.029.029,0,0,0-.026.019L8.135,9.491v0l-.292,1.226v0l-.208,1.242v0L7.51,13.217v0l-.013.42a.028.028,0,0,0,.007.019.029.029,0,0,0,.02.008h6.41V8.822a.027.027,0,0,0-.026-.028l-1.24-.029h-.025l-.025,0L10.555,8.6l-.025,0-.025,0L8.523,8.321h0M27.2,6.671h-.009l-1.85.6-.024.007-.024.006-2.022.532-.024.006-.024,0L22.9,7.9a.038.038,0,0,0-.019.013.028.028,0,0,0,0,.021L23.207,9l.009.029.007.029.306,1.285.006.029.006.029.218,1.3.006.029,0,.029.13,1.316,0,.029,0,.03.016.505a.025.025,0,0,0,.026.026h5.511a.026.026,0,0,0,.027-.024v-.006a14.6,14.6,0,0,0-2.256-6.956.025.025,0,0,0-.023-.012ZM7.536,15.439a.029.029,0,0,0-.02.008.032.032,0,0,0-.007.019l.011.3v0l.137,1.275v0L7.882,18.3v0l.311,1.244v0l.392,1.2a.027.027,0,0,0,.025.018h0l1.891-.258.025,0,.025,0,2.064-.166.025,0h.025l1.24-.029a.026.026,0,0,0,.026-.027V15.466a.027.027,0,0,0-.027-.027Zm8.2,0a.028.028,0,0,0-.027.027V20.3a.027.027,0,0,0,.026.027l1.146.037H16.9l.024,0,2.082.184.025,0,.025,0L21,20.835h0a.026.026,0,0,0,.025-.017l.018-.043v0l.4-1.22v0l.312-1.244v0l.225-1.262v0l.137-1.275v0l.012-.3a.028.028,0,0,0-.008-.019.025.025,0,0,0-.019-.008Zm-15.548,0a.026.026,0,0,0-.019.008.032.032,0,0,0-.007.02,14.6,14.6,0,0,0,2.183,6.84.027.027,0,0,0,.023.013h.008l1.894-.593.024-.007.024-.006,2.008-.507.024-.006.024,0,.435-.085a.027.027,0,0,0,.018-.013.031.031,0,0,0,0-.022L6.5,20.069,6.49,20.04l-.007-.029L6.156,18.7l-.007-.029-.006-.03L5.908,17.32,5.9,17.29l0-.03-.144-1.339,0-.03,0-.03-.015-.4a.027.027,0,0,0-.027-.026H.186Zm23.748,0a.027.027,0,0,0-.027.026l-.016.4v.03l0,.03-.144,1.338,0,.031-.006.029L23.5,18.647l0,.03-.009.029-.327,1.306-.006.029-.009.029-.354,1.088a.027.027,0,0,0,0,.022.024.024,0,0,0,.017.013l.417.085.024.006.024.006,2.022.531.024.006.024.007,1.851.6H27.2a.029.029,0,0,0,.016,0l.007-.007a14.6,14.6,0,0,0,2.256-6.957.022.022,0,0,0-.007-.02.025.025,0,0,0-.019-.008ZM13.908,22.084h0l-1.17.029h0l-2.013.161h0l-1.367.187a.025.025,0,0,0-.019.014.027.027,0,0,0,0,.025l.3.618v0l.639,1.111v0l.715,1.065v0l.786,1.013v0l.855.956v0l.918.9,0,0,.339.287a.024.024,0,0,0,.017.006l.011,0a.027.027,0,0,0,.016-.025V22.112a.025.025,0,0,0-.008-.019.023.023,0,0,0-.018-.008m1.825.011a.027.027,0,0,0-.018.007.026.026,0,0,0-.008.019v6.316a.026.026,0,0,0,.016.024l.011,0a.022.022,0,0,0,.017-.006l.34-.288h0l.917-.9,0,0,.853-.956v0l.787-1.013v0l.714-1.065v0l.64-1.111v0l.273-.563a.024.024,0,0,0,0-.025.028.028,0,0,0-.02-.014l-1.433-.209h0L16.8,22.129h0L15.734,22.1h0m6.387.767a.027.027,0,0,0-.024.015l-.508,1.045-.014.028-.016.026-.67,1.168-.015.026-.017.026-.75,1.118-.017.025-.019.025-.824,1.063-.018.025-.021.022h0l-.9,1-.02.023-.022.021-.352.345a.027.027,0,0,0-.006.029.026.026,0,0,0,.022.017h.008a14.687,14.687,0,0,0,8.148-4.933.031.031,0,0,0,.006-.025.026.026,0,0,0-.018-.018l-1.253-.407h0l-1.972-.519h0l-.72-.147h-.006m-14.68-.167-.012,0a.027.027,0,0,0-.012.036l.029.06-.711.138h0l-1.958.494h0l-1.294.4a.028.028,0,0,0-.012.008.027.027,0,0,0,0,.029l.008.01h0A14.683,14.683,0,0,0,11.7,28.911h.014a.031.031,0,0,0,.018-.02.027.027,0,0,0-.007-.025l-.356-.347L11.35,28.5l-.02-.022-.9-1-.02-.023-.019-.025L9.57,26.361l-.018-.024-.017-.026-.749-1.118-.017-.026-.015-.026-.671-1.167-.016-.027-.013-.028L7.465,22.71a.027.027,0,0,0-.024-.015" transform="translate(-0.013 -0.022)" fill="#faacc8"/>
              <g id="グループ_1120400" data-name="グループ 1120400" transform="translate(0 0)" opacity="0">
                <g id="グループ_1120399" data-name="グループ 1120399" transform="translate(0 0)">
                  <g id="グループ_1120398" data-name="グループ 1120398" clip-path="url(#clip-path-3)">
                    <path id="パス_1159920" data-name="パス 1159920" d="M18.284.275h0a.029.029,0,0,0-.026.017.027.027,0,0,0,.006.029l.291.3.021.022.02.022.86,1,.019.022.018.025.79,1.059L20.3,2.8l.017.025.717,1.111.017.026.014.026.64,1.157.015.027.013.027.474,1.014.008.009a.024.024,0,0,0,.016.006h.006l.608-.124h0l1.972-.518h0l1.253-.406a.038.038,0,0,0,.018-.016.028.028,0,0,0-.006-.028,14.684,14.684,0,0,0-7.8-4.853h-.007Zm-6.931,0h-.006A14.689,14.689,0,0,0,3.466,5.233a.027.027,0,0,0,0,.029.026.026,0,0,0,.021.015h0l1.29.4h0l1.958.494h0l.634.123h0A.027.027,0,0,0,7.4,6.282L7.908,5.19l.013-.027.015-.027L8.575,3.98l.015-.026.016-.026.718-1.11.016-.026.018-.024.79-1.059.017-.024.02-.023.86-1,.019-.023.021-.022.287-.294a.025.025,0,0,0,.006-.029.026.026,0,0,0-.025-.017Zm4.353.073V6.984A.026.026,0,0,0,15.715,7a.027.027,0,0,0,.018.007h0L16.8,6.977h0L18.828,6.8h0l1.555-.226a.028.028,0,0,0,.024-.027l0-.011-.263-.562v0l-.609-1.1v0l-.684-1.058h0L18.093,2.8h0l-.82-.956,0,0-.882-.9h0Zm-1.8.017a.029.029,0,0,0-.017.006l-.635.564h0l-.883.9v0l-.821.956v0L10.8,3.8h0l-.683,1.059h0l-.61,1.1v0l-.291.621a.026.026,0,0,0,0,.025.025.025,0,0,0,.02.014l1.49.2h0l2.013.161h0l1.17.029h0a.026.026,0,0,0,.018-.007A.026.026,0,0,0,13.935,7V.393a.026.026,0,0,0-.016-.024ZM21.1,8.258h0l-2.039.3-.025,0-.025,0-2.082.184-.024,0h-.026l-1.146.037a.028.028,0,0,0-.026.027v4.83a.027.027,0,0,0,.027.027h6.385a.026.026,0,0,0,.019-.008.028.028,0,0,0,.007-.019l-.013-.419v0l-.123-1.253v0L21.8,10.722v0l-.293-1.226v0l-.374-1.2v0l-.006-.013A.026.026,0,0,0,21.1,8.258ZM2.365,6.787a.026.026,0,0,0-.023.012,14.6,14.6,0,0,0-2.183,6.84.032.032,0,0,0,.007.02.026.026,0,0,0,.019.008H5.7a.026.026,0,0,0,.027-.026l.016-.507V13.1l0-.029.13-1.316,0-.029,0-.029L6.1,10.4l0-.029.007-.029.306-1.285.006-.029.009-.029.305-.983a.024.024,0,0,0,0-.021.026.026,0,0,0-.018-.013L6.371,7.91l-.024,0L6.324,7.9,4.316,7.392l-.024-.006-.024-.007L2.374,6.787ZM8.519,8.32a.029.029,0,0,0-.026.019L8.135,9.491v0l-.292,1.226v0l-.208,1.242v0L7.51,13.217v0l-.013.42a.028.028,0,0,0,.007.019.029.029,0,0,0,.02.008h6.41V8.822a.027.027,0,0,0-.026-.028l-1.24-.029h-.025l-.025,0L10.555,8.6l-.025,0-.025,0L8.523,8.321ZM27.2,6.671h-.009l-1.85.6-.024.007-.024.006-2.022.532-.024.006-.024,0L22.9,7.9a.038.038,0,0,0-.019.013.028.028,0,0,0,0,.021L23.207,9l.009.029.007.029.306,1.285.006.029.006.029.218,1.3.006.029,0,.029.13,1.316,0,.029,0,.03.016.505a.025.025,0,0,0,.026.026h5.511a.026.026,0,0,0,.027-.024v-.006a14.6,14.6,0,0,0-2.256-6.956.025.025,0,0,0-.023-.012ZM7.536,15.439a.029.029,0,0,0-.02.008.032.032,0,0,0-.007.019l.011.3v0l.137,1.275v0L7.882,18.3v0l.311,1.244v0l.392,1.2a.027.027,0,0,0,.025.018h0l1.891-.258.025,0,.025,0,2.064-.166.025,0h.025l1.24-.029a.026.026,0,0,0,.026-.027V15.466a.027.027,0,0,0-.027-.027Zm8.2,0a.028.028,0,0,0-.027.027V20.3a.027.027,0,0,0,.026.027l1.146.037H16.9l.024,0,2.082.184.025,0,.025,0L21,20.835h0a.026.026,0,0,0,.025-.017l.018-.043v0l.4-1.22v0l.312-1.244v0l.225-1.262v0l.137-1.275v0l.012-.3a.028.028,0,0,0-.008-.019.025.025,0,0,0-.019-.008Zm-15.548,0a.026.026,0,0,0-.019.008.032.032,0,0,0-.007.02,14.6,14.6,0,0,0,2.183,6.84.027.027,0,0,0,.023.013h.008l1.894-.593.024-.007.024-.006,2.008-.507.024-.006.024,0,.435-.085a.027.027,0,0,0,.018-.013.031.031,0,0,0,0-.022L6.5,20.069,6.49,20.04l-.007-.029L6.156,18.7l-.007-.029-.006-.03L5.908,17.32,5.9,17.29l0-.03-.144-1.339,0-.03,0-.03-.015-.4a.027.027,0,0,0-.027-.026H.186Zm23.748,0a.027.027,0,0,0-.027.026l-.016.4v.03l0,.03-.144,1.338,0,.031-.006.029L23.5,18.647l0,.03-.009.029-.327,1.306-.006.029-.009.029-.354,1.088a.027.027,0,0,0,0,.022.024.024,0,0,0,.017.013l.417.085.024.006.024.006,2.022.531.024.006.024.007,1.851.6H27.2a.029.029,0,0,0,.016,0l.007-.007a14.6,14.6,0,0,0,2.256-6.957.022.022,0,0,0-.007-.02.025.025,0,0,0-.019-.008ZM13.908,22.084h0l-1.17.029h0l-2.013.161h0l-1.367.187a.025.025,0,0,0-.019.014.027.027,0,0,0,0,.025l.3.618v0l.639,1.111v0l.715,1.065v0l.786,1.013v0l.855.956v0l.918.9,0,0,.339.287a.024.024,0,0,0,.017.006l.011,0a.027.027,0,0,0,.016-.025V22.112a.025.025,0,0,0-.008-.019A.023.023,0,0,0,13.908,22.084Zm1.825.011a.027.027,0,0,0-.018.007.026.026,0,0,0-.008.019v6.316a.026.026,0,0,0,.016.024l.011,0a.022.022,0,0,0,.017-.006l.34-.288h0l.917-.9,0,0,.853-.956v0l.787-1.013v0l.714-1.065v0l.64-1.111v0l.273-.563a.024.024,0,0,0,0-.025.028.028,0,0,0-.02-.014l-1.433-.209h0L16.8,22.129h0L15.734,22.1Zm6.387.767a.027.027,0,0,0-.024.015l-.508,1.045-.014.028-.016.026-.67,1.168-.015.026-.017.026-.75,1.118-.017.025-.019.025-.824,1.063-.018.025-.021.022h0l-.9,1-.02.023-.022.021-.352.345a.027.027,0,0,0-.006.029.026.026,0,0,0,.022.017h.008a14.687,14.687,0,0,0,8.148-4.933.031.031,0,0,0,.006-.025.026.026,0,0,0-.018-.018l-1.253-.407h0l-1.972-.519h0l-.72-.147Zm-14.68-.167-.012,0a.027.027,0,0,0-.012.036l.029.06-.711.138h0l-1.958.494h0l-1.294.4a.028.028,0,0,0-.012.008.027.027,0,0,0,0,.029l.008.01h0A14.683,14.683,0,0,0,11.7,28.911h.014a.031.031,0,0,0,.018-.02.027.027,0,0,0-.007-.025l-.356-.347L11.35,28.5l-.02-.022-.9-1-.02-.023-.019-.025L9.57,26.361l-.018-.024-.017-.026-.749-1.118-.017-.026-.015-.026-.671-1.167-.016-.027-.013-.028L7.465,22.71A.027.027,0,0,0,7.441,22.695Z" transform="translate(-0.013 -0.022)" fill="#faacc8" stroke="#000" stroke-width="0.319"/>
                  </g>
                </g>
              </g>
            </g>
          </g>
        </g>
      </g>
    </g>
  </g>
</svg>
