<svg xmlns="http://www.w3.org/2000/svg" width="26" height="26" viewBox="0 0 26 26">
  <g id="アートワーク_94" data-name="アートワーク 94" transform="translate(11 11)">
    <g id="グループ_1111030" data-name="グループ 1111030" transform="translate(-11 -11)">
      <rect id="長方形_428408" data-name="長方形 428408" width="26" height="26" fill="none"/>
      <path id="パス_1149964" data-name="パス 1149964" d="M29.255,19.067a.751.751,0,1,0-.978,1.141,1.251,1.251,0,0,1,.349,1.212,1.35,1.35,0,0,1-.6.725A9,9,0,0,0,24.5,17.87a10.921,10.921,0,0,0-4.65-1.665,13.657,13.657,0,0,0-6.534.807l-.03.012A.139.139,0,0,1,13.136,17a3.115,3.115,0,0,0-3.322-.679.515.515,0,0,0-.286.282.523.523,0,0,0,.008.407l.8,1.774a.236.236,0,0,1-.05.271,8.655,8.655,0,0,0-2.009,2.956.4.4,0,0,1-.325.248l-.859.1a.951.951,0,0,0-.847.946v4.171a.948.948,0,0,0,.865.948l1.29.117a.394.394,0,0,1,.308.2A8.959,8.959,0,0,0,11.5,31.8a.351.351,0,0,1,.138.285v1.872a.893.893,0,0,0,.887.887h2.314a.893.893,0,0,0,.887-.887V33.6a12.287,12.287,0,0,0,4.718.014v.345a.893.893,0,0,0,.887.887h2.311a.893.893,0,0,0,.887-.887V32.121a.355.355,0,0,1,.146-.3,8.45,8.45,0,0,0,3.848-6.915,7.708,7.708,0,0,0-.107-1.259,2.926,2.926,0,0,0,1.65-1.809A2.745,2.745,0,0,0,29.255,19.067ZM11.348,23.616a1.257,1.257,0,1,1,1.257-1.257A1.257,1.257,0,0,1,11.348,23.616ZM22.8,19.944a.87.87,0,0,1-1.21.226,6.231,6.231,0,0,0-5.539-.386.87.87,0,1,1-.666-1.608,7.969,7.969,0,0,1,7.188.558A.871.871,0,0,1,22.8,19.944Z" transform="translate(-4.623 -11.916)" fill="#faacc8"/>
    </g>
  </g>
</svg>
