<svg xmlns="http://www.w3.org/2000/svg" width="26" height="26" viewBox="0 0 26 26">
  <g id="アートワーク_89" data-name="アートワーク 89" transform="translate(11 11)">
    <g id="グループ_1111001" data-name="グループ 1111001" transform="translate(-11 -11)">
      <rect id="長方形_428384" data-name="長方形 428384" width="26" height="26" fill="none"/>
      <g id="グループ_1109151" data-name="グループ 1109151" transform="translate(0.68 2.845)">
        <path id="パス_1145838" data-name="パス 1145838" d="M43.917,10.941a8.667,8.667,0,0,0-7.057,3.628,5.63,5.63,0,0,1,3.16,5.05,5.56,5.56,0,0,1-1,3.2,6.045,6.045,0,0,1,3.377,5.344,8.938,8.938,0,0,0,1.524.136,8.68,8.68,0,0,0,0-17.36m4.921,10.445a1.192,1.192,0,0,1-1.148.874.946.946,0,0,1-.324-.048l-3.679-1.029a1.187,1.187,0,0,1-.883-1.148V15.008a1.2,1.2,0,0,1,2.394,0v4.111l2.817.8a1.182,1.182,0,0,1,.833,1.45l-.006.022" transform="translate(-27.957 -10.941)" fill="#faacc8"/>
        <path id="パス_1145839" data-name="パス 1145839" d="M15.476,65.519v2.214a.809.809,0,0,1-.809.809H3.425a.8.8,0,0,1-.809-.8V65.519a4.459,4.459,0,0,1,2.955-4.186,5.6,5.6,0,0,0,6.95,0,4.471,4.471,0,0,1,2.956,4.186" transform="translate(-2.616 -48.231)" fill="#faacc8"/>
        <path id="パス_1145840" data-name="パス 1145840" d="M15.8,36.84a4.055,4.055,0,1,0-4.055-4.055A4.055,4.055,0,0,0,15.8,36.84h0" transform="translate(-9.37 -24.106)" fill="#faacc8"/>
      </g>
    </g>
  </g>
</svg>
