<svg xmlns="http://www.w3.org/2000/svg" width="26" height="26" viewBox="0 0 26 26">
  <g id="アートワーク_88" data-name="アートワーク 88" transform="translate(11 11)">
    <g id="グループ_1111002" data-name="グループ 1111002" transform="translate(-11 -11)">
      <rect id="長方形_428385" data-name="長方形 428385" width="26" height="26" fill="none"/>
      <path id="パス_1149947" data-name="パス 1149947" d="M23.532,15.934h-.023a5.618,5.618,0,0,0-4.624,2.748,5.635,5.635,0,0,0-4.647-2.749c-3.316,0-5.914,2.947-5.914,6.71,0,.011,0,.022,0,.032a8.06,8.06,0,0,0,2.543,5.484,77.8,77.8,0,0,0,7.45,5.706.994.994,0,0,0,.57.179.966.966,0,0,0,.554-.172,77.841,77.841,0,0,0,7.475-5.727,8.051,8.051,0,0,0,2.527-5.469c0-.011,0-.022,0-.033C29.446,18.881,26.848,15.934,23.532,15.934Z" transform="translate(-5.885 -11.555)" fill="#faacc8"/>
    </g>
  </g>
</svg>
