<svg xmlns="http://www.w3.org/2000/svg" width="26" height="26" viewBox="0 0 26 26">
  <g id="アートワーク_92" data-name="アートワーク 92" transform="translate(11 11)">
    <g id="グループ_1111022" data-name="グループ 1111022" transform="translate(-11 -11)">
      <rect id="長方形_428400" data-name="長方形 428400" width="26" height="26" fill="none"/>
      <g id="グループ_1109649" data-name="グループ 1109649" transform="translate(3.684 2.568)">
        <path id="パス_1146928" data-name="パス 1146928" d="M29.632,9.878H15.174a1.006,1.006,0,0,0-1,1.005v14.46a1,1,0,0,0,1,1h8.233l7.23-7.237V10.883a1.006,1.006,0,0,0-1-1.005m-3.309,6.838-4.217,4.218a.979.979,0,0,1-.706.3,1.015,1.015,0,0,1-.717-.3l-2.2-2.2a1.005,1.005,0,1,1,1.423-1.421h0L21.4,18.8l3.511-3.511a.992.992,0,0,1,1.4-.01l.01.01a1,1,0,0,1,0,1.42l0,0" transform="translate(-14.169 -9.878)" fill="#faacc8"/>
        <path id="パス_1146929" data-name="パス 1146929" d="M56.743,57.637l2.747,2.756,6.133-6.138L62.868,51.5Z" transform="translate(-45.674 -40.678)" fill="#faacc8"/>
        <path id="パス_1146930" data-name="パス 1146930" d="M88.051,44.653l-2.04-2.04a.5.5,0,0,0-.714,0h0l-1.232,1.232L86.82,46.6l1.231-1.232a.505.505,0,0,0,0-.714h0" transform="translate(-65.891 -33.993)" fill="#faacc8"/>
        <path id="パス_1146931" data-name="パス 1146931" d="M48.57,79.645a.6.6,0,0,0-.169.349l-.267,2.178a.594.594,0,0,0,.518.662.576.576,0,0,0,.144,0l2.178-.267a.594.594,0,0,0,.348-.17l.83-.83L49.4,78.812Z" transform="translate(-39.3 -60.889)" fill="#faacc8"/>
      </g>
    </g>
  </g>
</svg>
