<svg xmlns="http://www.w3.org/2000/svg" width="26" height="26" viewBox="0 0 26 26">
  <g id="アートワーク_95" data-name="アートワーク 95" transform="translate(11 11)">
    <g id="グループ_1111041" data-name="グループ 1111041" transform="translate(-11 -11)">
      <rect id="長方形_428417" data-name="長方形 428417" width="26" height="26" fill="none"/>
      <path id="パス_1149971" data-name="パス 1149971" d="M23.583,12.947A10.636,10.636,0,1,0,34.22,23.583,10.636,10.636,0,0,0,23.583,12.947ZM27.666,26.2h0a1.14,1.14,0,0,1-1.536.476l-3.283-1.73a1.137,1.137,0,0,1-.607-1.007V17.62a1.137,1.137,0,0,1,2.275,0v5.637l2.675,1.409A1.14,1.14,0,0,1,27.666,26.2Z" transform="translate(-10.583 -10.583)" fill="#faacc8"/>
    </g>
  </g>
</svg>
