<svg xmlns="http://www.w3.org/2000/svg" width="26" height="26" viewBox="0 0 26 26">
  <g id="アートワーク_87" data-name="アートワーク 87" transform="translate(11 11)">
    <g id="グループ_1110995" data-name="グループ 1110995" transform="translate(-11 -11)">
      <rect id="長方形_428382" data-name="長方形 428382" width="26" height="26" fill="none"/>
      <g id="グループ_1109147" data-name="グループ 1109147" transform="translate(3.135 3.253)">
        <path id="パス_1145833" data-name="パス 1145833" d="M27.609,18.864h-.515v1.4a1.922,1.922,0,0,1-1.928,1.917H23.953a1.922,1.922,0,0,1-1.931-1.915V18.864h-2.9v1.4a1.923,1.923,0,0,1-1.923,1.917H15.975a1.923,1.923,0,0,1-1.923-1.917v-1.4h-.519a2.828,2.828,0,0,0-2.827,2.825v2.062H30.434V21.689a2.827,2.827,0,0,0-2.827-2.827" transform="translate(-10.706 -16.932)" fill="#faacc8"/>
        <path id="パス_1145834" data-name="パス 1145834" d="M10.706,52.017a2.833,2.833,0,0,0,2.827,2.828H27.609a2.828,2.828,0,0,0,2.827-2.828V43.454H10.706Zm5.974-4.352a1.121,1.121,0,0,1,1.585.047l.011.012,1.457,1.567,3.214-3.46a1.132,1.132,0,1,1,1.687,1.511l-.032.035-4.04,4.336a1.132,1.132,0,0,1-1.6.06q-.031-.029-.06-.06l-2.279-2.444a1.129,1.129,0,0,1,.05-1.6l.009-.008" transform="translate(-10.706 -35.35)" fill="#faacc8"/>
        <path id="パス_1145835" data-name="パス 1145835" d="M29.793,15.148h1.216a.64.64,0,0,0,.64-.64h0V11.816a.64.64,0,0,0-.64-.64H29.793a.64.64,0,0,0-.64.64h0v2.692a.64.64,0,0,0,.64.64h0" transform="translate(-24.522 -11.176)" fill="#faacc8"/>
        <path id="パス_1145836" data-name="パス 1145836" d="M61.549,15.148h1.216a.64.64,0,0,0,.64-.64h0V11.816a.64.64,0,0,0-.64-.64H61.549a.64.64,0,0,0-.64.64v2.692a.64.64,0,0,0,.64.64h0" transform="translate(-48.305 -11.176)" fill="#faacc8"/>
      </g>
    </g>
  </g>
</svg>
