<svg xmlns="http://www.w3.org/2000/svg" width="20" height="20" viewBox="0 0 20 20">
  <g id="グループ_1124447" data-name="グループ 1124447" transform="translate(-319.5 -2884.43)">
    <rect id="長方形_418840" data-name="長方形 418840" width="20" height="20" transform="translate(319.5 2884.43)" fill="none"/>
    <path id="合体_4" data-name="合体 4" d="M.312,10.38A.966.966,0,0,1,0,9.67a.956.956,0,0,1,.309-.7L4.15,5.332.309,1.7a.962.962,0,0,1,0-1.414A1.064,1.064,0,0,1,1.041,0a1.064,1.064,0,0,1,.73.284L6.358,4.623A.96.96,0,0,1,6.389,6l-.009.007-4.6,4.368a1.056,1.056,0,0,1-.731.287A1.057,1.057,0,0,1,.312,10.38Z" transform="translate(326.166 2889.096)" fill="#faacc8"/>
  </g>
</svg>
