<svg xmlns="http://www.w3.org/2000/svg" xmlns:xlink="http://www.w3.org/1999/xlink" width="88" height="65" viewBox="0 0 88 65">
  <defs>
    <clipPath id="clip-path">
      <rect id="長方形_431501" data-name="長方形 431501" width="88" height="65" fill="#fff" stroke="#707070" stroke-width="1"/>
    </clipPath>
  </defs>
  <g id="グループ_1124006" data-name="グループ 1124006" transform="translate(-1016 -342.543)">
    <g id="マスクグループ_1110994" data-name="マスクグループ 1110994" transform="translate(1016 342.543)" clip-path="url(#clip-path)">
      <path id="パス_177571" data-name="パス 177571" d="M32.554,0A13.016,13.016,0,0,0,19.539,13.015c0,10.693,13.015,22.429,13.015,22.429S45.57,23.7,45.57,13.013A13.016,13.016,0,0,0,32.554,0m0,19.911a6.663,6.663,0,1,1,6.662-6.662,6.662,6.662,0,0,1-6.662,6.662" transform="translate(12.18)" fill="#faacc8"/>
      <path id="パス_177572" data-name="パス 177572" d="M7.769,38.993c4.5-2.227,6.97-1.688,8.434,1.272,1.56,3.157.082,6.06-4.113,8.133-2.782,1.376-5.231,1.707-7.189.972A1.815,1.815,0,0,1,3.87,48.4a1.623,1.623,0,0,1,.793-2.289A1.772,1.772,0,0,1,5.9,45.991a7.15,7.15,0,0,0,4.972-.671c1.878-.928,2.631-2.125,2.064-3.274-.47-.949-1.45-.986-4.111.3C4.34,44.509,1.973,44,.554,41.131c-1.485-3,.071-6.138,4.048-8.1a8.834,8.834,0,0,1,6.03-.976,1.808,1.808,0,0,1,1.219,1.019,1.623,1.623,0,0,1-.794,2.289,1.8,1.8,0,0,1-1.167.138,6.42,6.42,0,0,0-4.069.608c-1.745.863-2.543,2.138-2,3.241.436.884,1.429.889,3.947-.355" transform="translate(4.4 12.686)" fill="#fcd1e1"/>
      <path id="パス_177573" data-name="パス 177573" d="M20.281,44.195c-3.818.868-6.921-1-7.74-4.6s1.167-6.63,4.866-7.47c3.314-.755,6.427,1.06,7.057,3.823l.043.192a1.635,1.635,0,0,1-1.293,2.087l-7.082,1.612a2.964,2.964,0,0,0,3.505,1.525,3.472,3.472,0,0,0,2.272-1.553,1.563,1.563,0,0,1,.976-.7A1.376,1.376,0,0,1,24.648,40.2a1.588,1.588,0,0,1-.117,1.036,6.093,6.093,0,0,1-4.249,2.963M15.618,37.58,21.26,36.3a2.734,2.734,0,0,0-3.209-1.339,2.844,2.844,0,0,0-2.433,2.624" transform="translate(9.32 12.722)" fill="#fcd1e1"/>
      <path id="パス_177574" data-name="パス 177574" d="M35.044,32.3l.354,8.536A1.62,1.62,0,0,1,33.776,42.7a1.573,1.573,0,0,1-1.706-1.31h-.05a4.61,4.61,0,0,1-3.6,1.678c-3.42.144-5.786-2.2-5.942-5.963s2-6.294,5.426-6.437a4.622,4.622,0,0,1,3.729,1.373h.049a1.554,1.554,0,0,1,1.591-1.448,1.6,1.6,0,0,1,1.773,1.7m-3.193,4.421a2.957,2.957,0,0,0-3.132-3,2.888,2.888,0,0,0-2.8,3.248,2.9,2.9,0,0,0,3.058,3,2.956,2.956,0,0,0,2.872-3.249" transform="translate(13.346 12.18)" fill="#fcd1e1"/>
      <path id="パス_177575" data-name="パス 177575" d="M42.624,33.255a1.576,1.576,0,0,1-1.851,1.475c-2.129-.239-3.435.58-3.722,3.125l-.393,3.5a1.69,1.69,0,1,1-3.353-.378l.956-8.491a1.687,1.687,0,1,1,3.363.28l.05.006A3.57,3.57,0,0,1,41.147,31.4a1.564,1.564,0,0,1,1.476,1.851" transform="translate(17.655 12.301)" fill="#fcd1e1"/>
      <path id="パス_177576" data-name="パス 177576" d="M49.677,43.788a6.153,6.153,0,0,1-5.207.843,6.015,6.015,0,0,1-4.724-7.565c.888-3.586,4.027-5.4,7.708-4.485a6.358,6.358,0,0,1,3.93,2.673,1.6,1.6,0,0,1,.2,1.243A1.459,1.459,0,0,1,49.7,37.628a1.552,1.552,0,0,1-.916-.605,3.559,3.559,0,0,0-2.075-1.454,2.894,2.894,0,0,0-3.621,2.327,2.906,2.906,0,0,0,2.117,3.747,3.27,3.27,0,0,0,2.644-.436,1.586,1.586,0,0,1,2.394,1.709,1.544,1.544,0,0,1-.57.874" transform="translate(20.141 12.878)" fill="#fcd1e1"/>
      <path id="パス_177577" data-name="パス 177577" d="M60.934,45.2l-2.022,4.575a1.691,1.691,0,1,1-3.087-1.363L57.686,44.2c.737-1.668.359-2.886-1.13-3.542-1.553-.688-2.924-.025-3.709,1.755l-1.732,3.92a1.69,1.69,0,1,1-3.086-1.365l5.633-12.753a1.691,1.691,0,1,1,3.087,1.363l-1.98,4.484.043.018a4.459,4.459,0,0,1,3.8.117c2.952,1.3,3.751,3.758,2.32,7" transform="translate(23.441 12.375)" fill="#fcd1e1"/>
    </g>
    <rect id="長方形_431817" data-name="長方形 431817" width="88" height="64.533" transform="translate(1016 342.543)" fill="none"/>
  </g>
</svg>
