<svg xmlns="http://www.w3.org/2000/svg" xmlns:xlink="http://www.w3.org/1999/xlink" width="100%" height="40" viewBox="0 0 375 40" preserveAspectRatio="none">
  <defs>
    <clipPath id="clip-path">
      <rect id="長方形_431504" data-name="長方形 431504" width="100%" height="40" transform="translate(-17690 -17663)" fill="#fff" stroke="#707070" stroke-width="1"/>
    </clipPath>
    <clipPath id="clip-path-2">
      <rect id="長方形_427295" data-name="長方形 427295" width="181.083" height="39.717" transform="translate(0 0)" fill="none"/>
    </clipPath>
  </defs>
  <g id="マスクグループ_1110996" data-name="マスクグループ 1110996" transform="translate(17690 17663)" clip-path="url(#clip-path)">
    <g id="グループ_1123398" data-name="グループ 1123398" transform="translate(-17690 -17663)">
      <g id="グループ_1109090" data-name="グループ 1109090" clip-path="url(#clip-path-2)">
        <path id="パス_1145747" data-name="パス 1145747" d="M0,.094H137.164c1.661,0,.2-.761-2.316,3.1-3.522,5.406-6.218,7.854-8.493,8.978-4.559,2.251-10.573,1.382-14.695-1.6-3.09-2.232-5.3-5.726-8.816-7.188-4.937-2.05-10.573.64-14.7,4.039s-7.771,7.663-12.784,9.52C62.448,21.73,48.13,8.356,35.074,12.735c-4.852,1.627-8.606,5.5-11.709,9.568s-5.79,8.508-9.51,12.023S5.049,40.391,0,39.559L0,.094M157.86,4.32q-.567-.428-1.136-.85A19.37,19.37,0,0,0,150.238.046c9.925,0,19.857-.092,29.781-.008,1.269.011,1.539-.384.059,1.143a53.15,53.15,0,0,1-5.39,5.31,10.029,10.029,0,0,1-4.183,2.122,13.11,13.11,0,0,1-5.217-.055c-3.053-.664-5.152-2.523-7.428-4.238" fill="#fff"/>
      </g>
    </g>
  </g>
</svg>
