<svg xmlns="http://www.w3.org/2000/svg" width="1920" height="34.001" viewBox="0 0 1920 34.001" preserveAspectRatio="none">
  <path id="中マド_7" data-name="中マド 7" d="M1920,34H0V0H1158.121a74.253,74.253,0,0,1,18.484,6.569l.925.479.217.112c8.775,4.551,18.721,9.709,33.063,9.92.294,0,.592.006.888.006a63.557,63.557,0,0,0,18.143-2.709,121.978,121.978,0,0,0,14.878-5.688c8.034-3.536,18.842-7.594,31.218-7.594,1.2,0,2.4.038,3.585.114,6.3.4,11.72,2.247,16.956,4.028,5.529,1.88,11.243,3.824,17.977,4.055.432.015.875.022,1.318.022,6.077,0,11.937-1.419,17.6-2.792a86.625,86.625,0,0,1,15.483-2.76c1.283-.073,2.592-.109,3.89-.109,10.836,0,22.164,2.477,34.632,7.572a93.561,93.561,0,0,1,10.788,5.85l.006,0a160.594,160.594,0,0,0,18.145,9.674c7.8,3.374,14.842,5.083,21.52,5.225.585.012,1.181.019,1.773.019,20.9,0,32.809-8.067,43.319-15.185C1488.575,13,1493.9,9.39,1499.978,7.5c4.307-1.338,10.8-3.29,17.469-4.795A89.667,89.667,0,0,1,1536.113.2V0H1920V34Z" fill="#f888b3"/>
</svg>
