<svg xmlns="http://www.w3.org/2000/svg" xmlns:xlink="http://www.w3.org/1999/xlink" width="375" height="20" viewBox="0 0 375 20" preserveAspectRatio="none">
  <defs>
    <clipPath id="clip-path">
      <rect id="長方形_431663" data-name="長方形 431663" width="375" height="20" transform="translate(0 654)" fill="#fff" stroke="#707070" stroke-width="1"/>
    </clipPath>
  </defs>
  <g id="マスクグループ_1111013" data-name="マスクグループ 1111013" transform="translate(0 -654)" clip-path="url(#clip-path)">
    <path id="中マド_4" data-name="中マド 4" d="M374.924,20H0V0H305.005a4.977,4.977,0,0,1,2.927,2.684l.006.014,0,.006.059.148a6.583,6.583,0,0,0,6.3,3.828,7.026,7.026,0,0,0,5.3-2.266c1.859-2.1,3.406-3.184,4.6-3.21l.174,0c3.1,0,5.221,1.855,7.464,3.819,1.9,1.667,3.871,3.39,6.515,3.918a9.116,9.116,0,0,0,1.783.173,20.357,20.357,0,0,0,6.551-1.494,26.517,26.517,0,0,1,5.6-1.48,7.956,7.956,0,0,1,.869-.043c.146,0,.3,0,.457.009a12.441,12.441,0,0,1,9.706,5c1.008,1.422,1.887,2.787,2.613,4.057,1.64,2.873,5.089,4.729,9,4.843Z" transform="translate(0 654)" fill="#f888b3"/>
  </g>
</svg>
