<svg xmlns="http://www.w3.org/2000/svg" xmlns:xlink="http://www.w3.org/1999/xlink" width="86" height="63" viewBox="0 0 86 63">
  <defs>
    <clipPath id="clip-path">
      <rect id="長方形_432027" data-name="長方形 432027" width="86" height="63" transform="translate(-16802 -6952)" fill="#fff" stroke="#707070" stroke-width="1"/>
    </clipPath>
    <clipPath id="clip-path-2">
      <rect id="長方形_432025" data-name="長方形 432025" width="34" height="33.06" transform="translate(0 0)" fill="#faacc8"/>
    </clipPath>
  </defs>
  <g id="マスクグループ_1111027" data-name="マスクグループ 1111027" transform="translate(16802 6952)" clip-path="url(#clip-path)">
    <g id="グループ_1124702" data-name="グループ 1124702">
      <path id="パス_1165782" data-name="パス 1165782" d="M-40.836-15.41a1.693,1.693,0,0,0-1.84,1.84V-1.679A1.633,1.633,0,0,0-40.951.138a1.628,1.628,0,0,0,1.7-1.817V-5.267h4.692c3.473,0,5.359-1.771,5.359-5.083,0-3.289-1.886-5.06-5.359-5.06ZM-39.25-8.4v-3.887h4.3c1.472,0,2.254.69,2.254,1.932,0,1.288-.782,1.955-2.254,1.955ZM-25.795-12.6A1.708,1.708,0,0,0-24-14.421a1.672,1.672,0,0,0-1.794-1.771,1.666,1.666,0,0,0-1.771,1.771A1.7,1.7,0,0,0-25.795-12.6Zm0,1.426a1.488,1.488,0,0,0-1.564,1.656v7.981A1.507,1.507,0,0,0-25.795.138a1.512,1.512,0,0,0,1.587-1.679V-9.522A1.494,1.494,0,0,0-25.795-11.178Zm14.628,8.6a1.407,1.407,0,0,0-1.495-1.472,1.409,1.409,0,0,0-1.058.46,3.059,3.059,0,0,1-2.3.989,2.714,2.714,0,0,1-2.76-2.921,2.7,2.7,0,0,1,2.76-2.921,3.32,3.32,0,0,1,2.208.851,1.463,1.463,0,0,0,.966.345A1.364,1.364,0,0,0-11.4-8.694a1.5,1.5,0,0,0-.46-1.081,5.943,5.943,0,0,0-4.163-1.541A5.6,5.6,0,0,0-22-5.52a5.616,5.616,0,0,0,5.98,5.8,5.745,5.745,0,0,0,4.531-1.932A1.445,1.445,0,0,0-11.167-2.576Zm8.809-3.542,2.9-2.3a1.426,1.426,0,0,0,.6-1.242A1.437,1.437,0,0,0-.379-11.178a1.658,1.658,0,0,0-1.173.506L-6.083-6.693v-7.866A1.512,1.512,0,0,0-7.67-16.238a1.507,1.507,0,0,0-1.564,1.679V-1.541A1.507,1.507,0,0,0-7.67.138,1.512,1.512,0,0,0-6.083-1.541V-3.2l1.426-1.1L-1.622-.529A1.613,1.613,0,0,0-.31.138,1.473,1.473,0,0,0,1.253-1.426,1.777,1.777,0,0,0,.771-2.668ZM20.6-15.548a1.593,1.593,0,0,0-1.679,1.794v7.038c0,2.553-1.173,3.887-3.4,3.887s-3.4-1.334-3.4-3.887v-6.992a1.641,1.641,0,0,0-1.725-1.84,1.635,1.635,0,0,0-1.7,1.84v7.015C8.683-2.139,11.075.3,15.514.3c4.393,0,6.762-2.438,6.762-6.992v-7.061A1.593,1.593,0,0,0,20.6-15.548Zm10.81,4.232a4.378,4.378,0,0,0-3.427,1.4h-.046a1.457,1.457,0,0,0-1.564-1.265,1.488,1.488,0,0,0-1.564,1.656V2.737a1.579,1.579,0,1,0,3.151,0V-1.1H28a4.426,4.426,0,0,0,3.4,1.38C34.6.276,36.72-2,36.72-5.52S34.6-11.316,31.407-11.316ZM30.763-2.6A2.762,2.762,0,0,1,27.957-5.52a2.762,2.762,0,0,1,2.806-2.921A2.7,2.7,0,0,1,33.5-5.52,2.709,2.709,0,0,1,30.763-2.6Zm8.579-3.634a1.463,1.463,0,0,0,1.518,1.61,1.463,1.463,0,0,0,1.518-1.61l.207-7.475a1.64,1.64,0,0,0-1.725-1.84,1.64,1.64,0,0,0-1.725,1.84Zm1.518,2.76a1.7,1.7,0,0,0-1.794,1.817A1.69,1.69,0,0,0,40.86.138a1.69,1.69,0,0,0,1.794-1.794A1.7,1.7,0,0,0,40.86-3.473Z" transform="translate(-16759 -6894.042)" fill="#fbcbde"/>
      <g id="グループ_1124701" data-name="グループ 1124701" transform="translate(-16776 -6952.102)" clip-path="url(#clip-path-2)">
        <path id="パス_1165783" data-name="パス 1165783" d="M4.244,24.534H1.909A1.908,1.908,0,0,1,0,22.625V8.95A1.908,1.908,0,0,1,1.909,7.041H4.244A1.908,1.908,0,0,1,6.153,8.95V22.625a1.908,1.908,0,0,1-1.909,1.909" transform="translate(2.6 5.019)" fill="#faacc8"/>
        <path id="パス_1165784" data-name="パス 1165784" d="M26.759,12.4A2.582,2.582,0,0,0,24.15,9.971s-7.852,0-8.717-.064a.409.409,0,0,1-.31-.18.3.3,0,0,1-.047-.249c.053-.112.34-.682.5-.983.785-1.686,1.856-5.065.892-7.041a2.515,2.515,0,0,0-1.769-1.4L14.642.045a1.925,1.925,0,0,0-1.91.605L12.7.688c-.234.36-.539.973-.923,1.752-.986,1.99-2.475,5-4.3,6.739l-.175.168a8.229,8.229,0,0,1-.858.76,1.622,1.622,0,0,0-.684,1.308V24.857a1.549,1.549,0,0,0,1,1.439,4.564,4.564,0,0,1,.431.2c.175.092.353.19.536.29A10.321,10.321,0,0,0,12.6,28h8.3a2.586,2.586,0,0,0,2.606-2.4,2.533,2.533,0,0,0-.8-1.977,2.531,2.531,0,0,0,1.14-4.382,2.53,2.53,0,0,0,.959-4.275A2.537,2.537,0,0,0,26.759,12.4" transform="translate(4.64 2.528)" fill="#faacc8"/>
      </g>
    </g>
    <g id="グループ_1124704" data-name="グループ 1124704">
      <path id="パス_1165785" data-name="パス 1165785" d="M-40.836-15.41a1.693,1.693,0,0,0-1.84,1.84V-1.679A1.633,1.633,0,0,0-40.951.138a1.628,1.628,0,0,0,1.7-1.817V-5.267h4.692c3.473,0,5.359-1.771,5.359-5.083,0-3.289-1.886-5.06-5.359-5.06ZM-39.25-8.4v-3.887h4.3c1.472,0,2.254.69,2.254,1.932,0,1.288-.782,1.955-2.254,1.955ZM-25.795-12.6A1.708,1.708,0,0,0-24-14.421a1.672,1.672,0,0,0-1.794-1.771,1.666,1.666,0,0,0-1.771,1.771A1.7,1.7,0,0,0-25.795-12.6Zm0,1.426a1.488,1.488,0,0,0-1.564,1.656v7.981A1.507,1.507,0,0,0-25.795.138a1.512,1.512,0,0,0,1.587-1.679V-9.522A1.494,1.494,0,0,0-25.795-11.178Zm14.628,8.6a1.407,1.407,0,0,0-1.495-1.472,1.409,1.409,0,0,0-1.058.46,3.059,3.059,0,0,1-2.3.989,2.714,2.714,0,0,1-2.76-2.921,2.7,2.7,0,0,1,2.76-2.921,3.32,3.32,0,0,1,2.208.851,1.463,1.463,0,0,0,.966.345A1.364,1.364,0,0,0-11.4-8.694a1.5,1.5,0,0,0-.46-1.081,5.943,5.943,0,0,0-4.163-1.541A5.6,5.6,0,0,0-22-5.52a5.616,5.616,0,0,0,5.98,5.8,5.745,5.745,0,0,0,4.531-1.932A1.445,1.445,0,0,0-11.167-2.576Zm8.809-3.542,2.9-2.3a1.426,1.426,0,0,0,.6-1.242A1.437,1.437,0,0,0-.379-11.178a1.658,1.658,0,0,0-1.173.506L-6.083-6.693v-7.866A1.512,1.512,0,0,0-7.67-16.238a1.507,1.507,0,0,0-1.564,1.679V-1.541A1.507,1.507,0,0,0-7.67.138,1.512,1.512,0,0,0-6.083-1.541V-3.2l1.426-1.1L-1.622-.529A1.613,1.613,0,0,0-.31.138,1.473,1.473,0,0,0,1.253-1.426,1.777,1.777,0,0,0,.771-2.668ZM20.6-15.548a1.593,1.593,0,0,0-1.679,1.794v7.038c0,2.553-1.173,3.887-3.4,3.887s-3.4-1.334-3.4-3.887v-6.992a1.641,1.641,0,0,0-1.725-1.84,1.635,1.635,0,0,0-1.7,1.84v7.015C8.683-2.139,11.075.3,15.514.3c4.393,0,6.762-2.438,6.762-6.992v-7.061A1.593,1.593,0,0,0,20.6-15.548Zm10.81,4.232a4.378,4.378,0,0,0-3.427,1.4h-.046a1.457,1.457,0,0,0-1.564-1.265,1.488,1.488,0,0,0-1.564,1.656V2.737a1.579,1.579,0,1,0,3.151,0V-1.1H28a4.426,4.426,0,0,0,3.4,1.38C34.6.276,36.72-2,36.72-5.52S34.6-11.316,31.407-11.316ZM30.763-2.6A2.762,2.762,0,0,1,27.957-5.52a2.762,2.762,0,0,1,2.806-2.921A2.7,2.7,0,0,1,33.5-5.52,2.709,2.709,0,0,1,30.763-2.6Zm8.579-3.634a1.463,1.463,0,0,0,1.518,1.61,1.463,1.463,0,0,0,1.518-1.61l.207-7.475a1.64,1.64,0,0,0-1.725-1.84,1.64,1.64,0,0,0-1.725,1.84Zm1.518,2.76a1.7,1.7,0,0,0-1.794,1.817A1.69,1.69,0,0,0,40.86.138a1.69,1.69,0,0,0,1.794-1.794A1.7,1.7,0,0,0,40.86-3.473Z" transform="translate(-16759 -6894.042)" fill="#fbcbde"/>
      <g id="グループ_1124703" data-name="グループ 1124703" transform="translate(-16776 -6952.102)" clip-path="url(#clip-path-2)">
        <path id="パス_1165786" data-name="パス 1165786" d="M4.244,24.534H1.909A1.908,1.908,0,0,1,0,22.625V8.95A1.908,1.908,0,0,1,1.909,7.041H4.244A1.908,1.908,0,0,1,6.153,8.95V22.625a1.908,1.908,0,0,1-1.909,1.909" transform="translate(2.6 5.019)" fill="#faacc8"/>
        <path id="パス_1165787" data-name="パス 1165787" d="M26.759,12.4A2.582,2.582,0,0,0,24.15,9.971s-7.852,0-8.717-.064a.409.409,0,0,1-.31-.18.3.3,0,0,1-.047-.249c.053-.112.34-.682.5-.983.785-1.686,1.856-5.065.892-7.041a2.515,2.515,0,0,0-1.769-1.4L14.642.045a1.925,1.925,0,0,0-1.91.605L12.7.688c-.234.36-.539.973-.923,1.752-.986,1.99-2.475,5-4.3,6.739l-.175.168a8.229,8.229,0,0,1-.858.76,1.622,1.622,0,0,0-.684,1.308V24.857a1.549,1.549,0,0,0,1,1.439,4.564,4.564,0,0,1,.431.2c.175.092.353.19.536.29A10.321,10.321,0,0,0,12.6,28h8.3a2.586,2.586,0,0,0,2.606-2.4,2.533,2.533,0,0,0-.8-1.977,2.531,2.531,0,0,0,1.14-4.382,2.53,2.53,0,0,0,.959-4.275A2.537,2.537,0,0,0,26.759,12.4" transform="translate(4.64 2.528)" fill="#faacc8"/>
      </g>
    </g>
  </g>
</svg>
