<svg xmlns="http://www.w3.org/2000/svg" xmlns:xlink="http://www.w3.org/1999/xlink" width="250" height="62" viewBox="0 0 250 62">
  <defs>
    <clipPath id="clip-path">
      <rect id="長方形_432274" data-name="長方形 432274" width="250" height="62" transform="translate(835 2088)" fill="#fff" stroke="#707070" stroke-width="1" opacity="0.14"/>
    </clipPath>
  </defs>
  <g id="マスクグループ_1111043" data-name="マスクグループ 1111043" transform="translate(-835 -2088)" clip-path="url(#clip-path)">
    <path id="パス_1167112" data-name="パス 1167112" d="M-108.618-2.208a7.956,7.956,0,0,0,1.978-5.5c0-4.738-3.266-7.981-8.073-7.981-4.784,0-8.073,3.243-8.073,7.981S-119.5.276-114.713.276A9.175,9.175,0,0,0-111.447-.3l1.1,1.541A1.81,1.81,0,0,0-108.87,2,1.594,1.594,0,0,0-107.191.322a1.917,1.917,0,0,0-.46-1.219Zm-6.1-.644c-2.714,0-4.577-1.978-4.577-4.853s1.863-4.853,4.577-4.853,4.577,1.978,4.577,4.853a5.086,5.086,0,0,1-.621,2.576L-112-6.831a1.684,1.684,0,0,0-1.426-.713,1.571,1.571,0,0,0-1.61,1.656,1.8,1.8,0,0,0,.391,1.1l1.265,1.771A6.23,6.23,0,0,1-114.713-2.852Zm20.263-8.326a1.494,1.494,0,0,0-1.587,1.656V-5.5c0,1.817-.92,2.9-2.484,2.9-1.472,0-2.254-.92-2.254-2.6V-9.522a1.494,1.494,0,0,0-1.587-1.656,1.488,1.488,0,0,0-1.564,1.656V-4.83c0,3.312,1.61,5.106,4.577,5.106A4.1,4.1,0,0,0-96.059-1.1h.046A1.5,1.5,0,0,0-94.472.138a1.516,1.516,0,0,0,1.587-1.564v-8.1A1.488,1.488,0,0,0-94.449-11.178ZM-84.007-8.6a2.556,2.556,0,0,1,2.645,1.886h-5.4A2.657,2.657,0,0,1-84.007-8.6Zm4.6,7.061a1.492,1.492,0,0,0,.322-.92,1.286,1.286,0,0,0-1.38-1.357,1.463,1.463,0,0,0-1.035.437,3.241,3.241,0,0,1-2.392.943,2.769,2.769,0,0,1-2.875-2.116h6.785a1.527,1.527,0,0,0,1.61-1.633v-.184c0-2.645-2.461-4.945-5.635-4.945a5.6,5.6,0,0,0-5.98,5.8c0,3.45,2.438,5.8,6.1,5.8A5.7,5.7,0,0,0-79.408-1.541Zm6.463-6.072c0-.621.759-1.012,2-1.012a4.035,4.035,0,0,1,2.162.575,1.841,1.841,0,0,0,1.012.345,1.346,1.346,0,0,0,1.4-1.426A1.409,1.409,0,0,0-67.01-10.3a6.6,6.6,0,0,0-4.163-1.012c-3.013,0-4.876,1.4-4.876,3.68s1.357,3.358,4.761,3.358c1.794,0,2.3.276,2.3.851,0,.644-.713,1.012-2,1.012a5.213,5.213,0,0,1-2.76-.69,1.722,1.722,0,0,0-1.035-.368,1.341,1.341,0,0,0-1.38,1.426,1.34,1.34,0,0,0,.529,1.081c1.2.92,2.461,1.242,4.9,1.242,3.013,0,4.853-1.38,4.853-3.634,0-2.346-1.357-3.473-4.853-3.473C-72.438-6.831-72.944-7.084-72.944-7.613ZM-55-2.415a1.389,1.389,0,0,0-1.426-1.472,1.427,1.427,0,0,0-1.173.575,1.526,1.526,0,0,1-1.265.713c-.851,0-1.357-.575-1.357-1.564v-4h3.22a1.38,1.38,0,0,0,1.541-1.449,1.374,1.374,0,0,0-1.541-1.426h-3.22v-2.185A1.512,1.512,0,0,0-61.812-14.9a1.507,1.507,0,0,0-1.564,1.679v8.947c0,2.875,1.61,4.554,4.347,4.554a4.012,4.012,0,0,0,3.841-1.932A1.681,1.681,0,0,0-55-2.415ZM-51.071-12.6a1.708,1.708,0,0,0,1.794-1.817,1.672,1.672,0,0,0-1.794-1.771,1.666,1.666,0,0,0-1.771,1.771A1.7,1.7,0,0,0-51.071-12.6Zm0,1.426a1.488,1.488,0,0,0-1.564,1.656v7.981A1.507,1.507,0,0,0-51.071.138a1.512,1.512,0,0,0,1.587-1.679V-9.522A1.494,1.494,0,0,0-51.071-11.178Zm4.485,5.658a5.616,5.616,0,0,0,5.98,5.8,5.623,5.623,0,0,0,6-5.8c0-3.45-2.438-5.8-6-5.8A5.6,5.6,0,0,0-46.586-5.52Zm3.22,0a2.7,2.7,0,0,1,2.76-2.921A2.706,2.706,0,0,1-37.824-5.52,2.719,2.719,0,0,1-40.606-2.6,2.714,2.714,0,0,1-43.367-5.52Zm18.147-5.8a4.117,4.117,0,0,0-3.312,1.38h-.046a1.487,1.487,0,0,0-1.564-1.242A1.507,1.507,0,0,0-31.705-9.5v7.958A1.507,1.507,0,0,0-30.141.138a1.512,1.512,0,0,0,1.587-1.679v-4c0-1.817.92-2.9,2.507-2.9,1.518,0,2.3.9,2.3,2.6v4.3A1.507,1.507,0,0,0-22.183.138,1.512,1.512,0,0,0-20.6-1.541V-6.21C-20.6-9.522-22.206-11.316-25.219-11.316Zm23.966.138A1.45,1.45,0,0,0-2.795-9.89h-.046a4.318,4.318,0,0,0-3.427-1.426c-3.2,0-5.313,2.277-5.313,5.8s2.116,5.8,5.313,5.8A4.318,4.318,0,0,0-2.841-1.15h.046A1.467,1.467,0,0,0-1.254.138,1.512,1.512,0,0,0,.333-1.541V-9.522A1.494,1.494,0,0,0-1.254-11.178ZM-5.624-2.6A2.709,2.709,0,0,1-8.361-5.52,2.7,2.7,0,0,1-5.624-8.441,2.762,2.762,0,0,1-2.818-5.52,2.762,2.762,0,0,1-5.624-2.6Zm15.755-8.717a4.117,4.117,0,0,0-3.312,1.38H6.773a1.487,1.487,0,0,0-1.564-1.242A1.507,1.507,0,0,0,3.645-9.5v7.958A1.507,1.507,0,0,0,5.209.138,1.512,1.512,0,0,0,6.8-1.541v-4c0-1.817.92-2.9,2.507-2.9,1.518,0,2.3.9,2.3,2.6v4.3A1.507,1.507,0,0,0,13.167.138a1.512,1.512,0,0,0,1.587-1.679V-6.21C14.754-9.522,13.144-11.316,10.131-11.316Zm17.641-4.922a1.507,1.507,0,0,0-1.564,1.679v4.646h-.046a4.3,4.3,0,0,0-3.4-1.4c-3.2,0-5.313,2.277-5.313,5.8s2.116,5.8,5.313,5.8A4.318,4.318,0,0,0,26.185-1.15h.046A1.467,1.467,0,0,0,27.772.138a1.512,1.512,0,0,0,1.587-1.679V-14.559A1.512,1.512,0,0,0,27.772-16.238ZM23.4-2.6A2.709,2.709,0,0,1,20.665-5.52,2.7,2.7,0,0,1,23.4-8.441,2.762,2.762,0,0,1,26.208-5.52,2.762,2.762,0,0,1,23.4-2.6ZM46.08-15.686c-4.577,0-7.176,2.645-7.176,7.36v6.67A1.593,1.593,0,0,0,40.583.138a1.6,1.6,0,0,0,1.679-1.794V-4.324h7.59V-1.7a1.635,1.635,0,0,0,1.7,1.84A1.641,1.641,0,0,0,53.279-1.7V-8.326C53.279-13.041,50.657-15.686,46.08-15.686Zm3.772,8.28h-7.59V-8.464c0-2.668,1.334-4.094,3.8-4.094s3.8,1.426,3.8,4.094Zm13.133-3.91a4.117,4.117,0,0,0-3.312,1.38h-.046a1.487,1.487,0,0,0-1.564-1.242A1.507,1.507,0,0,0,56.5-9.5v7.958A1.507,1.507,0,0,0,58.063.138,1.512,1.512,0,0,0,59.65-1.541v-4c0-1.817.92-2.9,2.507-2.9,1.518,0,2.3.9,2.3,2.6v4.3A1.507,1.507,0,0,0,66.021.138a1.512,1.512,0,0,0,1.587-1.679V-6.21C67.608-9.522,66-11.316,62.985-11.316Zm10.442,3.7c0-.621.759-1.012,2-1.012a4.035,4.035,0,0,1,2.162.575,1.841,1.841,0,0,0,1.012.345,1.346,1.346,0,0,0,1.4-1.426,1.409,1.409,0,0,0-.644-1.173A6.6,6.6,0,0,0,75.2-11.316c-3.013,0-4.876,1.4-4.876,3.68s1.357,3.358,4.761,3.358c1.794,0,2.3.276,2.3.851,0,.644-.713,1.012-2,1.012a5.213,5.213,0,0,1-2.76-.69,1.722,1.722,0,0,0-1.035-.368,1.341,1.341,0,0,0-1.38,1.426,1.34,1.34,0,0,0,.529,1.081c1.2.92,2.461,1.242,4.9,1.242,3.013,0,4.853-1.38,4.853-3.634,0-2.346-1.357-3.473-4.853-3.473C73.934-6.831,73.428-7.084,73.428-7.613Zm24.564-3.565A1.511,1.511,0,0,0,96.565-10.1L94.588-4.623h-.046L92.334-10.1a1.49,1.49,0,0,0-1.449-1.081A1.5,1.5,0,0,0,89.459-10.1l-2.208,5.52H87.2l-2-5.52a1.478,1.478,0,0,0-1.472-1.081,1.5,1.5,0,0,0-1.587,1.564,2.488,2.488,0,0,0,.207.92L85.5-1.012a1.659,1.659,0,0,0,1.61,1.15A1.652,1.652,0,0,0,88.7-1.012l2.116-5.313h.046L93-1.012A1.652,1.652,0,0,0,94.588.138a1.625,1.625,0,0,0,1.564-1.15L99.326-8.74a2.488,2.488,0,0,0,.207-.92A1.467,1.467,0,0,0,97.992-11.178ZM107.261-8.6a2.556,2.556,0,0,1,2.645,1.886h-5.4A2.657,2.657,0,0,1,107.261-8.6Zm4.6,7.061a1.492,1.492,0,0,0,.322-.92,1.286,1.286,0,0,0-1.38-1.357,1.463,1.463,0,0,0-1.035.437,3.241,3.241,0,0,1-2.392.943A2.769,2.769,0,0,1,104.5-4.554h6.785a1.527,1.527,0,0,0,1.61-1.633v-.184c0-2.645-2.461-4.945-5.635-4.945a5.6,5.6,0,0,0-5.98,5.8c0,3.45,2.438,5.8,6.1,5.8A5.7,5.7,0,0,0,111.861-1.541Zm10.028-9.706a3.337,3.337,0,0,0-3.082,1.633h-.046a1.479,1.479,0,0,0-1.587-1.564,1.488,1.488,0,0,0-1.564,1.656v7.981A1.507,1.507,0,0,0,117.174.138a1.512,1.512,0,0,0,1.587-1.679V-4.83c0-2.392,1.127-3.289,3.128-3.289a1.473,1.473,0,0,0,1.564-1.564A1.461,1.461,0,0,0,121.888-11.247Z" transform="translate(960 2147.102)" fill="#ffcbde"/>
    <g id="アートワーク_80" data-name="アートワーク 80" transform="translate(960.5 2104.639)">
      <g id="グループ_1115734" data-name="グループ 1115734" transform="translate(-17.5 -16.439)">
        <path id="パス_1156332" data-name="パス 1156332" d="M47.134,41.959,45.2,36.4a10.454,10.454,0,0,0,1.123-4.708h0A10.514,10.514,0,0,0,35.8,21.176h0A10.515,10.515,0,0,0,25.29,31.69h0A10.514,10.514,0,0,0,35.8,42.2h0A10.457,10.457,0,0,0,40.5,41.09l5.567,1.94A.841.841,0,0,0,47.134,41.959ZM30.469,33.179A1.477,1.477,0,1,1,31.946,31.7,1.477,1.477,0,0,1,30.469,33.179Zm5.372-.025a1.477,1.477,0,1,1,1.477-1.477A1.477,1.477,0,0,1,35.841,33.154Zm5.322.025A1.477,1.477,0,1,1,42.64,31.7,1.476,1.476,0,0,1,41.163,33.179Z" transform="translate(-12.183 -10.201)" fill="#faacc8"/>
        <path id="パス_1156333" data-name="パス 1156333" d="M23.621,9.42a12.02,12.02,0,0,1,3.364.481A13.159,13.159,0,0,0,14.237,0h0A13.155,13.155,0,0,0,1.082,13.155h0a13.082,13.082,0,0,0,1.4,5.89L.061,26a1.052,1.052,0,0,0,1.34,1.34l6.966-2.428a13.148,13.148,0,0,0,4.14,1.276A12.069,12.069,0,0,1,23.621,9.42Z" transform="translate(0)" fill="#faacc8"/>
      </g>
    </g>
  </g>
</svg>
