<svg xmlns="http://www.w3.org/2000/svg" xmlns:xlink="http://www.w3.org/1999/xlink" width="28" height="28" viewBox="0 0 28 28">
  <defs>
    <clipPath id="clip-path">
      <rect id="長方形_426604" data-name="長方形 426604" width="28" height="28" fill="#fff" stroke="#707070" stroke-width="1"/>
    </clipPath>
    <linearGradient id="linear-gradient" x1="0.203" y1="0.181" x2="1.485" y2="1.47" gradientUnits="objectBoundingBox">
      <stop offset="0" stop-color="#8cddcf"/>
      <stop offset="1" stop-color="#98d2ff"/>
    </linearGradient>
  </defs>
  <g id="グループ_1125308" data-name="グループ 1125308" transform="translate(-610 -2299.102)">
    <g id="マスクグループ_892185" data-name="マスクグループ 892185" transform="translate(610 2299.102)" clip-path="url(#clip-path)">
      <path id="合体_16" data-name="合体 16" d="M18.026,24.352l-1.593-2.19a12.969,12.969,0,0,1-4.842.894,11.558,11.558,0,0,1-8.367-3.2A11.42,11.42,0,0,1,0,11.528,11.423,11.423,0,0,1,3.225,3.2,11.558,11.558,0,0,1,11.592,0a11.554,11.554,0,0,1,8.367,3.2,11.419,11.419,0,0,1,3.225,8.324A11.62,11.62,0,0,1,20.3,19.494l1.517,2.078a2.558,2.558,0,0,1,.562,1.565A2.225,2.225,0,0,1,20.1,25.455,2.453,2.453,0,0,1,18.026,24.352ZM4.762,11.528c0,4.3,2.745,7.182,6.83,7.182a7.244,7.244,0,0,0,2.126-.293L11.789,15.78a2.393,2.393,0,0,1-.5-1.437,2.225,2.225,0,0,1,2.285-2.317,2.227,2.227,0,0,1,1.879.908l1.939,2.638a7.9,7.9,0,0,0,1.028-4.044c0-4.3-2.745-7.18-6.83-7.18S4.762,7.232,4.762,11.528Z" transform="translate(0 1.273)" fill="url(#linear-gradient)"/>
    </g>
  </g>
</svg>
