<svg xmlns="http://www.w3.org/2000/svg" width="866.002" height="320.998" viewBox="0 0 866.002 320.998">
  <g id="合体_39" data-name="合体 39" transform="translate(-17262 -11693.001)" fill="#fcf4f8">
    <path d="M 18114.998046875 12012.4990234375 L 17274.998046875 12012.4990234375 C 17271.927734375 12012.4990234375 17269.0390625 12011.302734375 17266.8671875 12009.1318359375 C 17264.6953125 12006.9599609375 17263.5 12004.072265625 17263.5 12001.0009765625 L 17263.5 11806 C 17263.5 11802.9287109375 17264.6953125 11800.041015625 17266.8671875 11797.869140625 C 17269.0390625 11795.6982421875 17271.927734375 11794.501953125 17274.998046875 11794.501953125 L 17535.3515625 11794.501953125 C 17548.5625 11766.98046875 17568.796875 11743.2041015625 17593.91796875 11725.697265625 C 17606.669921875 11716.810546875 17620.5234375 11709.6474609375 17635.09765625 11704.4072265625 C 17650.078125 11699.0205078125 17665.759765625 11695.689453125 17681.7109375 11694.5048828125 L 17681.767578125 11694.5009765625 L 17681.822265625 11694.5009765625 L 17708.173828125 11694.5009765625 L 17708.228515625 11694.5009765625 L 17708.28515625 11694.5048828125 C 17724.236328125 11695.689453125 17739.91796875 11699.0205078125 17754.8984375 11704.4072265625 C 17769.47265625 11709.6474609375 17783.326171875 11716.810546875 17796.078125 11725.697265625 C 17821.19921875 11743.2041015625 17841.43359375 11766.98046875 17854.646484375 11794.501953125 L 18114.998046875 11794.501953125 C 18118.072265625 11794.501953125 18120.9609375 11795.6982421875 18123.1328125 11797.869140625 C 18125.3046875 11800.041015625 18126.501953125 11802.927734375 18126.501953125 11806 L 18126.501953125 12001.0009765625 C 18126.501953125 12004.0732421875 18125.3046875 12006.9599609375 18123.1328125 12009.1318359375 C 18120.9609375 12011.302734375 18118.072265625 12012.4990234375 18114.998046875 12012.4990234375 Z" stroke="none"/>
    <path d="M 18114.998046875 12010.9990234375 C 18120.525390625 12010.9990234375 18125.001953125 12006.5234375 18125.001953125 12001.0009765625 L 18125.001953125 11806 C 18125.001953125 11800.4775390625 18120.525390625 11796.001953125 18114.998046875 11796.001953125 L 17853.69921875 11796.001953125 C 17827.35546875 11740.35546875 17772.607421875 11700.783203125 17708.173828125 11696.0009765625 L 17681.822265625 11696.0009765625 C 17617.388671875 11700.783203125 17562.640625 11740.35546875 17536.298828125 11796.001953125 L 17274.998046875 11796.001953125 C 17269.4765625 11796.001953125 17265 11800.4775390625 17265 11806 L 17265 12001.0009765625 C 17265 12006.5234375 17269.4765625 12010.9990234375 17274.998046875 12010.9990234375 L 18114.998046875 12010.9990234375 M 18114.998046875 12013.9990234375 L 17274.998046875 12013.9990234375 C 17271.525390625 12013.9990234375 17268.26171875 12012.6474609375 17265.806640625 12010.1923828125 C 17263.3515625 12007.7373046875 17262 12004.4736328125 17262 12001.0009765625 L 17262 11806 C 17262 11802.52734375 17263.3515625 11799.263671875 17265.806640625 11796.80859375 C 17268.26171875 11794.353515625 17271.525390625 11793.001953125 17274.998046875 11793.001953125 L 17534.412109375 11793.001953125 C 17547.740234375 11765.6083984375 17567.986328125 11741.9404296875 17593.060546875 11724.4658203125 C 17605.919921875 11715.5048828125 17619.892578125 11708.2802734375 17634.58984375 11702.9951171875 C 17649.697265625 11697.5634765625 17665.513671875 11694.203125 17681.599609375 11693.0087890625 L 17681.7109375 11693.0009765625 L 17708.28515625 11693.0009765625 L 17708.396484375 11693.0087890625 C 17724.482421875 11694.203125 17740.298828125 11697.5625 17755.40625 11702.9951171875 C 17770.103515625 11708.2802734375 17784.076171875 11715.50390625 17796.935546875 11724.4658203125 C 17822.009765625 11741.9404296875 17842.255859375 11765.6083984375 17855.5859375 11793.001953125 L 18114.998046875 11793.001953125 C 18118.47265625 11793.001953125 18121.73828125 11794.353515625 18124.193359375 11796.80859375 C 18126.650390625 11799.2626953125 18128.001953125 11802.52734375 18128.001953125 11806 L 18128.001953125 12001.0009765625 C 18128.001953125 12004.4736328125 18126.650390625 12007.73828125 18124.193359375 12010.1923828125 C 18121.73828125 12012.6474609375 18118.47265625 12013.9990234375 18114.998046875 12013.9990234375 Z" stroke="none" fill="#fff"/>
  </g>
</svg>
