<svg xmlns="http://www.w3.org/2000/svg" xmlns:xlink="http://www.w3.org/1999/xlink" width="375" height="277" viewBox="0 0 375 277">
  <defs>
    <clipPath id="clip-path">
      <rect id="長方形_431961" data-name="長方形 431961" width="375" height="277" fill="#fff" stroke="#707070" stroke-width="1"/>
    </clipPath>
  </defs>
  <g id="マスクグループ_1111022" data-name="マスクグループ 1111022" clip-path="url(#clip-path)">
    <g id="合体_44" data-name="合体 44" transform="translate(2957 3)" fill="#fcf4f8">
      <path d="M -2580.500244140625 272.4999084472656 L -2582.000244140625 272.4999084472656 L -2956.99951171875 272.4999084472656 L -2958.49951171875 272.4999084472656 L -2958.49951171875 270.9999084472656 L -2958.49951171875 36.00000381469727 L -2958.49951171875 34.50000381469727 L -2956.99951171875 34.50000381469727 L -2836.6259765625 34.50000381469727 C -2833.09033203125 29.2558479309082 -2828.943359375 24.42234420776367 -2824.29052734375 20.12385368347168 C -2819.4267578125 15.63040447235107 -2814.027099609375 11.73745441436768 -2808.24169921875 8.553153991699219 C -2802.354736328125 5.312904357910156 -2796.0791015625 2.813204288482666 -2789.5888671875 1.12360417842865 C -2782.90185546875 -0.6172958016395569 -2775.974853515625 -1.499995827674866 -2769.00048828125 -1.499995827674866 C -2762.026123046875 -1.499995827674866 -2755.09912109375 -0.6172958016395569 -2748.411865234375 1.12360417842865 C -2741.921630859375 2.813204288482666 -2735.64599609375 5.312904357910156 -2729.7587890625 8.553153991699219 C -2723.973388671875 11.73745441436768 -2718.57373046875 15.63040447235107 -2713.709716796875 20.12385368347168 C -2709.056884765625 24.42229652404785 -2704.90966796875 29.25588798522949 -2701.3740234375 34.50000381469727 L -2582.000244140625 34.50000381469727 L -2580.500244140625 34.50000381469727 L -2580.500244140625 36.00000381469727 L -2580.500244140625 270.9999084472656 L -2580.500244140625 272.4999084472656 Z" stroke="none"/>
      <path d="M -2582.000244140625 270.9999084472656 L -2582.000244140625 36.00000381469727 L -2702.176513671875 36.00000381469727 C -2716.48681640625 14.31265449523926 -2741.0732421875 4.223632913635811e-06 -2769.00048828125 4.223632913635811e-06 C -2796.927490234375 4.223632913635811e-06 -2821.513671875 14.31265449523926 -2835.823486328125 36.00000381469727 L -2956.99951171875 36.00000381469727 L -2956.99951171875 270.9999084472656 L -2582.000244140625 270.9999084472656 M -2579.000244140625 273.9999084472656 L -2959.99951171875 273.9999084472656 L -2959.99951171875 33.00000381469727 L -2837.419189453125 33.00000381469727 C -2833.918701171875 27.9144172668457 -2829.85009765625 23.21788787841797 -2825.308349609375 19.02210426330566 C -2820.35546875 14.44625377655029 -2814.856689453125 10.48190402984619 -2808.965087890625 7.239054203033447 C -2802.96923828125 3.938854217529297 -2796.5771484375 1.392904281616211 -2789.966796875 -0.327995777130127 C -2783.156494140625 -2.100995779037476 -2776.102294921875 -2.999995708465576 -2769.00048828125 -2.999995708465576 C -2761.898681640625 -2.999995708465576 -2754.844482421875 -2.100995779037476 -2748.033935546875 -0.327995777130127 C -2741.423583984375 1.392904281616211 -2735.031494140625 3.938854217529297 -2729.03564453125 7.239054203033447 C -2723.143798828125 10.48185443878174 -2717.64501953125 14.44625377655029 -2712.69189453125 19.02205467224121 C -2708.150146484375 23.21783828735352 -2704.08154296875 27.9144172668457 -2700.580810546875 33.00000381469727 L -2579.000244140625 33.00000381469727 L -2579.000244140625 273.9999084472656 Z" stroke="none" fill="#fff"/>
    </g>
  </g>
</svg>
