<svg xmlns="http://www.w3.org/2000/svg" width="375" height="10" viewBox="0 0 375 10">
  <g id="グループ_1108244" data-name="グループ 1108244" transform="translate(-3612 -3975)">
    <rect id="長方形_10" data-name="長方形 10" width="375" height="10" transform="translate(3612 3975)" fill="#fff"/>
    <g id="グループ_1108243" data-name="グループ 1108243" transform="translate(3615 3975)">
      <path id="線_5" data-name="線 5" d="M1,10H-1V0H1Z" fill="#fef7f9" opacity="0.91"/>
      <path id="線_5-2" data-name="線 5" d="M1,10H-1V0H1Z" transform="translate(5)" fill="#fef7f9" opacity="0.91"/>
      <path id="線_5-3" data-name="線 5" d="M1,10H-1V0H1Z" transform="translate(10)" fill="#fef7f9" opacity="0.91"/>
      <path id="線_5-4" data-name="線 5" d="M1,10H-1V0H1Z" transform="translate(15)" fill="#fef7f9" opacity="0.91"/>
      <path id="線_5-5" data-name="線 5" d="M1,10H-1V0H1Z" transform="translate(20)" fill="#fef7f9" opacity="0.91"/>
      <path id="線_5-6" data-name="線 5" d="M1,10H-1V0H1Z" transform="translate(25)" fill="#fef7f9" opacity="0.91"/>
      <path id="線_5-7" data-name="線 5" d="M1,10H-1V0H1Z" transform="translate(30)" fill="#fef7f9" opacity="0.91"/>
      <path id="線_5-8" data-name="線 5" d="M1,10H-1V0H1Z" transform="translate(35)" fill="#fef7f9" opacity="0.91"/>
      <path id="線_5-9" data-name="線 5" d="M1,10H-1V0H1Z" transform="translate(40)" fill="#fef7f9" opacity="0.91"/>
      <path id="線_5-10" data-name="線 5" d="M1,10H-1V0H1Z" transform="translate(45)" fill="#fef7f9" opacity="0.91"/>
      <path id="線_5-11" data-name="線 5" d="M1,10H-1V0H1Z" transform="translate(50)" fill="#fef7f9" opacity="0.91"/>
      <path id="線_5-12" data-name="線 5" d="M1,10H-1V0H1Z" transform="translate(55)" fill="#fef7f9" opacity="0.91"/>
      <path id="線_5-13" data-name="線 5" d="M1,10H-1V0H1Z" transform="translate(60)" fill="#fef7f9" opacity="0.91"/>
      <path id="線_5-14" data-name="線 5" d="M1,10H-1V0H1Z" transform="translate(65)" fill="#fef7f9" opacity="0.91"/>
      <path id="線_5-15" data-name="線 5" d="M1,10H-1V0H1Z" transform="translate(70)" fill="#fef7f9" opacity="0.91"/>
      <path id="線_5-16" data-name="線 5" d="M1,10H-1V0H1Z" transform="translate(75)" fill="#fef7f9" opacity="0.91"/>
      <path id="線_5-17" data-name="線 5" d="M1,10H-1V0H1Z" transform="translate(80)" fill="#fef7f9" opacity="0.91"/>
      <path id="線_5-18" data-name="線 5" d="M1,10H-1V0H1Z" transform="translate(85)" fill="#fef7f9" opacity="0.91"/>
      <path id="線_5-19" data-name="線 5" d="M1,10H-1V0H1Z" transform="translate(90)" fill="#fef7f9" opacity="0.91"/>
      <path id="線_5-20" data-name="線 5" d="M1,10H-1V0H1Z" transform="translate(95)" fill="#fef7f9" opacity="0.91"/>
      <path id="線_5-21" data-name="線 5" d="M1,10H-1V0H1Z" transform="translate(100)" fill="#fef7f9" opacity="0.91"/>
      <path id="線_5-22" data-name="線 5" d="M1,10H-1V0H1Z" transform="translate(105)" fill="#fef7f9" opacity="0.91"/>
      <path id="線_5-23" data-name="線 5" d="M1,10H-1V0H1Z" transform="translate(110)" fill="#fef7f9" opacity="0.91"/>
      <path id="線_5-24" data-name="線 5" d="M1,10H-1V0H1Z" transform="translate(115)" fill="#fef7f9" opacity="0.91"/>
      <path id="線_5-25" data-name="線 5" d="M1,10H-1V0H1Z" transform="translate(120)" fill="#fef7f9" opacity="0.91"/>
      <path id="線_5-26" data-name="線 5" d="M1,10H-1V0H1Z" transform="translate(125)" fill="#fef7f9" opacity="0.91"/>
      <path id="線_5-27" data-name="線 5" d="M1,10H-1V0H1Z" transform="translate(130)" fill="#fef7f9" opacity="0.91"/>
      <path id="線_5-28" data-name="線 5" d="M1,10H-1V0H1Z" transform="translate(135)" fill="#fef7f9" opacity="0.91"/>
      <path id="線_5-29" data-name="線 5" d="M1,10H-1V0H1Z" transform="translate(140)" fill="#fef7f9" opacity="0.91"/>
      <path id="線_5-30" data-name="線 5" d="M1,10H-1V0H1Z" transform="translate(145)" fill="#fef7f9" opacity="0.91"/>
      <path id="線_5-31" data-name="線 5" d="M1,10H-1V0H1Z" transform="translate(150)" fill="#fef7f9" opacity="0.91"/>
      <path id="線_5-32" data-name="線 5" d="M1,10H-1V0H1Z" transform="translate(155)" fill="#fef7f9" opacity="0.91"/>
      <path id="線_5-33" data-name="線 5" d="M1,10H-1V0H1Z" transform="translate(160)" fill="#fef7f9" opacity="0.91"/>
      <path id="線_5-34" data-name="線 5" d="M1,10H-1V0H1Z" transform="translate(165)" fill="#fef7f9" opacity="0.91"/>
      <path id="線_5-35" data-name="線 5" d="M1,10H-1V0H1Z" transform="translate(170)" fill="#fef7f9" opacity="0.91"/>
      <path id="線_5-36" data-name="線 5" d="M1,10H-1V0H1Z" transform="translate(175)" fill="#fef7f9" opacity="0.91"/>
      <path id="線_5-37" data-name="線 5" d="M1,10H-1V0H1Z" transform="translate(180)" fill="#fef7f9" opacity="0.91"/>
      <path id="線_5-38" data-name="線 5" d="M1,10H-1V0H1Z" transform="translate(185)" fill="#fef7f9" opacity="0.91"/>
      <path id="線_5-39" data-name="線 5" d="M1,10H-1V0H1Z" transform="translate(190)" fill="#fef7f9" opacity="0.91"/>
      <path id="線_5-40" data-name="線 5" d="M1,10H-1V0H1Z" transform="translate(195)" fill="#fef7f9" opacity="0.91"/>
      <path id="線_5-41" data-name="線 5" d="M1,10H-1V0H1Z" transform="translate(200)" fill="#fef7f9" opacity="0.91"/>
      <path id="線_5-42" data-name="線 5" d="M1,10H-1V0H1Z" transform="translate(205)" fill="#fef7f9" opacity="0.91"/>
      <path id="線_5-43" data-name="線 5" d="M1,10H-1V0H1Z" transform="translate(210)" fill="#fef7f9" opacity="0.91"/>
      <path id="線_5-44" data-name="線 5" d="M1,10H-1V0H1Z" transform="translate(215)" fill="#fef7f9" opacity="0.91"/>
      <path id="線_5-45" data-name="線 5" d="M1,10H-1V0H1Z" transform="translate(220)" fill="#fef7f9" opacity="0.91"/>
      <path id="線_5-46" data-name="線 5" d="M1,10H-1V0H1Z" transform="translate(225)" fill="#fef7f9" opacity="0.91"/>
      <path id="線_5-47" data-name="線 5" d="M1,10H-1V0H1Z" transform="translate(230)" fill="#fef7f9" opacity="0.91"/>
      <path id="線_5-48" data-name="線 5" d="M1,10H-1V0H1Z" transform="translate(235)" fill="#fef7f9" opacity="0.91"/>
      <path id="線_5-49" data-name="線 5" d="M1,10H-1V0H1Z" transform="translate(240)" fill="#fef7f9" opacity="0.91"/>
      <path id="線_5-50" data-name="線 5" d="M1,10H-1V0H1Z" transform="translate(245)" fill="#fef7f9" opacity="0.91"/>
      <path id="線_5-51" data-name="線 5" d="M1,10H-1V0H1Z" transform="translate(250)" fill="#fef7f9" opacity="0.91"/>
      <path id="線_5-52" data-name="線 5" d="M1,10H-1V0H1Z" transform="translate(255)" fill="#fef7f9" opacity="0.91"/>
      <path id="線_5-53" data-name="線 5" d="M1,10H-1V0H1Z" transform="translate(260)" fill="#fef7f9" opacity="0.91"/>
      <path id="線_5-54" data-name="線 5" d="M1,10H-1V0H1Z" transform="translate(265)" fill="#fef7f9" opacity="0.91"/>
      <path id="線_5-55" data-name="線 5" d="M1,10H-1V0H1Z" transform="translate(270)" fill="#fef7f9" opacity="0.91"/>
      <path id="線_5-56" data-name="線 5" d="M1,10H-1V0H1Z" transform="translate(275)" fill="#fef7f9" opacity="0.91"/>
      <path id="線_5-57" data-name="線 5" d="M1,10H-1V0H1Z" transform="translate(280)" fill="#fef7f9" opacity="0.91"/>
      <path id="線_5-58" data-name="線 5" d="M1,10H-1V0H1Z" transform="translate(285)" fill="#fef7f9" opacity="0.91"/>
      <path id="線_5-59" data-name="線 5" d="M1,10H-1V0H1Z" transform="translate(290)" fill="#fef7f9" opacity="0.91"/>
      <path id="線_5-60" data-name="線 5" d="M1,10H-1V0H1Z" transform="translate(295)" fill="#fef7f9" opacity="0.91"/>
      <path id="線_5-61" data-name="線 5" d="M1,10H-1V0H1Z" transform="translate(300)" fill="#fef7f9" opacity="0.91"/>
      <path id="線_5-62" data-name="線 5" d="M1,10H-1V0H1Z" transform="translate(305)" fill="#fef7f9" opacity="0.91"/>
      <path id="線_5-63" data-name="線 5" d="M1,10H-1V0H1Z" transform="translate(310)" fill="#fef7f9" opacity="0.91"/>
      <path id="線_5-64" data-name="線 5" d="M1,10H-1V0H1Z" transform="translate(315)" fill="#fef7f9" opacity="0.91"/>
      <path id="線_5-65" data-name="線 5" d="M1,10H-1V0H1Z" transform="translate(320)" fill="#fef7f9" opacity="0.91"/>
      <path id="線_5-66" data-name="線 5" d="M1,10H-1V0H1Z" transform="translate(325)" fill="#fef7f9" opacity="0.91"/>
      <path id="線_5-67" data-name="線 5" d="M1,10H-1V0H1Z" transform="translate(330)" fill="#fef7f9" opacity="0.91"/>
      <path id="線_5-68" data-name="線 5" d="M1,10H-1V0H1Z" transform="translate(335)" fill="#fef7f9" opacity="0.91"/>
      <path id="線_5-69" data-name="線 5" d="M1,10H-1V0H1Z" transform="translate(340)" fill="#fef7f9" opacity="0.91"/>
      <path id="線_5-70" data-name="線 5" d="M1,10H-1V0H1Z" transform="translate(345)" fill="#fef7f9" opacity="0.91"/>
      <path id="線_5-71" data-name="線 5" d="M1,10H-1V0H1Z" transform="translate(350)" fill="#fef7f9" opacity="0.91"/>
      <path id="線_5-72" data-name="線 5" d="M1,10H-1V0H1Z" transform="translate(355)" fill="#fef7f9" opacity="0.91"/>
      <path id="線_5-73" data-name="線 5" d="M1,10H-1V0H1Z" transform="translate(360)" fill="#fef7f9" opacity="0.91"/>
      <path id="線_5-74" data-name="線 5" d="M1,10H-1V0H1Z" transform="translate(365)" fill="#fef7f9" opacity="0.91"/>
      <path id="線_5-75" data-name="線 5" d="M1,10H-1V0H1Z" transform="translate(370)" fill="#fef7f9" opacity="0.91"/>
    </g>
  </g>
</svg>
