<svg xmlns="http://www.w3.org/2000/svg" xmlns:xlink="http://www.w3.org/1999/xlink" width="220" height="135" viewBox="0 0 220 135">
  <defs>
    <clipPath id="clip-path">
      <rect id="長方形_432273" data-name="長方形 432273" width="220" height="135" transform="translate(-19001 -11264)" fill="#fff" stroke="#707070" stroke-width="1"/>
    </clipPath>
    <clipPath id="clip-path-2">
      <rect id="長方形_432272" data-name="長方形 432272" width="87" height="92" transform="translate(0.43 -0.189)" fill="#fff" stroke="#707070" stroke-width="1"/>
    </clipPath>
  </defs>
  <g id="マスクグループ_1111042" data-name="マスクグループ 1111042" transform="translate(19001 11264)" clip-path="url(#clip-path)">
    <g id="グループ_1125300" data-name="グループ 1125300">
      <g id="マスクグループ_1111041" data-name="マスクグループ 1111041" transform="translate(-18934.43 -11263.811)" clip-path="url(#clip-path-2)">
        <g id="グループ_1125299" data-name="グループ 1125299" transform="translate(6.814 -2.65)">
          <ellipse id="楕円形_249778" data-name="楕円形 249778" cx="24.93" cy="3.116" rx="24.93" ry="3.116" transform="translate(8.993 86.547)" fill="#5b2e02" opacity="0.05"/>
          <g id="アートワーク_81" data-name="アートワーク 81" transform="matrix(0.899, 0.438, -0.438, 0.899, 39.378, 41.406)">
            <g id="グループ_1125298" data-name="グループ 1125298" transform="translate(-28.005 -32.409)">
              <g id="グループ_1125297" data-name="グループ 1125297" transform="translate(0 0)">
                <g id="グループ_1125286" data-name="グループ 1125286" transform="translate(44.406 41.93)">
                  <path id="手" d="M1.394,1.18A5.517,5.517,0,1,1,0,8.231" transform="translate(0.642 0.645)" fill="#ca9181"/>
                  <path id="パス_1167086" data-name="パス 1167086" d="M5.449,12.324A6.177,6.177,0,0,1,.083,9.191.642.642,0,0,1,1.2,8.56,4.874,4.874,0,1,0,2.432,2.33a.642.642,0,1,1-.793-1.01,6.159,6.159,0,0,1,9.595,6.942,6.171,6.171,0,0,1-5.786,4.063Z" transform="translate(0 0)" fill="#231815"/>
                </g>
                <g id="グループ_1125287" data-name="グループ 1125287" transform="translate(9.551 26.879)">
                  <path id="肉体" d="M38.862,15.55q-.274-3.318-.7-7.371A41.167,41.167,0,0,0,36.432,0H7.047A4.279,4.279,0,0,0,2.714,3.769L.166,29.9A5.229,5.229,0,0,0,0,31.2q0,.151.009.3L0,31.592H.015c.209,2.83,1.973,5.063,4.99,5.063a5.786,5.786,0,0,0,4.682-2.331,7.255,7.255,0,0,0,5.388,2.331,5.786,5.786,0,0,0,4.682-2.331,5.786,5.786,0,0,0,4.682,2.331,7.111,7.111,0,0,0,5.324-2.331,5.786,5.786,0,0,0,4.682,2.331c3.017,0,4.845-2.234,5.054-5.063h.015s.036-2.648-.14-8.342C39.28,20.179,38.862,15.55,38.862,15.55Z" transform="translate(0.642 0.642)" fill="#ca9181"/>
                  <path id="パス_1167087" data-name="パス 1167087" d="M35.087,37.939a6.488,6.488,0,0,1-4.7-1.99,8.209,8.209,0,0,1-5.311,1.99A6.49,6.49,0,0,1,20.4,35.963a6.49,6.49,0,0,1-4.682,1.976,8.479,8.479,0,0,1-5.372-1.993,6.488,6.488,0,0,1-4.7,1.993,5.316,5.316,0,0,1-4.019-1.676,6.422,6.422,0,0,1-1.6-3.842A.641.641,0,0,1,0,32.172l0-.042c0-.1-.007-.192-.007-.286a5.886,5.886,0,0,1,.173-1.417L2.717,4.349A4.9,4.9,0,0,1,7.689,0H37.074a.642.642,0,0,1,.607.432,41.428,41.428,0,0,1,1.762,8.321c.271,2.543.506,5.027.7,7.384.012.135.421,4.711.514,7.736.174,5.642.14,8.343.14,8.37a.639.639,0,0,1-.028.18C40.467,35.729,38.2,37.939,35.087,37.939Zm-4.682-3.615a.642.642,0,0,1,.518.263,5.16,5.16,0,0,0,4.164,2.068c2.481,0,4.213-1.754,4.414-4.469a.664.664,0,0,1,.014-.1c0-.606.011-3.269-.141-8.179-.093-3.016-.506-7.616-.51-7.662v0c-.194-2.347-.428-4.822-.7-7.356a41.937,41.937,0,0,0-1.56-7.605H7.689A3.621,3.621,0,0,0,4,4.474L1.447,30.6a.633.633,0,0,1-.017.1,4.607,4.607,0,0,0-.145,1.147c0,.086,0,.175.008.263,0,.013,0,.026,0,.039s0,.026,0,.04c.16,2.16,1.386,4.469,4.349,4.469a5.16,5.16,0,0,0,4.164-2.068.642.642,0,0,1,1.036,0,6.593,6.593,0,0,0,4.87,2.068,5.161,5.161,0,0,0,4.164-2.068.642.642,0,0,1,1.036,0,5.16,5.16,0,0,0,4.164,2.068,6.505,6.505,0,0,0,4.806-2.068A.642.642,0,0,1,30.405,34.325Z" transform="translate(0 0)" fill="#231815"/>
                </g>
                <g id="耳" transform="translate(2.862 4.492)">
                  <g id="グループ_1125288" data-name="グループ 1125288" transform="translate(0 0)">
                    <path id="パス_1167088" data-name="パス 1167088" d="M17.658,14.176A29.439,29.439,0,0,0,8.593,13,40.832,40.832,0,0,0,0,13.906a35.947,35.947,0,0,0,7.558,9.975,13.142,13.142,0,0,0-.415,6.339c.425,1.783,2.4,1.942,3.331,3.391.589.922-.631,4.92,2.085,4.925,2.206,0,.906-3.877,2.991-4.8,2.364-1.051,3.347.568,5.25-1.155s-.272-4.714,3.082-5.892,15.386.913,18.975,0c3.27-.832,5.127-5.62,3.379-8.883a10.009,10.009,0,0,0-4.2-4.351,29.815,29.815,0,0,0-3.535-6.527C36.15,3.661,31.98-.419,30.439.035S27.81,12.453,27.81,12.453A20.98,20.98,0,0,0,17.658,14.176Z" transform="translate(0.642 0.65)" fill="#fff"/>
                    <path id="パス_1167089" data-name="パス 1167089" d="M13.2,39.828H13.2a2.217,2.217,0,0,1-2.237-1.545,7.5,7.5,0,0,1-.291-2.442,4.747,4.747,0,0,0-.1-1.236A4.311,4.311,0,0,0,9.2,33.419a3.957,3.957,0,0,1-2.04-2.4,13.355,13.355,0,0,1,.306-6.284,36.41,36.41,0,0,1-7.4-9.9.642.642,0,0,1,.426-.9,41.111,41.111,0,0,1,8.742-.928,31.041,31.041,0,0,1,9.037,1.135,22.13,22.13,0,0,1,9.606-1.732c.106-1.048.344-3.24.679-5.441.914-6,1.69-6.706,2.346-6.9.353-.1,1.427-.42,4.338,2.189A32.905,32.905,0,0,1,39.669,7.2,30.687,30.687,0,0,1,43.2,13.641a11.017,11.017,0,0,1,4.249,4.508,7.2,7.2,0,0,1,.079,6.242,6.006,6.006,0,0,1-3.866,3.567c-1.806.46-5.4.215-9.211-.043-3.786-.257-8.076-.548-9.71.026-1.536.54-1.605,1.443-1.7,2.694A4.149,4.149,0,0,1,21.873,33.7a3.61,3.61,0,0,1-3.178.973,4.014,4.014,0,0,0-2.242.292c-.65.289-.841,1.046-1.058,2.167C15.175,38.272,14.874,39.828,13.2,39.828ZM1.6,15.011a35.313,35.313,0,0,0,7.022,9.04.642.642,0,0,1,.182.688,12.574,12.574,0,0,0-.4,5.983c.183.77.761,1.145,1.491,1.621a5.432,5.432,0,0,1,1.756,1.573,3.766,3.766,0,0,1,.3,1.914c.017,1.913.194,2.713,1.246,2.715h0c.5,0,.667-.295.93-1.652.217-1.12.486-2.514,1.8-3.1a5.275,5.275,0,0,1,2.873-.4,2.36,2.36,0,0,0,2.208-.646,3.019,3.019,0,0,0,.745-2.215c.1-1.332.229-2.99,2.555-3.807,1.883-.662,5.934-.387,10.223-.1,3.539.24,7.2.488,8.807.079a4.742,4.742,0,0,0,3.008-2.84,5.986,5.986,0,0,0-.036-5.118,9.521,9.521,0,0,0-3.892-4.068.649.649,0,0,1-.341-.368A29.447,29.447,0,0,0,38.628,7.95,31.539,31.539,0,0,0,34.38,3.214c-1.79-1.6-2.767-1.957-3.076-1.921-.141.149-.769,1.074-1.525,6.168-.429,2.887-.684,5.674-.687,5.7a.642.642,0,0,1-.725.578,20.559,20.559,0,0,0-9.812,1.675.643.643,0,0,1-.467.017h0a29.336,29.336,0,0,0-8.849-1.142A42.944,42.944,0,0,0,1.6,15.011Z" fill="#231815"/>
                  </g>
                  <path id="パス_1167090" data-name="パス 1167090" d="M0,.108a24.385,24.385,0,0,1,9.246.906,16.532,16.532,0,0,1,3.38,1.491S10.309,3.7,8.154,5.043C6.73,5.931,5.586,6.83,5.586,6.83S3.173,4.368,1.994,2.918A27.22,27.22,0,0,1,0,.108Z" transform="translate(4.25 16.621)" fill="#ffb5bd"/>
                  <path id="パス_1167091" data-name="パス 1167091" d="M0,0S2.674,8.233,2.974,8.521c.533.1,1.763.385,3.621.793C6.39,8.407,2.358,1.45,0,0Z" transform="translate(34.449 4.707)" fill="#ffb5bd"/>
                </g>
                <g id="さくらんぼ" transform="translate(19.558 8.997)">
                  <g id="グループ_1125289" data-name="グループ 1125289" transform="translate(0.163 2.855)">
                    <ellipse id="楕円形_249779" data-name="楕円形 249779" cx="5.711" cy="5.711" rx="5.711" ry="5.711" transform="translate(0.644 0.644)" fill="#ffb5bd"/>
                    <path id="パス_1167092" data-name="パス 1167092" d="M6.341,12.709a6.354,6.354,0,0,1-5.2-9.986A6.353,6.353,0,0,1,12.608,5.237h0a6.36,6.36,0,0,1-5.136,7.371A6.429,6.429,0,0,1,6.341,12.709ZM6.365,1.284a5.134,5.134,0,0,0-.9.08,5.069,5.069,0,0,0-2.006,9.148,5.069,5.069,0,0,0,7.887-5.05h0A5.072,5.072,0,0,0,6.365,1.284Z" transform="translate(0 0)" fill="#231815"/>
                  </g>
                  <g id="グループ_1125290" data-name="グループ 1125290" transform="translate(0 0)">
                    <path id="パス_1167093" data-name="パス 1167093" d="M0,0A15.12,15.12,0,0,1,4.951,6.064" transform="translate(0.642 0.642)" fill="#fff"/>
                    <path id="パス_1167094" data-name="パス 1167094" d="M5.594,7.348a.642.642,0,0,1-.586-.378A14.534,14.534,0,0,0,.294,1.182.642.642,0,0,1,.99.1,15.659,15.659,0,0,1,6.179,6.442a.642.642,0,0,1-.585.906Z" fill="#231815"/>
                  </g>
                  <path id="パス_1167095" data-name="パス 1167095" d="M1.837,2.712A4.151,4.151,0,0,1,.223,2.387a.385.385,0,0,1,.324-.7,3.309,3.309,0,0,0,2.293.079A2.2,2.2,0,0,0,4.2.3.385.385,0,0,1,4.95.466,2.974,2.974,0,0,1,3.109,2.488,3.625,3.625,0,0,1,1.837,2.712Z" transform="translate(2.968 5.171)"/>
                </g>
                <g id="グループ_1125293" data-name="グループ 1125293">
                  <g id="グループ_1125291" data-name="グループ 1125291">
                    <path id="パス_1167096" data-name="パス 1167096" d="M27.847,9.383c1.108,4.865-.353,8.114-5.225,11.545-2.815,2.01-3.47,3.052-3.344,4.392a3.422,3.422,0,0,1-2.92,3.641c-2.263.516-4.025-.69-4.58-3.122-.8-3.508.308-5.962,4.553-9.012,3.173-2.27,3.889-3.564,3.477-5.375-.567-2.489-2.852-3.635-5.963-2.926a10.159,10.159,0,0,0-6.293,4.766A4.153,4.153,0,0,1,4.837,15.22,3.8,3.8,0,0,1,.126,12.306a4.48,4.48,0,0,1,.4-3.187C2.581,5.32,5.808,1.67,10.957.5,19.5-1.449,26.275,2.481,27.847,9.383ZM21.439,33.706A3.511,3.511,0,0,1,18.6,38.162a3.5,3.5,0,0,1-4.445-2.8,3.511,3.511,0,0,1,2.785-4.492A3.524,3.524,0,0,1,21.439,33.706Z" fill="none" stroke="#251e1c" stroke-linecap="round" stroke-linejoin="round" stroke-width="2.445"/>
                  </g>
                  <g id="グループ_1125292" data-name="グループ 1125292">
                    <path id="パス_1167097" data-name="パス 1167097" d="M27.847,9.383c1.108,4.865-.353,8.114-5.225,11.545-2.815,2.01-3.47,3.052-3.344,4.392a3.422,3.422,0,0,1-2.92,3.641c-2.263.516-4.025-.69-4.58-3.122-.8-3.508.308-5.962,4.553-9.012,3.173-2.27,3.889-3.564,3.477-5.375-.567-2.489-2.852-3.635-5.963-2.926a10.159,10.159,0,0,0-6.293,4.766A4.153,4.153,0,0,1,4.837,15.22,3.8,3.8,0,0,1,.126,12.306a4.48,4.48,0,0,1,.4-3.187C2.581,5.32,5.808,1.67,10.957.5,19.5-1.449,26.275,2.481,27.847,9.383ZM21.439,33.706A3.511,3.511,0,0,1,18.6,38.162a3.5,3.5,0,0,1-4.445-2.8,3.511,3.511,0,0,1,2.785-4.492A3.524,3.524,0,0,1,21.439,33.706Z" fill="#8cddcf"/>
                  </g>
                </g>
                <g id="グループ_1125294" data-name="グループ 1125294" transform="translate(13.168 35.133)">
                  <path id="手-2" data-name="手" d="M3.769,10.75a5.517,5.517,0,1,1,6.655-2.714" transform="translate(0.643 0.641)" fill="#ca9181"/>
                  <path id="パス_1167098" data-name="パス 1167098" d="M4.413,12.034a.643.643,0,0,1-.2-.033,6.159,6.159,0,1,1,7.43-3.029A.642.642,0,1,1,10.5,8.385a4.874,4.874,0,1,0-5.88,2.4.642.642,0,0,1-.2,1.251Z" transform="translate(0 0)" fill="#231815"/>
                </g>
                <g id="表情_ω_通常" data-name="表情　●ω●通常" transform="translate(28.149 36.128)">
                  <ellipse id="楕円形_249780" data-name="楕円形 249780" cx="1.836" cy="1.836" rx="1.836" ry="1.836" transform="translate(2.572 0.181)" fill="#231815"/>
                  <ellipse id="楕円形_249781" data-name="楕円形 249781" cx="1.836" cy="1.836" rx="1.836" ry="1.836" transform="translate(11.357 0)" fill="#231815"/>
                  <path id="パス_1167099" data-name="パス 1167099" d="M4.646,2.036a1.629,1.629,0,0,1-1.408-.948,3.016,3.016,0,0,1-1.895.931h0a1.3,1.3,0,0,1-1.1-.461A1.413,1.413,0,0,1,.047.41a.385.385,0,0,1,.745.2.659.659,0,0,0,.06.484.642.642,0,0,0,.49.157h0c.685,0,1.481-.8,1.73-1.106A.385.385,0,0,1,3.747.3c.011.043.276,1.091,1.048.956A.638.638,0,0,0,5.285.54.385.385,0,0,1,6.053.48,1.392,1.392,0,0,1,4.926,2.011,1.642,1.642,0,0,1,4.646,2.036Z" transform="translate(5.934 3.82)" fill="#231815"/>
                  <g id="グループ_1125295" data-name="グループ 1125295" transform="translate(0 3.671)">
                    <path id="パス_1167100" data-name="パス 1167100" d="M.324.954A.325.325,0,0,1,.268.31L2.006,0a.325.325,0,1,1,.112.639L.381.95A.331.331,0,0,1,.324.954Z" transform="translate(0 1.303)" fill="#231815"/>
                    <path id="パス_1167101" data-name="パス 1167101" d="M2.062.954a.337.337,0,0,1-.057,0L.268.644A.325.325,0,0,1,.381,0L2.118.31a.325.325,0,0,1-.056.644Z" transform="translate(0 0)" fill="#231815"/>
                  </g>
                  <g id="グループ_1125296" data-name="グループ 1125296" transform="translate(14.624 3.671)">
                    <path id="パス_1167102" data-name="パス 1167102" d="M2.062.955a.335.335,0,0,1-.057,0L.268.644A.325.325,0,1,1,.381,0L2.118.31a.325.325,0,0,1-.056.644Z" transform="translate(0 1.303)" fill="#231815"/>
                    <path id="パス_1167103" data-name="パス 1167103" d="M.324.955A.325.325,0,0,1,.268.31L2.006,0a.325.325,0,1,1,.112.639L.381.95A.335.335,0,0,1,.324.955Z" transform="translate(0 0)" fill="#231815"/>
                  </g>
                </g>
              </g>
              <path id="パス_1167104" data-name="パス 1167104" d="M10.617,6.475a1.023,1.023,0,0,1-.837-.432A9.775,9.775,0,0,0,1.2,2.121,1.024,1.024,0,1,1,.845.1a10.326,10.326,0,0,1,5.4.753,11.669,11.669,0,0,1,5.206,4,1.024,1.024,0,0,1-.835,1.616Z" transform="translate(13.445 1.102)" fill="#fff"/>
              <ellipse id="楕円形_249782" data-name="楕円形 249782" cx="1.193" cy="1.193" rx="1.193" ry="1.193" transform="translate(24.471 8.511)" fill="#fff"/>
            </g>
          </g>
        </g>
      </g>
      <path id="パス_1167105" data-name="パス 1167105" d="M-88.78-15.548a1.581,1.581,0,0,0-1.541,1.173l-3.036,9.039H-93.4l-3.151-8.993a1.637,1.637,0,0,0-1.633-1.219,1.63,1.63,0,0,0-1.61,1.219l-3.128,8.9h-.046l-2.921-8.832a1.633,1.633,0,0,0-1.633-1.288,1.654,1.654,0,0,0-1.771,1.725,2.832,2.832,0,0,0,.184.9l4.14,11.592A2.008,2.008,0,0,0-102.994.138a1.975,1.975,0,0,0,1.932-1.472l2.852-7.958h.046l2.829,7.958A2,2,0,0,0-93.38.138a2,2,0,0,0,1.955-1.472l4.209-11.638a2.647,2.647,0,0,0,.161-.9A1.606,1.606,0,0,0-88.78-15.548Zm10.58,4.232a4.154,4.154,0,0,0-3.289,1.334h-.046v-4.577a1.512,1.512,0,0,0-1.587-1.679,1.507,1.507,0,0,0-1.564,1.679V-1.541A1.507,1.507,0,0,0-83.122.138a1.512,1.512,0,0,0,1.587-1.679v-4c0-1.817.92-2.9,2.507-2.9,1.518,0,2.3.9,2.3,2.6v4.3A1.507,1.507,0,0,0-75.164.138a1.512,1.512,0,0,0,1.587-1.679V-6.21C-73.577-9.522-75.187-11.316-78.2-11.316Zm17.641.138A1.45,1.45,0,0,0-62.1-9.89h-.046a4.318,4.318,0,0,0-3.427-1.426c-3.2,0-5.313,2.277-5.313,5.8s2.116,5.8,5.313,5.8A4.318,4.318,0,0,0-62.146-1.15h.046A1.467,1.467,0,0,0-60.559.138a1.512,1.512,0,0,0,1.587-1.679V-9.522A1.494,1.494,0,0,0-60.559-11.178ZM-64.929-2.6A2.709,2.709,0,0,1-67.666-5.52a2.7,2.7,0,0,1,2.737-2.921A2.762,2.762,0,0,1-62.123-5.52,2.762,2.762,0,0,1-64.929-2.6Zm17.434.184a1.389,1.389,0,0,0-1.426-1.472,1.427,1.427,0,0,0-1.173.575,1.526,1.526,0,0,1-1.265.713c-.851,0-1.357-.575-1.357-1.564v-4h3.22a1.38,1.38,0,0,0,1.541-1.449A1.374,1.374,0,0,0-49.5-11.04h-3.22v-2.185A1.512,1.512,0,0,0-54.3-14.9a1.507,1.507,0,0,0-1.564,1.679v8.947c0,2.875,1.61,4.554,4.347,4.554a4.012,4.012,0,0,0,3.841-1.932A1.681,1.681,0,0,0-47.495-2.415Zm5.267-11.339v-.207a1.527,1.527,0,0,0-1.61-1.587,1.515,1.515,0,0,0-1.61,1.587v.207l.3,4.922c.046.9.529,1.449,1.311,1.449a1.355,1.355,0,0,0,1.357-1.449Zm5.7,6.141c0-.621.759-1.012,2-1.012a4.035,4.035,0,0,1,2.162.575,1.841,1.841,0,0,0,1.012.345,1.346,1.346,0,0,0,1.4-1.426A1.409,1.409,0,0,0-30.59-10.3a6.6,6.6,0,0,0-4.163-1.012c-3.013,0-4.876,1.4-4.876,3.68s1.357,3.358,4.761,3.358c1.794,0,2.3.276,2.3.851,0,.644-.713,1.012-2,1.012a5.213,5.213,0,0,1-2.76-.69,1.722,1.722,0,0,0-1.035-.368,1.341,1.341,0,0,0-1.38,1.426,1.34,1.34,0,0,0,.529,1.081c1.2.92,2.461,1.242,4.9,1.242,3.013,0,4.853-1.38,4.853-3.634,0-2.346-1.357-3.473-4.853-3.473C-36.018-6.831-36.524-7.084-36.524-7.613Zm19.642,4.485V-6.233h6.463a1.43,1.43,0,0,0,1.61-1.518,1.43,1.43,0,0,0-1.61-1.518h-6.463v-3.013h8.119a1.488,1.488,0,0,0,1.656-1.564A1.488,1.488,0,0,0-8.763-15.41h-9.706a1.693,1.693,0,0,0-1.84,1.84V-1.84A1.693,1.693,0,0,0-18.469,0h9.706A1.488,1.488,0,0,0-7.107-1.564,1.488,1.488,0,0,0-8.763-3.128ZM-1.61-7.613c0-.621.759-1.012,2-1.012a4.035,4.035,0,0,1,2.162.575,1.841,1.841,0,0,0,1.012.345,1.346,1.346,0,0,0,1.4-1.426A1.409,1.409,0,0,0,4.324-10.3,6.6,6.6,0,0,0,.161-11.316c-3.013,0-4.876,1.4-4.876,3.68S-3.358-4.278.046-4.278c1.794,0,2.3.276,2.3.851,0,.644-.713,1.012-2,1.012a5.213,5.213,0,0,1-2.76-.69A1.722,1.722,0,0,0-3.45-3.473,1.341,1.341,0,0,0-4.83-2.047,1.34,1.34,0,0,0-4.3-.966C-3.1-.046-1.84.276.6.276c3.013,0,4.853-1.38,4.853-3.634C5.451-5.7,4.094-6.831.6-6.831-1.1-6.831-1.61-7.084-1.61-7.613Zm17.94,5.2A1.389,1.389,0,0,0,14.9-3.887a1.427,1.427,0,0,0-1.173.575,1.526,1.526,0,0,1-1.265.713c-.851,0-1.357-.575-1.357-1.564v-4h3.22A1.38,1.38,0,0,0,15.87-9.614a1.374,1.374,0,0,0-1.541-1.426h-3.22v-2.185A1.512,1.512,0,0,0,9.522-14.9a1.507,1.507,0,0,0-1.564,1.679v8.947C7.958-1.4,9.568.276,12.305.276a4.012,4.012,0,0,0,3.841-1.932A1.681,1.681,0,0,0,16.33-2.415Zm8.855-8.9A4.154,4.154,0,0,0,21.9-9.982H21.85v-4.577a1.512,1.512,0,0,0-1.587-1.679A1.507,1.507,0,0,0,18.7-14.559V-1.541A1.507,1.507,0,0,0,20.263.138,1.512,1.512,0,0,0,21.85-1.541v-4c0-1.817.92-2.9,2.507-2.9,1.518,0,2.3.9,2.3,2.6v4.3A1.507,1.507,0,0,0,28.221.138a1.512,1.512,0,0,0,1.587-1.679V-6.21C29.808-9.522,28.2-11.316,25.185-11.316ZM38.479-8.6a2.556,2.556,0,0,1,2.645,1.886H35.719A2.657,2.657,0,0,1,38.479-8.6Zm4.6,7.061a1.492,1.492,0,0,0,.322-.92,1.286,1.286,0,0,0-1.38-1.357,1.463,1.463,0,0,0-1.035.437,3.242,3.242,0,0,1-2.392.943,2.769,2.769,0,0,1-2.875-2.116H42.5a1.527,1.527,0,0,0,1.61-1.633v-.184c0-2.645-2.461-4.945-5.635-4.945a5.6,5.6,0,0,0-5.98,5.8c0,3.45,2.438,5.8,6.095,5.8A5.7,5.7,0,0,0,43.079-1.541Zm9.683-6.164c0,4.738,3.289,7.981,8.073,7.981,4.807,0,8.073-3.243,8.073-7.981s-3.266-7.981-8.073-7.981C56.051-15.686,52.762-12.443,52.762-7.705Zm3.5,0c0-2.875,1.863-4.853,4.577-4.853s4.577,1.978,4.577,4.853-1.863,4.853-4.577,4.853S56.258-4.83,56.258-7.705Zm22.057-3.611A4.117,4.117,0,0,0,75-9.936h-.046a1.487,1.487,0,0,0-1.564-1.242A1.507,1.507,0,0,0,71.829-9.5v7.958A1.507,1.507,0,0,0,73.393.138,1.512,1.512,0,0,0,74.98-1.541v-4c0-1.817.92-2.9,2.507-2.9,1.518,0,2.3.9,2.3,2.6v4.3A1.507,1.507,0,0,0,81.351.138a1.512,1.512,0,0,0,1.587-1.679V-6.21C82.938-9.522,81.328-11.316,78.315-11.316ZM91.609-8.6a2.556,2.556,0,0,1,2.645,1.886h-5.4A2.657,2.657,0,0,1,91.609-8.6Zm4.6,7.061a1.492,1.492,0,0,0,.322-.92,1.286,1.286,0,0,0-1.38-1.357,1.463,1.463,0,0,0-1.035.437,3.241,3.241,0,0,1-2.392.943,2.769,2.769,0,0,1-2.875-2.116h6.785a1.527,1.527,0,0,0,1.61-1.633v-.184c0-2.645-2.461-4.945-5.635-4.945a5.6,5.6,0,0,0-5.98,5.8c0,3.45,2.438,5.8,6.1,5.8A5.7,5.7,0,0,0,96.209-1.541Zm7.383-14.145a6.471,6.471,0,0,0-4.991,2,1.776,1.776,0,0,0-.437,1.2,1.5,1.5,0,0,0,1.564,1.541,1.646,1.646,0,0,0,1.219-.506,4.027,4.027,0,0,1,2.852-1.288c1.265,0,2.047.644,2.047,1.656,0,.736-.391,1.173-1.817,1.771-1.909.805-2.553,1.656-2.553,3.082a1.446,1.446,0,0,0,1.495,1.61,1.357,1.357,0,0,0,1.449-1.15c.069-.529.414-.874,1.679-1.4,2.185-.9,3.036-2.024,3.036-4C109.135-13.984,107.065-15.686,103.592-15.686Zm-.621,12.213a1.7,1.7,0,0,0-1.794,1.817A1.69,1.69,0,0,0,102.971.138a1.7,1.7,0,0,0,1.817-1.794A1.7,1.7,0,0,0,102.971-3.473Z" transform="translate(-18891 -11129.867)" fill="#fcd1e1"/>
    </g>
  </g>
</svg>
