<svg xmlns="http://www.w3.org/2000/svg" xmlns:xlink="http://www.w3.org/1999/xlink" width="134" height="80" viewBox="0 0 134 80">
  <defs>
    <clipPath id="clip-path">
      <rect id="長方形_431394" data-name="長方形 431394" width="134" height="80" transform="translate(-18180 -18310)" fill="#fff" stroke="#707070" stroke-width="1"/>
    </clipPath>
    <clipPath id="clip-path-2">
      <rect id="長方形_431393" data-name="長方形 431393" width="58" height="61" transform="translate(-377 1413)" fill="#fff" stroke="#707070" stroke-width="1"/>
    </clipPath>
  </defs>
  <g id="マスクグループ_1110991" data-name="マスクグループ 1110991" transform="translate(18180 18310)" clip-path="url(#clip-path)">
    <path id="パス_1162856" data-name="パス 1162856" d="M-54.04-9.464a.962.962,0,0,0-.938.714l-1.848,5.5h-.028l-1.918-5.474a1,1,0,0,0-.994-.742.992.992,0,0,0-.98.742L-62.65-3.3h-.028L-64.456-8.68a.994.994,0,0,0-.994-.784,1.007,1.007,0,0,0-1.078,1.05,1.724,1.724,0,0,0,.112.546L-63.9-.812a1.223,1.223,0,0,0,1.2.9,1.2,1.2,0,0,0,1.176-.9l1.736-4.844h.028L-58.03-.812a1.218,1.218,0,0,0,1.19.9,1.218,1.218,0,0,0,1.19-.9L-53.088-7.9a1.611,1.611,0,0,0,.1-.546A.977.977,0,0,0-54.04-9.464Zm6.44,2.576a2.528,2.528,0,0,0-2,.812h-.028V-8.862A.92.92,0,0,0-50.6-9.884a.917.917,0,0,0-.952,1.022V-.938A.917.917,0,0,0-50.6.084.92.92,0,0,0-49.63-.938V-3.374c0-1.106.56-1.764,1.526-1.764.924,0,1.4.546,1.4,1.582V-.938A.917.917,0,0,0-45.752.084a.92.92,0,0,0,.966-1.022V-3.78C-44.786-5.8-45.766-6.888-47.6-6.888Zm10.738.084a.882.882,0,0,0-.938.784h-.028a2.628,2.628,0,0,0-2.086-.868c-1.946,0-3.234,1.386-3.234,3.528S-41.86.168-39.914.168A2.628,2.628,0,0,0-37.828-.7h.028a.893.893,0,0,0,.938.784A.92.92,0,0,0-35.9-.938V-5.8A.909.909,0,0,0-36.862-6.8Zm-2.66,5.222A1.649,1.649,0,0,1-41.188-3.36a1.641,1.641,0,0,1,1.666-1.778A1.681,1.681,0,0,1-37.814-3.36,1.681,1.681,0,0,1-39.522-1.582Zm10.612.112a.846.846,0,0,0-.868-.9.869.869,0,0,0-.714.35.929.929,0,0,1-.77.434c-.518,0-.826-.35-.826-.952V-4.97h1.96a.84.84,0,0,0,.938-.882.836.836,0,0,0-.938-.868h-1.96V-8.05a.92.92,0,0,0-.966-1.022.917.917,0,0,0-.952,1.022V-2.6A2.48,2.48,0,0,0-31.36.168a2.442,2.442,0,0,0,2.338-1.176A1.023,1.023,0,0,0-28.91-1.47Zm3.206-6.9V-8.5a.93.93,0,0,0-.98-.966.922.922,0,0,0-.98.966v.126l.182,3c.028.546.322.882.8.882a.825.825,0,0,0,.826-.882Zm3.472,3.738c0-.378.462-.616,1.218-.616A2.456,2.456,0,0,1-19.7-4.9a1.121,1.121,0,0,0,.616.21.819.819,0,0,0,.854-.868.858.858,0,0,0-.392-.714,4.014,4.014,0,0,0-2.534-.616c-1.834,0-2.968.854-2.968,2.24S-23.3-2.6-21.224-2.6c1.092,0,1.4.168,1.4.518,0,.392-.434.616-1.218.616a3.173,3.173,0,0,1-1.68-.42,1.048,1.048,0,0,0-.63-.224.816.816,0,0,0-.84.868.816.816,0,0,0,.322.658,4.381,4.381,0,0,0,2.982.756c1.834,0,2.954-.84,2.954-2.212,0-1.428-.826-2.114-2.954-2.114C-21.924-4.158-22.232-4.312-22.232-4.634ZM-10.276-1.9v-1.89h3.934a.87.87,0,0,0,.98-.924.87.87,0,0,0-.98-.924h-3.934V-7.476h4.942a.906.906,0,0,0,1.008-.952A.906.906,0,0,0-5.334-9.38h-5.908a1.03,1.03,0,0,0-1.12,1.12v7.14A1.03,1.03,0,0,0-11.242,0h5.908A.906.906,0,0,0-4.326-.952.906.906,0,0,0-5.334-1.9Zm9.3-2.73c0-.378.462-.616,1.218-.616a2.456,2.456,0,0,1,1.316.35,1.121,1.121,0,0,0,.616.21.819.819,0,0,0,.854-.868.858.858,0,0,0-.392-.714A4.014,4.014,0,0,0,.1-6.888c-1.834,0-2.968.854-2.968,2.24S-2.044-2.6.028-2.6c1.092,0,1.4.168,1.4.518,0,.392-.434.616-1.218.616a3.173,3.173,0,0,1-1.68-.42,1.048,1.048,0,0,0-.63-.224.816.816,0,0,0-.84.868.816.816,0,0,0,.322.658A4.381,4.381,0,0,0,.364.168c1.834,0,2.954-.84,2.954-2.212,0-1.428-.826-2.114-2.954-2.114C-.672-4.158-.98-4.312-.98-4.634ZM9.94-1.47a.846.846,0,0,0-.868-.9.869.869,0,0,0-.714.35.929.929,0,0,1-.77.434c-.518,0-.826-.35-.826-.952V-4.97h1.96a.84.84,0,0,0,.938-.882.836.836,0,0,0-.938-.868H6.762V-8.05A.92.92,0,0,0,5.8-9.072.917.917,0,0,0,4.844-8.05V-2.6A2.48,2.48,0,0,0,7.49.168,2.442,2.442,0,0,0,9.828-1.008,1.023,1.023,0,0,0,9.94-1.47Zm5.39-5.418a2.528,2.528,0,0,0-2,.812H13.3V-8.862a.92.92,0,0,0-.966-1.022.917.917,0,0,0-.952,1.022V-.938A.917.917,0,0,0,12.334.084.92.92,0,0,0,13.3-.938V-3.374c0-1.106.56-1.764,1.526-1.764.924,0,1.4.546,1.4,1.582V-.938A.917.917,0,0,0,17.178.084a.92.92,0,0,0,.966-1.022V-3.78C18.144-5.8,17.164-6.888,15.33-6.888Zm8.092,1.652a1.556,1.556,0,0,1,1.61,1.148h-3.29A1.618,1.618,0,0,1,23.422-5.236Zm2.8,4.3a.908.908,0,0,0,.2-.56.783.783,0,0,0-.84-.826.891.891,0,0,0-.63.266,1.973,1.973,0,0,1-1.456.574,1.685,1.685,0,0,1-1.75-1.288h4.13a.93.93,0,0,0,.98-.994v-.112a3.252,3.252,0,0,0-3.43-3.01,3.411,3.411,0,0,0-3.64,3.528A3.431,3.431,0,0,0,23.492.168,3.468,3.468,0,0,0,26.222-.938ZM32.116-4.69A4.652,4.652,0,0,0,37.03.168,4.644,4.644,0,0,0,41.944-4.69,4.644,4.644,0,0,0,37.03-9.548,4.652,4.652,0,0,0,32.116-4.69Zm2.128,0A2.737,2.737,0,0,1,37.03-7.644,2.737,2.737,0,0,1,39.816-4.69,2.737,2.737,0,0,1,37.03-1.736,2.737,2.737,0,0,1,34.244-4.69Zm13.426-2.2a2.506,2.506,0,0,0-2.016.84h-.028a.905.905,0,0,0-.952-.756.917.917,0,0,0-.952,1.022V-.938A.917.917,0,0,0,44.674.084.92.92,0,0,0,45.64-.938V-3.374c0-1.106.56-1.764,1.526-1.764.924,0,1.4.546,1.4,1.582V-.938A.917.917,0,0,0,49.518.084a.92.92,0,0,0,.966-1.022V-3.78C50.484-5.8,49.5-6.888,47.67-6.888Zm8.092,1.652a1.556,1.556,0,0,1,1.61,1.148h-3.29A1.618,1.618,0,0,1,55.762-5.236Zm2.8,4.3a.908.908,0,0,0,.2-.56.783.783,0,0,0-.84-.826.891.891,0,0,0-.63.266,1.973,1.973,0,0,1-1.456.574,1.685,1.685,0,0,1-1.75-1.288h4.13a.93.93,0,0,0,.98-.994v-.112a3.252,3.252,0,0,0-3.43-3.01,3.411,3.411,0,0,0-3.64,3.528A3.431,3.431,0,0,0,55.832.168,3.468,3.468,0,0,0,58.562-.938Zm4.494-8.61A3.939,3.939,0,0,0,60.018-8.33a1.081,1.081,0,0,0-.266.728.916.916,0,0,0,.952.938,1,1,0,0,0,.742-.308,2.451,2.451,0,0,1,1.736-.784c.77,0,1.246.392,1.246,1.008,0,.448-.238.714-1.106,1.078-1.162.49-1.554,1.008-1.554,1.876a.88.88,0,0,0,.91.98.826.826,0,0,0,.882-.7c.042-.322.252-.532,1.022-.854A2.4,2.4,0,0,0,66.43-6.8C66.43-8.512,65.17-9.548,63.056-9.548Zm-.378,7.434a1.033,1.033,0,0,0-1.092,1.106A1.029,1.029,0,0,0,62.678.084a1.033,1.033,0,0,0,1.106-1.092A1.036,1.036,0,0,0,62.678-2.114Z" transform="translate(-18113 -18232.08)" fill="#fcd1e1"/>
    <g id="マスクグループ_1110990" data-name="マスクグループ 1110990" transform="translate(-17763 -19723.582)" clip-path="url(#clip-path-2)">
      <g id="グループ_1123149" data-name="グループ 1123149" transform="translate(-450.002 612.845)">
        <ellipse id="楕円形_249526" data-name="楕円形 249526" cx="16.46" cy="2.31" rx="16.46" ry="2.31" transform="translate(83.433 856.125)" fill="#5b2e02" opacity="0.05"/>
        <g id="アートワーク_81" data-name="アートワーク 81" transform="matrix(0.899, 0.438, -0.438, 0.899, 103.496, 825.757)">
          <g id="グループ_1123148" data-name="グループ 1123148" transform="translate(-18.491 -21.399)">
            <g id="グループ_1123147" data-name="グループ 1123147" transform="translate(0 0)">
              <g id="グループ_1123136" data-name="グループ 1123136" transform="translate(29.32 27.685)">
                <path id="手" d="M.92.779A3.642,3.642,0,1,1,0,5.435" transform="translate(0.424 0.426)" fill="#c79280"/>
                <path id="パス_1162857" data-name="パス 1162857" d="M3.6,8.137A4.078,4.078,0,0,1,.055,6.069a.424.424,0,0,1,.738-.417,3.218,3.218,0,1,0,.813-4.113A.424.424,0,1,1,1.083.871,4.066,4.066,0,0,1,7.418,5.455,4.074,4.074,0,0,1,3.6,8.137Z" transform="translate(0 0)" fill="#231815"/>
              </g>
              <g id="グループ_1123137" data-name="グループ 1123137" transform="translate(6.306 17.747)">
                <path id="肉体" d="M25.659,10.267Q25.478,8.076,25.2,5.4A27.181,27.181,0,0,0,24.055,0H4.653A2.825,2.825,0,0,0,1.792,2.489L.109,19.739A3.453,3.453,0,0,0,0,20.6q0,.1.006.2L0,20.859H.01A3.284,3.284,0,0,0,3.3,24.2,3.82,3.82,0,0,0,6.4,22.663,4.79,4.79,0,0,0,9.953,24.2a3.82,3.82,0,0,0,3.091-1.539A3.82,3.82,0,0,0,16.136,24.2a4.7,4.7,0,0,0,3.515-1.539A3.82,3.82,0,0,0,22.743,24.2a3.319,3.319,0,0,0,3.337-3.343h.01s.024-1.749-.092-5.508C25.935,13.324,25.659,10.267,25.659,10.267Z" transform="translate(0.424 0.424)" fill="#c79280"/>
                <path id="パス_1162858" data-name="パス 1162858" d="M23.167,25.05a4.284,4.284,0,0,1-3.1-1.314A5.42,5.42,0,0,1,16.56,25.05a4.285,4.285,0,0,1-3.091-1.3,4.285,4.285,0,0,1-3.091,1.3A5.6,5.6,0,0,1,6.83,23.734a4.284,4.284,0,0,1-3.1,1.316,3.51,3.51,0,0,1-2.654-1.107A4.24,4.24,0,0,1,.018,21.406.423.423,0,0,1,0,21.242l0-.027c0-.063,0-.127,0-.189a3.886,3.886,0,0,1,.114-.936L1.794,2.872A3.235,3.235,0,0,1,5.077,0h19.4a.424.424,0,0,1,.4.285A27.353,27.353,0,0,1,26.043,5.78c.179,1.679.334,3.319.463,4.875.008.089.278,3.111.34,5.108.115,3.725.093,5.509.092,5.526a.422.422,0,0,1-.019.119A3.723,3.723,0,0,1,23.167,25.05Zm-3.091-2.387a.424.424,0,0,1,.342.173A3.407,3.407,0,0,0,23.167,24.2a2.894,2.894,0,0,0,2.914-2.95.438.438,0,0,1,.009-.063c0-.4.007-2.159-.093-5.4-.061-1.992-.334-5.029-.337-5.059v0c-.128-1.55-.283-3.184-.461-4.857A27.689,27.689,0,0,0,24.17.848H5.077A2.391,2.391,0,0,0,2.638,2.954L.955,20.2a.418.418,0,0,1-.011.065,3.042,3.042,0,0,0-.1.757c0,.057,0,.115.005.174,0,.009,0,.017,0,.026s0,.017,0,.026A2.865,2.865,0,0,0,3.728,24.2a3.407,3.407,0,0,0,2.749-1.365.424.424,0,0,1,.684,0A4.353,4.353,0,0,0,10.377,24.2a3.407,3.407,0,0,0,2.75-1.365.424.424,0,0,1,.684,0A3.407,3.407,0,0,0,16.56,24.2a4.3,4.3,0,0,0,3.173-1.365A.424.424,0,0,1,20.076,22.663Z" transform="translate(0 0)" fill="#231815"/>
              </g>
              <g id="耳" transform="translate(1.89 2.966)">
                <g id="グループ_1123138" data-name="グループ 1123138" transform="translate(0 0)">
                  <path id="パス_1162859" data-name="パス 1162859" d="M11.659,9.36a19.438,19.438,0,0,0-5.985-.778A26.96,26.96,0,0,0,0,9.182a23.735,23.735,0,0,0,4.99,6.586,8.677,8.677,0,0,0-.274,4.185c.28,1.177,1.588,1.282,2.2,2.239C7.3,22.8,6.5,25.44,8.292,25.444c1.456,0,.6-2.56,1.975-3.172,1.561-.694,2.21.375,3.467-.762s-.18-3.112,2.035-3.89,10.159.6,12.529,0c2.159-.549,3.385-3.711,2.231-5.865a6.609,6.609,0,0,0-2.77-2.873,19.686,19.686,0,0,0-2.334-4.309C23.868,2.417,21.115-.276,20.1.023s-1.736,8.2-1.736,8.2A13.853,13.853,0,0,0,11.659,9.36Z" transform="translate(0.424 0.429)" fill="#fff"/>
                  <path id="パス_1162860" data-name="パス 1162860" d="M8.718,26.3h0a1.464,1.464,0,0,1-1.477-1.02,4.949,4.949,0,0,1-.192-1.613,3.134,3.134,0,0,0-.065-.816,2.846,2.846,0,0,0-.906-.783,2.613,2.613,0,0,1-1.347-1.584,8.818,8.818,0,0,1,.2-4.149A24.041,24.041,0,0,1,.042,9.8a.424.424,0,0,1,.281-.6A27.145,27.145,0,0,1,6.1,8.587a20.5,20.5,0,0,1,5.967.75A14.612,14.612,0,0,1,18.4,8.193c.07-.692.227-2.14.448-3.593C19.457.64,19.969.173,20.4.046c.233-.069.942-.277,2.864,1.445a21.726,21.726,0,0,1,2.926,3.262,20.262,20.262,0,0,1,2.329,4.254,7.274,7.274,0,0,1,2.805,2.976,4.75,4.75,0,0,1,.052,4.122,3.966,3.966,0,0,1-2.553,2.355,25.74,25.74,0,0,1-6.081-.028c-2.5-.17-5.332-.362-6.411.017-1.014.356-1.06.953-1.123,1.778a2.739,2.739,0,0,1-.768,2.026,2.384,2.384,0,0,1-2.1.643,2.65,2.65,0,0,0-1.481.193c-.429.191-.555.69-.7,1.431S9.821,26.3,8.718,26.3ZM1.059,9.911A23.316,23.316,0,0,0,5.7,15.88a.424.424,0,0,1,.12.454,8.3,8.3,0,0,0-.263,3.95c.121.508.5.756.985,1.07A3.586,3.586,0,0,1,7.7,22.393a2.487,2.487,0,0,1,.2,1.264c.011,1.263.128,1.791.823,1.793h0c.331,0,.441-.195.614-1.091a2.47,2.47,0,0,1,1.186-2.045,3.483,3.483,0,0,1,1.9-.263,1.559,1.559,0,0,0,1.458-.426,1.993,1.993,0,0,0,.492-1.462,2.4,2.4,0,0,1,1.687-2.514c1.243-.437,3.918-.256,6.75-.063a26.376,26.376,0,0,0,5.815.052A3.131,3.131,0,0,0,30.6,15.762a3.953,3.953,0,0,0-.024-3.379A6.287,6.287,0,0,0,28.009,9.7a.428.428,0,0,1-.225-.243A19.443,19.443,0,0,0,25.5,5.249a20.824,20.824,0,0,0-2.8-3.127C21.518,1.063,20.873.83,20.669.854c-.093.1-.508.709-1.007,4.072-.283,1.906-.452,3.746-.453,3.764a.424.424,0,0,1-.479.382,13.575,13.575,0,0,0-6.478,1.106.425.425,0,0,1-.309.011h0A19.37,19.37,0,0,0,6.1,9.435,28.354,28.354,0,0,0,1.059,9.911Z" fill="#231815"/>
                </g>
                <path id="パス_1162861" data-name="パス 1162861" d="M0,.071a16.1,16.1,0,0,1,6.1.6,10.916,10.916,0,0,1,2.232.984s-1.53.789-2.953,1.676c-.94.586-1.7,1.18-1.7,1.18S2.095,2.884,1.317,1.927A17.973,17.973,0,0,1,0,.071Z" transform="translate(2.806 10.974)" fill="#ffb5bd"/>
                <path id="パス_1162862" data-name="パス 1162862" d="M0,0S1.766,5.436,1.963,5.626c.352.063,1.164.254,2.391.523C4.219,5.551,1.557.958,0,0Z" transform="translate(22.746 3.108)" fill="#ffb5bd"/>
              </g>
              <g id="さくらんぼ" transform="translate(12.913 5.94)">
                <g id="グループ_1123139" data-name="グループ 1123139" transform="translate(0.107 1.885)">
                  <ellipse id="楕円形_249527" data-name="楕円形 249527" cx="3.771" cy="3.771" rx="3.771" ry="3.771" transform="translate(0.425 0.425)" fill="#ffb5bd"/>
                  <path id="パス_1162863" data-name="パス 1162863" d="M4.187,8.391A4.2,4.2,0,0,1,.754,1.8a4.195,4.195,0,0,1,7.571,1.66h0A4.2,4.2,0,0,1,4.934,8.325,4.245,4.245,0,0,1,4.187,8.391ZM4.2.848a3.39,3.39,0,0,0-.6.053,3.347,3.347,0,0,0-1.324,6.04A3.347,3.347,0,0,0,7.49,3.607h0A3.349,3.349,0,0,0,4.2.848Z" transform="translate(0 0)" fill="#231815"/>
                </g>
                <g id="グループ_1123140" data-name="グループ 1123140" transform="translate(0 0)">
                  <path id="パス_1162864" data-name="パス 1162864" d="M0,0A9.983,9.983,0,0,1,3.269,4" transform="translate(0.424 0.424)" fill="#fff"/>
                  <path id="パス_1162865" data-name="パス 1162865" d="M3.693,4.852a.424.424,0,0,1-.387-.25A9.6,9.6,0,0,0,.194.78.424.424,0,0,1,.654.068,10.339,10.339,0,0,1,4.079,4.253a.424.424,0,0,1-.386.6Z" fill="#231815"/>
                </g>
                <path id="パス_1162866" data-name="パス 1162866" d="M1.213,1.791A2.741,2.741,0,0,1,.147,1.576a.254.254,0,0,1,.214-.462,2.185,2.185,0,0,0,1.514.052A1.45,1.45,0,0,0,2.772.2a.254.254,0,0,1,.5.109A1.964,1.964,0,0,1,2.053,1.643,2.394,2.394,0,0,1,1.213,1.791Z" transform="translate(1.96 3.414)"/>
              </g>
              <g id="グループ_1123143" data-name="グループ 1123143">
                <g id="グループ_1123141" data-name="グループ 1123141">
                  <path id="パス_1162867" data-name="パス 1162867" d="M18.386,6.2c.732,3.213-.233,5.358-3.45,7.623-1.859,1.327-2.291,2.015-2.208,2.9a2.26,2.26,0,0,1-1.928,2.4A2.409,2.409,0,0,1,7.777,17.06c-.528-2.316.2-3.936,3.006-5.95,2.095-1.5,2.568-2.353,2.3-3.549C12.7,5.918,11.2,5.162,9.142,5.63A6.707,6.707,0,0,0,4.986,8.777a2.742,2.742,0,0,1-1.793,1.273A2.506,2.506,0,0,1,.084,8.125a2.958,2.958,0,0,1,.267-2.1A10.555,10.555,0,0,1,7.234.328C12.875-.957,17.348,1.638,18.386,6.2Zm-4.231,16.06A2.318,2.318,0,0,1,12.279,25.2a2.31,2.31,0,0,1-2.935-1.846,2.318,2.318,0,0,1,1.839-2.966A2.327,2.327,0,0,1,14.155,22.255Z" fill="none" stroke="#251e1c" stroke-linecap="round" stroke-linejoin="round" stroke-width="1.615"/>
                </g>
                <g id="グループ_1123142" data-name="グループ 1123142">
                  <path id="パス_1162868" data-name="パス 1162868" d="M18.386,6.2c.732,3.213-.233,5.358-3.45,7.623-1.859,1.327-2.291,2.015-2.208,2.9a2.26,2.26,0,0,1-1.928,2.4A2.409,2.409,0,0,1,7.777,17.06c-.528-2.316.2-3.936,3.006-5.95,2.095-1.5,2.568-2.353,2.3-3.549C12.7,5.918,11.2,5.162,9.142,5.63A6.707,6.707,0,0,0,4.986,8.777a2.742,2.742,0,0,1-1.793,1.273A2.506,2.506,0,0,1,.084,8.125a2.958,2.958,0,0,1,.267-2.1A10.555,10.555,0,0,1,7.234.328C12.875-.957,17.348,1.638,18.386,6.2Zm-4.231,16.06A2.318,2.318,0,0,1,12.279,25.2a2.31,2.31,0,0,1-2.935-1.846,2.318,2.318,0,0,1,1.839-2.966A2.327,2.327,0,0,1,14.155,22.255Z" fill="#8cddcf"/>
                </g>
              </g>
              <g id="グループ_1123144" data-name="グループ 1123144" transform="translate(8.695 23.197)">
                <path id="手-2" data-name="手" d="M2.489,7.1A3.642,3.642,0,1,1,6.883,5.306" transform="translate(0.425 0.424)" fill="#c79280"/>
                <path id="パス_1162869" data-name="パス 1162869" d="M2.914,7.945a.425.425,0,0,1-.135-.022,4.066,4.066,0,1,1,4.906-2,.424.424,0,1,1-.754-.388A3.218,3.218,0,1,0,3.048,7.119a.424.424,0,0,1-.135.826Z" transform="translate(0 0)" fill="#231815"/>
              </g>
              <g id="表情_ω_通常" data-name="表情　●ω●通常" transform="translate(18.586 23.854)">
                <ellipse id="楕円形_249528" data-name="楕円形 249528" cx="1.212" cy="1.212" rx="1.212" ry="1.212" transform="translate(1.698 0.12)" fill="#231815"/>
                <ellipse id="楕円形_249529" data-name="楕円形 249529" cx="1.212" cy="1.212" rx="1.212" ry="1.212" transform="translate(7.499 0)" fill="#231815"/>
                <path id="パス_1162870" data-name="パス 1162870" d="M3.067,1.344a1.075,1.075,0,0,1-.93-.626,1.991,1.991,0,0,1-1.251.615h0a.86.86,0,0,1-.728-.3A.933.933,0,0,1,.031.27.254.254,0,0,1,.522.4a.435.435,0,0,0,.039.32.424.424,0,0,0,.323.1h0c.452,0,.978-.527,1.142-.73a.254.254,0,0,1,.445.1c.007.029.182.72.692.631A.421.421,0,0,0,3.489.356.254.254,0,0,1,4,.317a.919.919,0,0,1-.744,1.011A1.084,1.084,0,0,1,3.067,1.344Z" transform="translate(3.918 2.522)" fill="#231815"/>
                <g id="グループ_1123145" data-name="グループ 1123145" transform="translate(0 2.424)">
                  <path id="パス_1162871" data-name="パス 1162871" d="M.214.63A.214.214,0,0,1,.177.2L1.324,0A.214.214,0,1,1,1.4.425L.251.627A.218.218,0,0,1,.214.63Z" transform="translate(0 0.861)" fill="#231815"/>
                  <path id="パス_1162872" data-name="パス 1162872" d="M1.362.63a.222.222,0,0,1-.037,0L.177.425A.214.214,0,0,1,.251,0L1.4.2A.214.214,0,0,1,1.362.63Z" transform="translate(0 0)" fill="#231815"/>
                </g>
                <g id="グループ_1123146" data-name="グループ 1123146" transform="translate(9.656 2.424)">
                  <path id="パス_1162873" data-name="パス 1162873" d="M1.362.63a.221.221,0,0,1-.037,0L.177.425A.214.214,0,1,1,.251,0L1.4.2A.214.214,0,0,1,1.362.63Z" transform="translate(0 0.861)" fill="#231815"/>
                  <path id="パス_1162874" data-name="パス 1162874" d="M.214.63A.214.214,0,0,1,.177.2L1.324,0A.214.214,0,1,1,1.4.425L.251.627A.221.221,0,0,1,.214.63Z" transform="translate(0 0)" fill="#231815"/>
                </g>
              </g>
            </g>
            <path id="パス_1162875" data-name="パス 1162875" d="M7.01,4.275a.675.675,0,0,1-.552-.285A6.454,6.454,0,0,0,.795,1.4.676.676,0,1,1,.558.069a6.818,6.818,0,0,1,3.566.5A7.7,7.7,0,0,1,7.561,3.208.676.676,0,0,1,7.01,4.275Z" transform="translate(8.877 0.728)" fill="#fff"/>
            <ellipse id="楕円形_249530" data-name="楕円形 249530" cx="0.788" cy="0.788" rx="0.788" ry="0.788" transform="translate(16.157 5.619)" fill="#fff"/>
          </g>
        </g>
      </g>
    </g>
  </g>
</svg>
