<svg xmlns="http://www.w3.org/2000/svg" xmlns:xlink="http://www.w3.org/1999/xlink" width="250" height="68" viewBox="0 0 250 68">
  <defs>
    <clipPath id="clip-path">
      <rect id="長方形_432367" data-name="長方形 432367" width="250" height="68" transform="translate(835 138)" fill="#fff" stroke="#707070" stroke-width="1" opacity="0.43"/>
    </clipPath>
    <clipPath id="clip-path-2">
      <rect id="長方形_430734" data-name="長方形 430734" width="35" height="35" transform="translate(3550 1060)" fill="#fff" stroke="#707070" stroke-width="1"/>
    </clipPath>
  </defs>
  <g id="マスクグループ_1111047" data-name="マスクグループ 1111047" transform="translate(-835 -138)" clip-path="url(#clip-path)">
    <path id="パス_1167196" data-name="パス 1167196" d="M-123.211-7.705c0,4.738,3.289,7.981,8.073,7.981,4.807,0,8.073-3.243,8.073-7.981s-3.266-7.981-8.073-7.981C-119.922-15.686-123.211-12.443-123.211-7.705Zm3.5,0c0-2.875,1.863-4.853,4.577-4.853s4.577,1.978,4.577,4.853-1.863,4.853-4.577,4.853S-119.715-4.83-119.715-7.705Zm22.172-3.611a4.378,4.378,0,0,0-3.427,1.4h-.046a1.457,1.457,0,0,0-1.564-1.265,1.488,1.488,0,0,0-1.564,1.656V2.737a1.507,1.507,0,0,0,1.564,1.679,1.512,1.512,0,0,0,1.587-1.679V-1.1h.046a4.426,4.426,0,0,0,3.4,1.38c3.2,0,5.313-2.277,5.313-5.8S-94.346-11.316-97.543-11.316ZM-98.187-2.6a2.762,2.762,0,0,1-2.806-2.921,2.762,2.762,0,0,1,2.806-2.921A2.7,2.7,0,0,1-95.45-5.52,2.709,2.709,0,0,1-98.187-2.6Zm14.421-6a2.556,2.556,0,0,1,2.645,1.886h-5.4A2.657,2.657,0,0,1-83.766-8.6Zm4.6,7.061a1.492,1.492,0,0,0,.322-.92,1.286,1.286,0,0,0-1.38-1.357,1.463,1.463,0,0,0-1.035.437,3.242,3.242,0,0,1-2.392.943,2.769,2.769,0,0,1-2.875-2.116h6.785a1.527,1.527,0,0,0,1.61-1.633v-.184c0-2.645-2.461-4.945-5.635-4.945a5.6,5.6,0,0,0-5.98,5.8c0,3.45,2.438,5.8,6.1,5.8A5.7,5.7,0,0,0-79.166-1.541Zm10.028-9.706A3.337,3.337,0,0,0-72.22-9.614h-.046a1.479,1.479,0,0,0-1.587-1.564,1.488,1.488,0,0,0-1.564,1.656v7.981A1.507,1.507,0,0,0-73.853.138a1.512,1.512,0,0,0,1.587-1.679V-4.83c0-2.392,1.127-3.289,3.128-3.289a1.473,1.473,0,0,0,1.564-1.564A1.461,1.461,0,0,0-69.138-11.247Zm13.11.069A1.45,1.45,0,0,0-57.569-9.89h-.046a4.318,4.318,0,0,0-3.427-1.426c-3.2,0-5.313,2.277-5.313,5.8s2.116,5.8,5.313,5.8A4.318,4.318,0,0,0-57.615-1.15h.046A1.467,1.467,0,0,0-56.028.138a1.512,1.512,0,0,0,1.587-1.679V-9.522A1.494,1.494,0,0,0-56.028-11.178ZM-60.4-2.6A2.709,2.709,0,0,1-63.135-5.52,2.7,2.7,0,0,1-60.4-8.441,2.762,2.762,0,0,1-57.592-5.52,2.762,2.762,0,0,1-60.4-2.6Zm17.434.184A1.389,1.389,0,0,0-44.39-3.887a1.427,1.427,0,0,0-1.173.575,1.526,1.526,0,0,1-1.265.713c-.851,0-1.357-.575-1.357-1.564v-4h3.22a1.38,1.38,0,0,0,1.541-1.449,1.374,1.374,0,0,0-1.541-1.426h-3.22v-2.185A1.512,1.512,0,0,0-49.772-14.9a1.507,1.507,0,0,0-1.564,1.679v8.947c0,2.875,1.61,4.554,4.347,4.554a4.012,4.012,0,0,0,3.841-1.932A1.681,1.681,0,0,0-42.964-2.415ZM-41.17-5.52a5.616,5.616,0,0,0,5.98,5.8,5.623,5.623,0,0,0,6-5.8c0-3.45-2.438-5.8-6-5.8A5.6,5.6,0,0,0-41.17-5.52Zm3.22,0a2.7,2.7,0,0,1,2.76-2.921A2.706,2.706,0,0,1-32.407-5.52,2.719,2.719,0,0,1-35.19-2.6,2.714,2.714,0,0,1-37.95-5.52Zm17.94-5.727a3.337,3.337,0,0,0-3.082,1.633h-.046a1.479,1.479,0,0,0-1.587-1.564,1.488,1.488,0,0,0-1.564,1.656v7.981A1.507,1.507,0,0,0-24.725.138a1.512,1.512,0,0,0,1.587-1.679V-4.83c0-2.392,1.127-3.289,3.128-3.289a1.473,1.473,0,0,0,1.564-1.564A1.461,1.461,0,0,0-20.01-11.247Zm11.983-4.3a1.641,1.641,0,0,0-1.725,1.84V-1.7A1.641,1.641,0,0,0-8.027.138a1.635,1.635,0,0,0,1.7-1.84V-13.708A1.635,1.635,0,0,0-8.027-15.548ZM3.588-11.316A4.117,4.117,0,0,0,.276-9.936H.23a1.487,1.487,0,0,0-1.564-1.242A1.507,1.507,0,0,0-2.9-9.5v7.958A1.507,1.507,0,0,0-1.334.138,1.512,1.512,0,0,0,.253-1.541v-4c0-1.817.92-2.9,2.507-2.9,1.518,0,2.3.9,2.3,2.6v4.3A1.507,1.507,0,0,0,6.624.138,1.512,1.512,0,0,0,8.211-1.541V-6.21C8.211-9.522,6.6-11.316,3.588-11.316ZM15.87-13.5a1.627,1.627,0,0,1,1.357.69,1.507,1.507,0,0,0,1.2.529,1.3,1.3,0,0,0,1.357-1.4,1.74,1.74,0,0,0-.23-.851,4.161,4.161,0,0,0-3.818-1.84c-2.806,0-4.416,1.679-4.416,4.554V-1.541A1.507,1.507,0,0,0,12.88.138a1.512,1.512,0,0,0,1.587-1.679V-8.165h3.22a1.369,1.369,0,0,0,1.541-1.449,1.363,1.363,0,0,0-1.541-1.426h-3.22v-.9C14.467-12.926,15-13.5,15.87-13.5ZM20.447-5.52a5.616,5.616,0,0,0,5.98,5.8,5.623,5.623,0,0,0,6-5.8c0-3.45-2.438-5.8-6-5.8A5.6,5.6,0,0,0,20.447-5.52Zm3.22,0a2.7,2.7,0,0,1,2.76-2.921A2.706,2.706,0,0,1,29.21-5.52,2.719,2.719,0,0,1,26.427-2.6,2.714,2.714,0,0,1,23.667-5.52Zm17.94-5.727a3.337,3.337,0,0,0-3.082,1.633h-.046a1.479,1.479,0,0,0-1.587-1.564,1.488,1.488,0,0,0-1.564,1.656v7.981A1.507,1.507,0,0,0,36.892.138a1.512,1.512,0,0,0,1.587-1.679V-4.83c0-2.392,1.127-3.289,3.128-3.289a1.473,1.473,0,0,0,1.564-1.564A1.461,1.461,0,0,0,41.607-11.247Zm16.606-.069a4.2,4.2,0,0,0-3.565,1.564H54.6a3.53,3.53,0,0,0-3.174-1.564A3.522,3.522,0,0,0,48.6-10.028h-.046a1.476,1.476,0,0,0-1.564-1.15,1.488,1.488,0,0,0-1.564,1.656v7.981A1.507,1.507,0,0,0,46.989.138a1.512,1.512,0,0,0,1.587-1.679V-5.8c0-1.679.713-2.645,1.978-2.645,1.219,0,1.84.8,1.84,2.346v4.554A1.5,1.5,0,0,0,53.981.138a1.507,1.507,0,0,0,1.564-1.679V-5.8c0-1.679.713-2.645,2-2.645,1.219,0,1.84.8,1.84,2.346v4.554A1.507,1.507,0,0,0,60.95.138a1.512,1.512,0,0,0,1.587-1.679V-6.463C62.537-9.66,61.134-11.316,58.213-11.316Zm17.342.138A1.45,1.45,0,0,0,74.014-9.89h-.046a4.318,4.318,0,0,0-3.427-1.426c-3.2,0-5.313,2.277-5.313,5.8s2.116,5.8,5.313,5.8A4.318,4.318,0,0,0,73.968-1.15h.046A1.467,1.467,0,0,0,75.555.138a1.512,1.512,0,0,0,1.587-1.679V-9.522A1.494,1.494,0,0,0,75.555-11.178ZM71.185-2.6A2.709,2.709,0,0,1,68.448-5.52a2.7,2.7,0,0,1,2.737-2.921A2.762,2.762,0,0,1,73.991-5.52,2.762,2.762,0,0,1,71.185-2.6Zm17.434.184a1.389,1.389,0,0,0-1.426-1.472,1.427,1.427,0,0,0-1.173.575,1.526,1.526,0,0,1-1.265.713C83.9-2.6,83.4-3.174,83.4-4.163v-4h3.22a1.38,1.38,0,0,0,1.541-1.449,1.374,1.374,0,0,0-1.541-1.426H83.4v-2.185A1.512,1.512,0,0,0,81.811-14.9a1.507,1.507,0,0,0-1.564,1.679v8.947c0,2.875,1.61,4.554,4.347,4.554a4.012,4.012,0,0,0,3.841-1.932A1.681,1.681,0,0,0,88.619-2.415ZM92.552-12.6a1.708,1.708,0,0,0,1.794-1.817,1.672,1.672,0,0,0-1.794-1.771,1.666,1.666,0,0,0-1.771,1.771A1.7,1.7,0,0,0,92.552-12.6Zm0,1.426a1.488,1.488,0,0,0-1.564,1.656v7.981A1.507,1.507,0,0,0,92.552.138a1.512,1.512,0,0,0,1.587-1.679V-9.522A1.494,1.494,0,0,0,92.552-11.178ZM97.037-5.52a5.616,5.616,0,0,0,5.98,5.8,5.623,5.623,0,0,0,6-5.8c0-3.45-2.438-5.8-6-5.8A5.6,5.6,0,0,0,97.037-5.52Zm3.22,0a2.7,2.7,0,0,1,2.76-2.921A2.706,2.706,0,0,1,105.8-5.52,2.719,2.719,0,0,1,103.017-2.6,2.714,2.714,0,0,1,100.257-5.52Zm18.147-5.8a4.117,4.117,0,0,0-3.312,1.38h-.046a1.487,1.487,0,0,0-1.564-1.242A1.507,1.507,0,0,0,111.918-9.5v7.958A1.507,1.507,0,0,0,113.482.138a1.512,1.512,0,0,0,1.587-1.679v-4c0-1.817.92-2.9,2.507-2.9,1.518,0,2.3.9,2.3,2.6v4.3A1.507,1.507,0,0,0,121.44.138a1.512,1.512,0,0,0,1.587-1.679V-6.21C123.027-9.522,121.417-11.316,118.4-11.316Z" transform="translate(960.211 200)" fill="#ffcbde"/>
    <g id="マスクグループ_1110951" data-name="マスクグループ 1110951" transform="translate(-2607 -922)" clip-path="url(#clip-path-2)">
      <path id="合体_42" data-name="合体 42" d="M8.047,27.813c-1.371-4.535-3.2-10.664-3.793-12.719l7.222,3.858,6.16-8.3,6.423,8.038L30.746,15c-.529,2.078-2.16,8.254-3.378,12.81Zm22.2-15.544a2.379,2.379,0,1,1,2.379,2.379A2.379,2.379,0,0,1,30.242,12.27ZM0,12.27a2.379,2.379,0,1,1,2.379,2.379A2.379,2.379,0,0,1,0,12.27ZM19.411,9.62l-1.911-1-1.91,1a1.7,1.7,0,0,1-.776.224.766.766,0,0,1-.5-.162A1.209,1.209,0,0,1,14.043,8.5l.366-2.128L12.863,4.862A1.186,1.186,0,0,1,12.4,3.717a.794.794,0,0,1,.345-.43,1.774,1.774,0,0,1,.713-.243l2.136-.311L16.545.8c.263-.531.607-.8.955-.8h0V0h0c.345,0,.693.267.955.8l.955,1.933h0l2.136.311a1.2,1.2,0,0,1,1.047.642,1.16,1.16,0,0,1-.457,1.175L20.591,6.368,20.957,8.5a1.157,1.157,0,0,1-.325,1.221.786.786,0,0,1-.446.126A1.7,1.7,0,0,1,19.411,9.62Z" transform="translate(3550 1063.75)" fill="#faacc8"/>
    </g>
  </g>
</svg>
