<svg xmlns="http://www.w3.org/2000/svg" xmlns:xlink="http://www.w3.org/1999/xlink" width="250" height="68" viewBox="0 0 250 68">
  <defs>
    <clipPath id="clip-path">
      <rect id="長方形_432367" data-name="長方形 432367" width="250" height="68" transform="translate(835 138)" fill="#fff" stroke="#707070" stroke-width="1" opacity="0.43"/>
    </clipPath>
    <clipPath id="clip-path-2">
      <rect id="長方形_430712" data-name="長方形 430712" width="35" height="35" transform="translate(251 113)" fill="#fff" stroke="#707070" stroke-width="1"/>
    </clipPath>
    <clipPath id="clip-path-3">
      <rect id="長方形_430711" data-name="長方形 430711" width="24.356" height="29.207" fill="#faacc8"/>
    </clipPath>
  </defs>
  <g id="マスクグループ_1111046" data-name="マスクグループ 1111046" transform="translate(-835 -138)" clip-path="url(#clip-path)">
    <g id="グループ_1115645" data-name="グループ 1115645" transform="translate(0 -255)">
      <rect id="長方形_406845" data-name="長方形 406845" width="290" height="11" transform="translate(815 496)" fill="#fde8f1"/>
      <text id="プライバシーポリシー" transform="translate(960 499)" fill="#444" font-size="28" font-family="HiraKakuPro-W6, Hiragino Kaku Gothic Pro" letter-spacing="0.05em"><tspan x="-145" y="0">プライバシーポリシー</tspan></text>
    </g>
    <path id="パス_1167197" data-name="パス 1167197" d="M-78.315-15.41a1.693,1.693,0,0,0-1.84,1.84V-1.679A1.633,1.633,0,0,0-78.43.138a1.628,1.628,0,0,0,1.7-1.817V-5.267h4.692c3.473,0,5.359-1.771,5.359-5.083,0-3.289-1.886-5.06-5.359-5.06ZM-76.728-8.4v-3.887h4.3c1.472,0,2.254.69,2.254,1.932,0,1.288-.782,1.955-2.254,1.955Zm18.86-2.852A3.337,3.337,0,0,0-60.95-9.614H-61a1.479,1.479,0,0,0-1.587-1.564,1.488,1.488,0,0,0-1.564,1.656v7.981A1.507,1.507,0,0,0-62.583.138,1.512,1.512,0,0,0-61-1.541V-4.83c0-2.392,1.127-3.289,3.128-3.289A1.473,1.473,0,0,0-56.3-9.683,1.461,1.461,0,0,0-57.868-11.247Zm5.382-1.357a1.708,1.708,0,0,0,1.794-1.817,1.672,1.672,0,0,0-1.794-1.771,1.666,1.666,0,0,0-1.771,1.771A1.7,1.7,0,0,0-52.486-12.6Zm0,1.426A1.488,1.488,0,0,0-54.05-9.522v7.981A1.507,1.507,0,0,0-52.486.138,1.512,1.512,0,0,0-50.9-1.541V-9.522A1.494,1.494,0,0,0-52.486-11.178Zm13.915,0a1.566,1.566,0,0,0-1.472,1.035L-42.8-3.864h-.046l-2.737-6.21a1.538,1.538,0,0,0-1.518-1.1,1.467,1.467,0,0,0-1.541,1.564,2.341,2.341,0,0,0,.276,1.058l3.7,7.5a1.89,1.89,0,0,0,1.794,1.2,1.95,1.95,0,0,0,1.84-1.2l3.657-7.59a2.21,2.21,0,0,0,.3-1.012A1.431,1.431,0,0,0-38.571-11.178Zm13.386,0A1.45,1.45,0,0,0-26.726-9.89h-.046A4.318,4.318,0,0,0-30.2-11.316c-3.2,0-5.313,2.277-5.313,5.8S-33.4.276-30.2.276A4.318,4.318,0,0,0-26.772-1.15h.046A1.467,1.467,0,0,0-25.185.138,1.512,1.512,0,0,0-23.6-1.541V-9.522A1.494,1.494,0,0,0-25.185-11.178ZM-29.555-2.6A2.709,2.709,0,0,1-32.292-5.52a2.7,2.7,0,0,1,2.737-2.921A2.762,2.762,0,0,1-26.749-5.52,2.762,2.762,0,0,1-29.555-2.6Zm19.688.023a1.407,1.407,0,0,0-1.495-1.472,1.409,1.409,0,0,0-1.058.46,3.059,3.059,0,0,1-2.3.989A2.714,2.714,0,0,1-17.48-5.52a2.7,2.7,0,0,1,2.76-2.921,3.32,3.32,0,0,1,2.208.851,1.463,1.463,0,0,0,.966.345A1.364,1.364,0,0,0-10.1-8.694a1.5,1.5,0,0,0-.46-1.081,5.943,5.943,0,0,0-4.163-1.541,5.6,5.6,0,0,0-5.98,5.8,5.616,5.616,0,0,0,5.98,5.8,5.745,5.745,0,0,0,4.531-1.932A1.445,1.445,0,0,0-9.867-2.576Zm11.891-8.6A1.494,1.494,0,0,0,.437-9.522V-6c0,1.817-.92,2.9-2.484,2.9-1.472,0-2.254-.92-2.254-2.6V-9.522a1.494,1.494,0,0,0-1.587-1.656A1.488,1.488,0,0,0-7.452-9.522v4.186c0,3.312,1.61,5.106,4.577,5.106A4.077,4.077,0,0,0,.391-1.587H.437v.736A2.44,2.44,0,0,1-2.208,1.7,3.535,3.535,0,0,1-4.784.736a1.274,1.274,0,0,0-.851-.3,1.383,1.383,0,0,0-1.5,1.472,1.463,1.463,0,0,0,.322.943c.851,1.1,2.553,1.7,4.669,1.7,3.565,0,5.727-2.093,5.727-5.543V-9.522A1.488,1.488,0,0,0,2.024-11.178ZM15.18-15.41a1.693,1.693,0,0,0-1.84,1.84V-1.679A1.633,1.633,0,0,0,15.065.138a1.628,1.628,0,0,0,1.7-1.817V-5.267h4.692c3.473,0,5.359-1.771,5.359-5.083,0-3.289-1.886-5.06-5.359-5.06ZM16.767-8.4v-3.887h4.3c1.472,0,2.254.69,2.254,1.932,0,1.288-.782,1.955-2.254,1.955ZM28.589-5.52a5.616,5.616,0,0,0,5.98,5.8,5.623,5.623,0,0,0,6-5.8c0-3.45-2.438-5.8-6-5.8A5.6,5.6,0,0,0,28.589-5.52Zm3.22,0a2.7,2.7,0,0,1,2.76-2.921A2.706,2.706,0,0,1,37.352-5.52,2.719,2.719,0,0,1,34.569-2.6,2.714,2.714,0,0,1,31.809-5.52ZM45.034-16.238a1.507,1.507,0,0,0-1.564,1.679V-1.541A1.507,1.507,0,0,0,45.034.138a1.512,1.512,0,0,0,1.587-1.679V-14.559A1.512,1.512,0,0,0,45.034-16.238ZM51.5-12.6a1.708,1.708,0,0,0,1.794-1.817A1.672,1.672,0,0,0,51.5-16.192a1.666,1.666,0,0,0-1.771,1.771A1.7,1.7,0,0,0,51.5-12.6Zm0,1.426a1.488,1.488,0,0,0-1.564,1.656v7.981A1.507,1.507,0,0,0,51.5.138a1.512,1.512,0,0,0,1.587-1.679V-9.522A1.494,1.494,0,0,0,51.5-11.178Zm15.318,8.6A1.407,1.407,0,0,0,65.32-4.048a1.409,1.409,0,0,0-1.058.46,3.059,3.059,0,0,1-2.3.989A2.714,2.714,0,0,1,59.2-5.52a2.7,2.7,0,0,1,2.76-2.921,3.32,3.32,0,0,1,2.208.851,1.463,1.463,0,0,0,.966.345,1.364,1.364,0,0,0,1.449-1.449,1.5,1.5,0,0,0-.46-1.081,5.943,5.943,0,0,0-4.163-1.541,5.6,5.6,0,0,0-5.98,5.8,5.616,5.616,0,0,0,5.98,5.8,5.745,5.745,0,0,0,4.531-1.932A1.445,1.445,0,0,0,66.815-2.576Zm11.891-8.6a1.494,1.494,0,0,0-1.587,1.656V-6c0,1.817-.92,2.9-2.484,2.9-1.472,0-2.254-.92-2.254-2.6V-9.522a1.494,1.494,0,0,0-1.587-1.656A1.488,1.488,0,0,0,69.23-9.522v4.186c0,3.312,1.61,5.106,4.577,5.106a4.077,4.077,0,0,0,3.266-1.357h.046v.736A2.44,2.44,0,0,1,74.474,1.7,3.535,3.535,0,0,1,71.9.736a1.274,1.274,0,0,0-.851-.3,1.383,1.383,0,0,0-1.5,1.472,1.463,1.463,0,0,0,.322.943c.851,1.1,2.553,1.7,4.669,1.7,3.565,0,5.727-2.093,5.727-5.543V-9.522A1.488,1.488,0,0,0,78.706-11.178Z" transform="translate(960.155 200)" fill="#ffcbde"/>
    <g id="マスクグループ_1110950" data-name="マスクグループ 1110950" transform="translate(692 25)" clip-path="url(#clip-path-2)">
      <g id="グループ_1120574" data-name="グループ 1120574" transform="translate(255.969 115.602)">
        <g id="グループ_1120573" data-name="グループ 1120573" transform="translate(0 0)" clip-path="url(#clip-path-3)">
          <path id="パス_1160197" data-name="パス 1160197" d="M22.1,11.817h-.043V9.883a9.883,9.883,0,0,0-19.767,0v1.934H2.251A2.25,2.25,0,0,0,0,14.068V26.955a2.251,2.251,0,0,0,2.251,2.251H22.1a2.252,2.252,0,0,0,2.251-2.251V14.068A2.251,2.251,0,0,0,22.1,11.817m-8.666,8.871v4.153a1.261,1.261,0,0,1-2.521,0V20.688a2.916,2.916,0,1,1,2.521,0m5.276-8.871H5.641V9.883a6.536,6.536,0,1,1,13.073,0Z" transform="translate(0 0)" fill="#faacc8"/>
        </g>
      </g>
    </g>
  </g>
</svg>
