<svg xmlns="http://www.w3.org/2000/svg" xmlns:xlink="http://www.w3.org/1999/xlink" width="150" height="46" viewBox="0 0 150 46">
  <defs>
    <clipPath id="clip-path">
      <rect id="長方形_431624" data-name="長方形 431624" width="150" height="46" transform="translate(113 112)" fill="#fff" stroke="#707070" stroke-width="1"/>
    </clipPath>
    <clipPath id="clip-path-2">
      <rect id="長方形_429082" data-name="長方形 429082" width="26" height="26" transform="translate(251 113)" fill="#fff" stroke="#707070" stroke-width="1"/>
    </clipPath>
    <clipPath id="clip-path-3">
      <rect id="長方形_429081" data-name="長方形 429081" width="20.71" height="24.835" fill="#faacc8"/>
    </clipPath>
  </defs>
  <g id="マスクグループ_1111009" data-name="マスクグループ 1111009" transform="translate(-113 -112)" clip-path="url(#clip-path)">
    <path id="パス_1163436" data-name="パス 1163436" d="M-46.76-9.38a1.03,1.03,0,0,0-1.12,1.12v7.238A.994.994,0,0,0-46.83.084a.991.991,0,0,0,1.036-1.106V-3.206h2.856c2.114,0,3.262-1.078,3.262-3.094s-1.148-3.08-3.262-3.08Zm.966,4.27V-7.476h2.618c.9,0,1.372.42,1.372,1.176,0,.784-.476,1.19-1.372,1.19Zm11.34-1.736a2.031,2.031,0,0,0-1.876.994h-.028a.9.9,0,0,0-.966-.952A.906.906,0,0,0-38.276-5.8V-.938A.917.917,0,0,0-37.324.084a.92.92,0,0,0,.966-1.022v-2c0-1.456.686-2,1.9-2a.9.9,0,0,0,.952-.952A.889.889,0,0,0-34.454-6.846Zm3.136-.826a1.04,1.04,0,0,0,1.092-1.106,1.018,1.018,0,0,0-1.092-1.078A1.014,1.014,0,0,0-32.4-8.778,1.036,1.036,0,0,0-31.318-7.672Zm0,.868A.906.906,0,0,0-32.27-5.8V-.938A.917.917,0,0,0-31.318.084a.92.92,0,0,0,.966-1.022V-5.8A.909.909,0,0,0-31.318-6.8Zm8.33,0a.953.953,0,0,0-.9.63l-1.68,3.822h-.028l-1.666-3.78a.936.936,0,0,0-.924-.672.893.893,0,0,0-.938.952,1.425,1.425,0,0,0,.168.644L-26.7-.644a1.15,1.15,0,0,0,1.092.728,1.187,1.187,0,0,0,1.12-.728l2.226-4.62a1.345,1.345,0,0,0,.182-.616A.871.871,0,0,0-22.988-6.8Zm8.008,0a.882.882,0,0,0-.938.784h-.028a2.628,2.628,0,0,0-2.086-.868c-1.946,0-3.234,1.386-3.234,3.528S-19.978.168-18.032.168A2.628,2.628,0,0,0-15.946-.7h.028a.893.893,0,0,0,.938.784.92.92,0,0,0,.966-1.022V-5.8A.909.909,0,0,0-14.98-6.8Zm-2.66,5.222A1.649,1.649,0,0,1-19.306-3.36,1.641,1.641,0,0,1-17.64-5.138,1.681,1.681,0,0,1-15.932-3.36,1.681,1.681,0,0,1-17.64-1.582ZM-5.8-1.568a.856.856,0,0,0-.91-.9.858.858,0,0,0-.644.28,1.862,1.862,0,0,1-1.4.6A1.652,1.652,0,0,1-10.43-3.36,1.644,1.644,0,0,1-8.75-5.138a2.021,2.021,0,0,1,1.344.518.891.891,0,0,0,.588.21.83.83,0,0,0,.882-.882.911.911,0,0,0-.28-.658A3.618,3.618,0,0,0-8.75-6.888,3.411,3.411,0,0,0-12.39-3.36,3.418,3.418,0,0,0-8.75.168,3.5,3.5,0,0,0-5.992-1.008.879.879,0,0,0-5.8-1.568ZM1.3-6.8A.909.909,0,0,0,.336-5.8v2.142c0,1.106-.56,1.764-1.512,1.764-.9,0-1.372-.56-1.372-1.582V-5.8A.909.909,0,0,0-3.514-6.8.906.906,0,0,0-4.466-5.8v2.548c0,2.016.98,3.108,2.786,3.108A2.481,2.481,0,0,0,.308-.966H.336v.448a1.485,1.485,0,0,1-1.61,1.554A2.152,2.152,0,0,1-2.842.448.775.775,0,0,0-3.36.266a.842.842,0,0,0-.91.9.89.89,0,0,0,.2.574A3.529,3.529,0,0,0-1.232,2.772,3.165,3.165,0,0,0,2.254-.6V-5.8A.906.906,0,0,0,1.3-6.8ZM9.03-9.38A1.03,1.03,0,0,0,7.91-8.26v7.238A.994.994,0,0,0,8.96.084.991.991,0,0,0,10-1.022V-3.206h2.856c2.114,0,3.262-1.078,3.262-3.094s-1.148-3.08-3.262-3.08ZM10-5.11V-7.476h2.618c.9,0,1.372.42,1.372,1.176,0,.784-.476,1.19-1.372,1.19Zm7.056,1.75A3.418,3.418,0,0,0,20.692.168,3.422,3.422,0,0,0,24.346-3.36a3.415,3.415,0,0,0-3.654-3.528A3.411,3.411,0,0,0,17.052-3.36Zm1.96,0a1.644,1.644,0,0,1,1.68-1.778A1.647,1.647,0,0,1,22.386-3.36a1.655,1.655,0,0,1-1.694,1.778A1.652,1.652,0,0,1,19.012-3.36Zm7.91-6.524a.917.917,0,0,0-.952,1.022V-.938A.917.917,0,0,0,26.922.084a.92.92,0,0,0,.966-1.022V-8.862A.92.92,0,0,0,26.922-9.884Zm3.794,2.212a1.04,1.04,0,0,0,1.092-1.106,1.018,1.018,0,0,0-1.092-1.078,1.014,1.014,0,0,0-1.078,1.078A1.036,1.036,0,0,0,30.716-7.672Zm0,.868A.906.906,0,0,0,29.764-5.8V-.938A.917.917,0,0,0,30.716.084a.92.92,0,0,0,.966-1.022V-5.8A.909.909,0,0,0,30.716-6.8ZM39.9-1.568a.856.856,0,0,0-.91-.9.858.858,0,0,0-.644.28,1.862,1.862,0,0,1-1.4.6,1.652,1.652,0,0,1-1.68-1.778,1.644,1.644,0,0,1,1.68-1.778,2.021,2.021,0,0,1,1.344.518.891.891,0,0,0,.588.21.83.83,0,0,0,.882-.882.911.911,0,0,0-.28-.658,3.618,3.618,0,0,0-2.534-.938,3.411,3.411,0,0,0-3.64,3.528A3.418,3.418,0,0,0,36.946.168,3.5,3.5,0,0,0,39.7-1.008.879.879,0,0,0,39.9-1.568ZM47-6.8A.909.909,0,0,0,46.032-5.8v2.142c0,1.106-.56,1.764-1.512,1.764-.9,0-1.372-.56-1.372-1.582V-5.8A.909.909,0,0,0,42.182-6.8.906.906,0,0,0,41.23-5.8v2.548c0,2.016.98,3.108,2.786,3.108A2.481,2.481,0,0,0,46-.966h.028v.448a1.485,1.485,0,0,1-1.61,1.554A2.152,2.152,0,0,1,42.854.448a.775.775,0,0,0-.518-.182.842.842,0,0,0-.91.9.89.89,0,0,0,.2.574,3.529,3.529,0,0,0,2.842,1.036A3.165,3.165,0,0,0,47.95-.6V-5.8A.906.906,0,0,0,47-6.8Z" transform="translate(187.88 155)" fill="#fcd1e1"/>
    <g id="マスクグループ_1110921" data-name="マスクグループ 1110921" transform="translate(-76 -1)" clip-path="url(#clip-path-2)">
      <g id="グループ_1113494" data-name="グループ 1113494" transform="translate(253.383 113.364)">
        <g id="グループ_1113493" data-name="グループ 1113493" transform="translate(0 0)" clip-path="url(#clip-path-3)">
          <path id="パス_1153786" data-name="パス 1153786" d="M18.8,10.048h-.036V8.4a8.4,8.4,0,0,0-16.808,0v1.645H1.914A1.913,1.913,0,0,0,0,11.963V22.921a1.914,1.914,0,0,0,1.914,1.914H18.8a1.915,1.915,0,0,0,1.914-1.914V11.963A1.914,1.914,0,0,0,18.8,10.048m-7.369,7.544v3.531a1.072,1.072,0,0,1-2.144,0V17.592a2.48,2.48,0,1,1,2.144,0m4.486-7.544H4.8V8.4a5.558,5.558,0,1,1,11.116,0Z" transform="translate(0 0)" fill="#faacc8"/>
        </g>
      </g>
    </g>
  </g>
</svg>
