<svg xmlns="http://www.w3.org/2000/svg" xmlns:xlink="http://www.w3.org/1999/xlink" width="150" height="46" viewBox="0 0 150 46">
  <defs>
    <clipPath id="clip-path">
      <rect id="長方形_431624" data-name="長方形 431624" width="150" height="46" transform="translate(113 112)" fill="#fff" stroke="#707070" stroke-width="1"/>
    </clipPath>
    <clipPath id="clip-path-2">
      <rect id="長方形_429079" data-name="長方形 429079" width="26" height="26" transform="translate(94 112)" fill="#fff" stroke="#707070" stroke-width="1"/>
    </clipPath>
    <clipPath id="clip-path-3">
      <rect id="長方形_429078" data-name="長方形 429078" width="23" height="25.402" fill="#faacc8"/>
    </clipPath>
  </defs>
  <g id="マスクグループ_1111008" data-name="マスクグループ 1111008" transform="translate(-113 -112)" clip-path="url(#clip-path)">
    <path id="パス_1163435" data-name="パス 1163435" d="M-56.532-9.38a.906.906,0,0,0-1.008.952.906.906,0,0,0,1.008.952h2.478v6.44A1,1,0,0,0-53,.084a1,1,0,0,0,1.036-1.12v-6.44h2.478a.906.906,0,0,0,1.008-.952A.906.906,0,0,0-49.49-9.38Zm10.864,4.144a1.556,1.556,0,0,1,1.61,1.148h-3.29A1.618,1.618,0,0,1-45.668-5.236Zm2.8,4.3a.908.908,0,0,0,.2-.56.783.783,0,0,0-.84-.826.891.891,0,0,0-.63.266,1.973,1.973,0,0,1-1.456.574,1.685,1.685,0,0,1-1.75-1.288h4.13a.93.93,0,0,0,.98-.994v-.112a3.252,3.252,0,0,0-3.43-3.01,3.411,3.411,0,0,0-3.64,3.528A3.431,3.431,0,0,0-45.6.168,3.468,3.468,0,0,0-42.868-.938ZM-36.9-6.846a2.031,2.031,0,0,0-1.876.994h-.028a.9.9,0,0,0-.966-.952A.906.906,0,0,0-40.726-5.8V-.938A.917.917,0,0,0-39.774.084a.92.92,0,0,0,.966-1.022v-2c0-1.456.686-2,1.9-2a.9.9,0,0,0,.952-.952A.889.889,0,0,0-36.9-6.846Zm9.968-.042a2.558,2.558,0,0,0-2.17.952h-.028a2.149,2.149,0,0,0-1.932-.952,2.144,2.144,0,0,0-1.722.784h-.028a.9.9,0,0,0-.952-.7A.906.906,0,0,0-34.72-5.8V-.938A.917.917,0,0,0-33.768.084.92.92,0,0,0-32.8-.938v-2.59c0-1.022.434-1.61,1.2-1.61.742,0,1.12.49,1.12,1.428V-.938A.914.914,0,0,0-29.512.084.917.917,0,0,0-28.56-.938v-2.59c0-1.022.434-1.61,1.218-1.61.742,0,1.12.49,1.12,1.428V-.938A.917.917,0,0,0-25.27.084.92.92,0,0,0-24.3-.938v-3C-24.3-5.88-25.158-6.888-26.936-6.888ZM-20.9-4.634c0-.378.462-.616,1.218-.616a2.456,2.456,0,0,1,1.316.35,1.121,1.121,0,0,0,.616.21.819.819,0,0,0,.854-.868.858.858,0,0,0-.392-.714,4.014,4.014,0,0,0-2.534-.616c-1.834,0-2.968.854-2.968,2.24s.826,2.044,2.9,2.044c1.092,0,1.4.168,1.4.518,0,.392-.434.616-1.218.616a3.173,3.173,0,0,1-1.68-.42,1.048,1.048,0,0,0-.63-.224.816.816,0,0,0-.84.868.816.816,0,0,0,.322.658,4.381,4.381,0,0,0,2.982.756c1.834,0,2.954-.84,2.954-2.212,0-1.428-.826-2.114-2.954-2.114C-20.594-4.158-20.9-4.312-20.9-4.634Zm9.268,1.274A3.418,3.418,0,0,0-7.994.168,3.422,3.422,0,0,0-4.34-3.36,3.415,3.415,0,0,0-7.994-6.888,3.411,3.411,0,0,0-11.634-3.36Zm1.96,0a1.644,1.644,0,0,1,1.68-1.778A1.647,1.647,0,0,1-6.3-3.36,1.655,1.655,0,0,1-7.994-1.582,1.652,1.652,0,0,1-9.674-3.36ZM.056-8.218a.991.991,0,0,1,.826.42.917.917,0,0,0,.728.322.794.794,0,0,0,.826-.854,1.059,1.059,0,0,0-.14-.518A2.533,2.533,0,0,0-.028-9.968,2.491,2.491,0,0,0-2.716-7.2V-.938A.917.917,0,0,0-1.764.084.92.92,0,0,0-.8-.938V-4.97h1.96A.833.833,0,0,0,2.1-5.852a.83.83,0,0,0-.938-.868H-.8v-.546C-.8-7.868-.476-8.218.056-8.218Zm9,1.694c0-.7.728-1.148,1.834-1.148a3.646,3.646,0,0,1,2.226.714,1.021,1.021,0,0,0,.63.224.922.922,0,0,0,.98-.966,1.024,1.024,0,0,0-.364-.826,5.026,5.026,0,0,0-3.318-1.022c-2.52,0-4.1,1.2-4.1,3.108,0,1.82,1.078,2.674,3.906,2.7,1.68.014,2.17.28,2.17.882,0,.728-.686,1.148-1.876,1.148a4.064,4.064,0,0,1-2.7-.91,1,1,0,0,0-.658-.252A.922.922,0,0,0,6.8-1.9a1.025,1.025,0,0,0,.28.756A5.178,5.178,0,0,0,10.99.168c2.66,0,4.144-1.106,4.144-3.108,0-1.876-1.12-2.772-3.976-2.772C9.562-5.712,9.058-5.964,9.058-6.524ZM20.076-5.236a1.556,1.556,0,0,1,1.61,1.148H18.4A1.618,1.618,0,0,1,20.076-5.236Zm2.8,4.3a.908.908,0,0,0,.2-.56.783.783,0,0,0-.84-.826.891.891,0,0,0-.63.266,1.973,1.973,0,0,1-1.456.574A1.685,1.685,0,0,1,18.4-2.772h4.13a.93.93,0,0,0,.98-.994v-.112a3.252,3.252,0,0,0-3.43-3.01,3.411,3.411,0,0,0-3.64,3.528A3.431,3.431,0,0,0,20.146.168,3.468,3.468,0,0,0,22.876-.938ZM28.84-6.846a2.031,2.031,0,0,0-1.876.994h-.028A.9.9,0,0,0,25.97-6.8.906.906,0,0,0,25.018-5.8V-.938A.917.917,0,0,0,25.97.084a.92.92,0,0,0,.966-1.022v-2c0-1.456.686-2,1.9-2a.9.9,0,0,0,.952-.952A.889.889,0,0,0,28.84-6.846Zm7.812.042a.953.953,0,0,0-.9.63l-1.68,3.822h-.028l-1.666-3.78a.936.936,0,0,0-.924-.672.893.893,0,0,0-.938.952,1.425,1.425,0,0,0,.168.644L32.942-.644a1.15,1.15,0,0,0,1.092.728,1.187,1.187,0,0,0,1.12-.728l2.226-4.62a1.345,1.345,0,0,0,.182-.616A.871.871,0,0,0,36.652-6.8Zm3.094-.868a1.04,1.04,0,0,0,1.092-1.106,1.018,1.018,0,0,0-1.092-1.078,1.014,1.014,0,0,0-1.078,1.078A1.036,1.036,0,0,0,39.746-7.672Zm0,.868A.906.906,0,0,0,38.794-5.8V-.938A.917.917,0,0,0,39.746.084a.92.92,0,0,0,.966-1.022V-5.8A.909.909,0,0,0,39.746-6.8ZM48.93-1.568a.856.856,0,0,0-.91-.9.858.858,0,0,0-.644.28,1.862,1.862,0,0,1-1.4.6A1.652,1.652,0,0,1,44.3-3.36a1.644,1.644,0,0,1,1.68-1.778,2.021,2.021,0,0,1,1.344.518.891.891,0,0,0,.588.21.83.83,0,0,0,.882-.882.911.911,0,0,0-.28-.658,3.618,3.618,0,0,0-2.534-.938,3.411,3.411,0,0,0-3.64,3.528A3.418,3.418,0,0,0,45.976.168a3.5,3.5,0,0,0,2.758-1.176A.879.879,0,0,0,48.93-1.568Zm4.844-3.668a1.556,1.556,0,0,1,1.61,1.148h-3.29A1.618,1.618,0,0,1,53.774-5.236Zm2.8,4.3a.908.908,0,0,0,.2-.56.783.783,0,0,0-.84-.826.891.891,0,0,0-.63.266,1.973,1.973,0,0,1-1.456.574,1.685,1.685,0,0,1-1.75-1.288h4.13a.93.93,0,0,0,.98-.994v-.112a3.252,3.252,0,0,0-3.43-3.01,3.411,3.411,0,0,0-3.64,3.528A3.431,3.431,0,0,0,53.844.168,3.468,3.468,0,0,0,56.574-.938Z" transform="translate(187.54 155)" fill="#fcd1e1"/>
    <g id="マスクグループ_1110920" data-name="マスクグループ 1110920" transform="translate(81)" clip-path="url(#clip-path-2)">
      <g id="グループ_1113492" data-name="グループ 1113492" transform="translate(95.5 112)">
        <g id="グループ_1113491" data-name="グループ 1113491" transform="translate(0 0)" clip-path="url(#clip-path-3)">
          <path id="パス_1153784" data-name="パス 1153784" d="M19.456,2.709,16.147.227a1.142,1.142,0,0,0-1.6.229L1.16,18.259a1.225,1.225,0,0,0-.232.532L.011,24.08a.708.708,0,0,0,.275.69.712.712,0,0,0,.74.07l4.821-2.359,0,0a1.229,1.229,0,0,0,.44-.366l13.393-17.8a1.146,1.146,0,0,0-.228-1.6" transform="translate(0 0)" fill="#faacc8"/>
          <path id="パス_1153785" data-name="パス 1153785" d="M21.69,23.952H7.6a.87.87,0,1,1,0-1.741h14.1a.87.87,0,1,1,0,1.741" transform="translate(0.439 1.451)" fill="#faacc8"/>
        </g>
      </g>
    </g>
  </g>
</svg>
