<svg xmlns="http://www.w3.org/2000/svg" xmlns:xlink="http://www.w3.org/1999/xlink" width="250" height="68" viewBox="0 0 250 68">
  <defs>
    <clipPath id="clip-path">
      <rect id="長方形_432367" data-name="長方形 432367" width="250" height="68" transform="translate(835 138)" fill="#fff" stroke="#707070" stroke-width="1" opacity="0.43"/>
    </clipPath>
    <clipPath id="clip-path-2">
      <rect id="長方形_430305" data-name="長方形 430305" width="35" height="35" transform="translate(94 112)" fill="#fff" stroke="#707070" stroke-width="1"/>
    </clipPath>
    <clipPath id="clip-path-3">
      <rect id="長方形_430304" data-name="長方形 430304" width="25.105" height="27.727" fill="#faacc8"/>
    </clipPath>
  </defs>
  <g id="マスクグループ_1111045" data-name="マスクグループ 1111045" transform="translate(-835 -138)" clip-path="url(#clip-path)">
    <path id="パス_1167198" data-name="パス 1167198" d="M-94.6-15.41a1.488,1.488,0,0,0-1.656,1.564A1.488,1.488,0,0,0-94.6-12.282h4.071V-1.7A1.641,1.641,0,0,0-88.8.138,1.635,1.635,0,0,0-87.1-1.7v-10.58h4.071a1.488,1.488,0,0,0,1.656-1.564A1.488,1.488,0,0,0-83.03-15.41ZM-76.521-8.6a2.556,2.556,0,0,1,2.645,1.886h-5.4A2.657,2.657,0,0,1-76.521-8.6Zm4.6,7.061a1.492,1.492,0,0,0,.322-.92,1.286,1.286,0,0,0-1.38-1.357,1.463,1.463,0,0,0-1.035.437,3.242,3.242,0,0,1-2.392.943,2.769,2.769,0,0,1-2.875-2.116H-72.5a1.527,1.527,0,0,0,1.61-1.633v-.184c0-2.645-2.461-4.945-5.635-4.945a5.6,5.6,0,0,0-5.98,5.8c0,3.45,2.438,5.8,6.1,5.8A5.7,5.7,0,0,0-71.921-1.541Zm10.028-9.706a3.337,3.337,0,0,0-3.082,1.633h-.046a1.479,1.479,0,0,0-1.587-1.564,1.488,1.488,0,0,0-1.564,1.656v7.981A1.507,1.507,0,0,0-66.608.138a1.512,1.512,0,0,0,1.587-1.679V-4.83c0-2.392,1.127-3.289,3.128-3.289a1.473,1.473,0,0,0,1.564-1.564A1.461,1.461,0,0,0-61.893-11.247Zm16.606-.069a4.2,4.2,0,0,0-3.565,1.564H-48.9a3.53,3.53,0,0,0-3.174-1.564A3.522,3.522,0,0,0-54.9-10.028h-.046a1.476,1.476,0,0,0-1.564-1.15,1.488,1.488,0,0,0-1.564,1.656v7.981A1.507,1.507,0,0,0-56.511.138a1.512,1.512,0,0,0,1.587-1.679V-5.8c0-1.679.713-2.645,1.978-2.645,1.219,0,1.84.8,1.84,2.346v4.554A1.5,1.5,0,0,0-49.519.138a1.507,1.507,0,0,0,1.564-1.679V-5.8c0-1.679.713-2.645,2-2.645,1.219,0,1.84.8,1.84,2.346v4.554A1.507,1.507,0,0,0-42.55.138a1.512,1.512,0,0,0,1.587-1.679V-6.463C-40.963-9.66-42.366-11.316-45.287-11.316Zm10.143,3.7c0-.621.759-1.012,2-1.012a4.035,4.035,0,0,1,2.162.575,1.841,1.841,0,0,0,1.012.345,1.346,1.346,0,0,0,1.4-1.426A1.409,1.409,0,0,0-29.21-10.3a6.6,6.6,0,0,0-4.163-1.012c-3.013,0-4.876,1.4-4.876,3.68s1.357,3.358,4.761,3.358c1.794,0,2.3.276,2.3.851,0,.644-.713,1.012-2,1.012a5.213,5.213,0,0,1-2.76-.69,1.722,1.722,0,0,0-1.035-.368,1.341,1.341,0,0,0-1.38,1.426,1.34,1.34,0,0,0,.529,1.081c1.2.92,2.461,1.242,4.9,1.242,3.013,0,4.853-1.38,4.853-3.634,0-2.346-1.357-3.473-4.853-3.473C-34.638-6.831-35.144-7.084-35.144-7.613ZM-19.458-5.52a5.616,5.616,0,0,0,5.98,5.8,5.623,5.623,0,0,0,6-5.8c0-3.45-2.438-5.8-6-5.8A5.6,5.6,0,0,0-19.458-5.52Zm3.22,0a2.7,2.7,0,0,1,2.76-2.921A2.706,2.706,0,0,1-10.695-5.52,2.719,2.719,0,0,1-13.478-2.6,2.714,2.714,0,0,1-16.238-5.52ZM-.023-13.5a1.627,1.627,0,0,1,1.357.69,1.507,1.507,0,0,0,1.2.529,1.3,1.3,0,0,0,1.357-1.4,1.74,1.74,0,0,0-.23-.851,4.161,4.161,0,0,0-3.818-1.84c-2.806,0-4.416,1.679-4.416,4.554V-1.541A1.507,1.507,0,0,0-3.013.138,1.512,1.512,0,0,0-1.426-1.541V-8.165h3.22A1.369,1.369,0,0,0,3.335-9.614,1.363,1.363,0,0,0,1.794-11.04h-3.22v-.9C-1.426-12.926-.9-13.5-.023-13.5Zm15.249,2.783c0-1.15,1.2-1.886,3.013-1.886A5.989,5.989,0,0,1,21.9-11.431a1.678,1.678,0,0,0,1.035.368,1.515,1.515,0,0,0,1.61-1.587,1.683,1.683,0,0,0-.6-1.357,8.257,8.257,0,0,0-5.451-1.679c-4.14,0-6.739,1.978-6.739,5.106,0,2.99,1.771,4.393,6.417,4.439,2.76.023,3.565.46,3.565,1.449,0,1.2-1.127,1.886-3.082,1.886A6.677,6.677,0,0,1,14.214-4.3a1.645,1.645,0,0,0-1.081-.414,1.515,1.515,0,0,0-1.61,1.587,1.685,1.685,0,0,0,.46,1.242C13.317-.46,15.5.276,18.4.276c4.37,0,6.808-1.817,6.808-5.106,0-3.082-1.84-4.554-6.532-4.554C16.054-9.384,15.226-9.8,15.226-10.718ZM33.557-8.6A2.556,2.556,0,0,1,36.2-6.716H30.8A2.657,2.657,0,0,1,33.557-8.6Zm4.6,7.061a1.492,1.492,0,0,0,.322-.92A1.286,1.286,0,0,0,37.1-3.818a1.463,1.463,0,0,0-1.035.437,3.242,3.242,0,0,1-2.392.943A2.769,2.769,0,0,1,30.8-4.554h6.785a1.527,1.527,0,0,0,1.61-1.633v-.184c0-2.645-2.461-4.945-5.635-4.945a5.6,5.6,0,0,0-5.98,5.8c0,3.45,2.438,5.8,6.095,5.8A5.7,5.7,0,0,0,38.157-1.541Zm10.028-9.706A3.337,3.337,0,0,0,45.1-9.614h-.046a1.479,1.479,0,0,0-1.587-1.564,1.488,1.488,0,0,0-1.564,1.656v7.981A1.507,1.507,0,0,0,43.47.138a1.512,1.512,0,0,0,1.587-1.679V-4.83c0-2.392,1.127-3.289,3.128-3.289a1.473,1.473,0,0,0,1.564-1.564A1.461,1.461,0,0,0,48.185-11.247Zm13.064.069a1.566,1.566,0,0,0-1.472,1.035l-2.76,6.279h-.046l-2.737-6.21a1.538,1.538,0,0,0-1.518-1.1,1.467,1.467,0,0,0-1.541,1.564,2.341,2.341,0,0,0,.276,1.058l3.7,7.5a1.89,1.89,0,0,0,1.794,1.2,1.95,1.95,0,0,0,1.84-1.2l3.657-7.59a2.21,2.21,0,0,0,.3-1.012A1.431,1.431,0,0,0,61.249-11.178ZM66.562-12.6a1.708,1.708,0,0,0,1.794-1.817,1.672,1.672,0,0,0-1.794-1.771,1.666,1.666,0,0,0-1.771,1.771A1.7,1.7,0,0,0,66.562-12.6Zm0,1.426A1.488,1.488,0,0,0,65-9.522v7.981A1.507,1.507,0,0,0,66.562.138a1.512,1.512,0,0,0,1.587-1.679V-9.522A1.494,1.494,0,0,0,66.562-11.178Zm15.318,8.6a1.407,1.407,0,0,0-1.495-1.472,1.409,1.409,0,0,0-1.058.46,3.059,3.059,0,0,1-2.3.989,2.714,2.714,0,0,1-2.76-2.921,2.7,2.7,0,0,1,2.76-2.921,3.32,3.32,0,0,1,2.208.851,1.463,1.463,0,0,0,.966.345A1.364,1.364,0,0,0,81.65-8.694a1.5,1.5,0,0,0-.46-1.081,5.943,5.943,0,0,0-4.163-1.541,5.6,5.6,0,0,0-5.98,5.8,5.616,5.616,0,0,0,5.98,5.8,5.745,5.745,0,0,0,4.531-1.932A1.445,1.445,0,0,0,81.88-2.576ZM90.068-8.6a2.556,2.556,0,0,1,2.645,1.886h-5.4A2.657,2.657,0,0,1,90.068-8.6Zm4.6,7.061a1.492,1.492,0,0,0,.322-.92,1.286,1.286,0,0,0-1.38-1.357,1.463,1.463,0,0,0-1.035.437,3.241,3.241,0,0,1-2.392.943,2.769,2.769,0,0,1-2.875-2.116h6.785A1.527,1.527,0,0,0,95.7-6.187v-.184c0-2.645-2.461-4.945-5.635-4.945a5.6,5.6,0,0,0-5.98,5.8c0,3.45,2.438,5.8,6.1,5.8A5.7,5.7,0,0,0,94.668-1.541Z" transform="translate(960.255 200)" fill="#ffcbde"/>
    <g id="マスクグループ_1110945" data-name="マスクグループ 1110945" transform="translate(849 26)" clip-path="url(#clip-path-2)">
      <g id="グループ_1119751" data-name="グループ 1119751" transform="translate(98.948 116.234)">
        <g id="グループ_1119750" data-name="グループ 1119750" transform="translate(0 0)" clip-path="url(#clip-path-3)">
          <path id="パス_1158545" data-name="パス 1158545" d="M21.236,2.957,17.625.248A1.247,1.247,0,0,0,15.882.5L1.266,19.93a1.337,1.337,0,0,0-.253.58l-1,5.773a.773.773,0,0,0,.3.753.777.777,0,0,0,.808.077L6.381,24.54l0,0a1.342,1.342,0,0,0,.48-.4L21.485,4.7a1.251,1.251,0,0,0-.249-1.745" transform="translate(0 0)" fill="#faacc8"/>
          <path id="パス_1158546" data-name="パス 1158546" d="M23.06,24.111H7.675a.95.95,0,1,1,0-1.9H23.06a.95.95,0,1,1,0,1.9" transform="translate(1.095 3.616)" fill="#faacc8"/>
        </g>
      </g>
    </g>
  </g>
</svg>
