<svg xmlns="http://www.w3.org/2000/svg" width="30" height="30" viewBox="0 0 30 30">
  <g id="グループ_1110293" data-name="グループ 1110293" transform="translate(-283 -2670)">
    <rect id="長方形_418840" data-name="長方形 418840" width="30" height="30" transform="translate(313 2670) rotate(90)" fill="none"/>
    <path id="合体_4" data-name="合体 4" d="M.468,16.587a1.592,1.592,0,0,1-.462-1.135,1.575,1.575,0,0,1,.464-1.123L6.222,8.521.464,2.715a1.606,1.606,0,0,1,0-2.26,1.546,1.546,0,0,1,2.19,0L9.532,7.388A1.606,1.606,0,0,1,9.579,9.6l-.013.012-6.9,6.98a1.543,1.543,0,0,1-2.2,0Z" transform="translate(306.864 2682.723) rotate(90)" fill="#f888b3"/>
  </g>
</svg>
