<svg xmlns="http://www.w3.org/2000/svg" xmlns:xlink="http://www.w3.org/1999/xlink" width="28" height="28" viewBox="0 0 28 28">
  <defs>
    <clipPath id="clip-path">
      <rect id="長方形_428850" data-name="長方形 428850" width="28" height="28" transform="translate(1447 2725)" fill="#fff"/>
    </clipPath>
  </defs>
  <g id="マスクグループ_1110915" data-name="マスクグループ 1110915" transform="translate(-1447 -2725)" clip-path="url(#clip-path)">
    <g id="アートワーク_94" data-name="アートワーク 94" transform="translate(1461.455 2739.455)">
      <g id="グループ_1110926" data-name="グループ 1110926" transform="translate(-14 -14)">
        <rect id="長方形_428334" data-name="長方形 428334" width="28" height="28" transform="translate(-0.455 -0.455)" fill="none"/>
        <path id="パス_1149884" data-name="パス 1149884" d="M30.22,19.191A.783.783,0,1,0,29.2,20.38a1.3,1.3,0,0,1,.364,1.263,1.407,1.407,0,0,1-.628.756,9.379,9.379,0,0,0-3.668-4.455,11.379,11.379,0,0,0-4.845-1.735,14.23,14.23,0,0,0-6.808.841l-.031.012a.145.145,0,0,1-.16-.027,3.246,3.246,0,0,0-3.461-.708.536.536,0,0,0-.3.294.545.545,0,0,0,.008.424l.834,1.848a.246.246,0,0,1-.052.283,9.018,9.018,0,0,0-2.093,3.08.417.417,0,0,1-.339.259l-.895.1a.99.99,0,0,0-.883.986v4.346a.988.988,0,0,0,.9.988l1.344.122a.411.411,0,0,1,.321.205,9.334,9.334,0,0,0,2.909,3.191.366.366,0,0,1,.144.3V34.7a.931.931,0,0,0,.924.924H15.2a.93.93,0,0,0,.924-.924V34.33a12.8,12.8,0,0,0,4.916.014V34.7a.93.93,0,0,0,.924.924h2.408A.93.93,0,0,0,25.3,34.7V32.793a.37.37,0,0,1,.152-.308,8.8,8.8,0,0,0,4.009-7.2,8.03,8.03,0,0,0-.111-1.312,3.049,3.049,0,0,0,1.719-1.885A2.86,2.86,0,0,0,30.22,19.191Zm-18.658,4.74a1.31,1.31,0,1,1,1.31-1.31A1.31,1.31,0,0,1,11.562,23.931ZM23.495,20.1a.907.907,0,0,1-1.261.236,6.492,6.492,0,0,0-5.771-.4.907.907,0,1,1-.694-1.676,8.3,8.3,0,0,1,7.489.581A.907.907,0,0,1,23.495,20.1Z" transform="translate(-4.555 -11.741)" fill="#fbc9dd"/>
      </g>
    </g>
  </g>
</svg>
