<svg xmlns="http://www.w3.org/2000/svg" xmlns:xlink="http://www.w3.org/1999/xlink" width="28" height="28" viewBox="0 0 28 28">
  <defs>
    <clipPath id="clip-path">
      <rect id="長方形_428847" data-name="長方形 428847" width="28" height="28" transform="translate(1447 2560)" fill="#fff"/>
    </clipPath>
  </defs>
  <g id="マスクグループ_1110912" data-name="マスクグループ 1110912" transform="translate(-1447 -2560)" clip-path="url(#clip-path)">
    <g id="アートワーク_92" data-name="アートワーク 92" transform="translate(1461 2574)">
      <g id="グループ_1110900" data-name="グループ 1110900" transform="translate(-14 -14)">
        <rect id="長方形_428323" data-name="長方形 428323" width="28" height="28" fill="none"/>
        <g id="グループ_1109649" data-name="グループ 1109649" transform="translate(3.967 2.766)">
          <path id="パス_1146928" data-name="パス 1146928" d="M30.821,9.878H15.251a1.084,1.084,0,0,0-1.082,1.082V26.532a1.081,1.081,0,0,0,1.082,1.08h8.866L31.9,19.819V10.96a1.084,1.084,0,0,0-1.082-1.082m-3.563,7.364-4.541,4.542a1.054,1.054,0,0,1-.761.318,1.093,1.093,0,0,1-.772-.318l-2.37-2.372a1.083,1.083,0,1,1,1.532-1.53h0l1.608,1.609,3.781-3.781a1.069,1.069,0,0,1,1.511-.011l.011.011a1.081,1.081,0,0,1,0,1.529l0,0" transform="translate(-14.169 -9.878)" fill="#fbc9dd"/>
          <path id="パス_1146929" data-name="パス 1146929" d="M56.743,58.109,59.7,61.077l6.6-6.61L63.34,51.5Z" transform="translate(-44.822 -39.845)" fill="#fbc9dd"/>
          <path id="パス_1146930" data-name="パス 1146930" d="M88.358,44.822l-2.2-2.2a.544.544,0,0,0-.769,0h0l-1.327,1.327,2.968,2.967,1.326-1.327a.544.544,0,0,0,0-.769h0" transform="translate(-64.493 -33.341)" fill="#fbc9dd"/>
          <path id="パス_1146931" data-name="パス 1146931" d="M48.6,79.709a.64.64,0,0,0-.182.375l-.287,2.345a.64.64,0,0,0,.558.713.621.621,0,0,0,.155,0l2.346-.287a.639.639,0,0,0,.375-.183l.893-.893-2.967-2.967Z" transform="translate(-38.621 -59.51)" fill="#fbc9dd"/>
        </g>
      </g>
    </g>
  </g>
</svg>
