<svg xmlns="http://www.w3.org/2000/svg" xmlns:xlink="http://www.w3.org/1999/xlink" width="36" height="46" viewBox="0 0 36 46">
  <defs>
    <clipPath id="clip-path">
      <rect id="長方形_418941" data-name="長方形 418941" width="36" height="46" transform="translate(217 3)" fill="#fff" stroke="#707070" stroke-width="1"/>
    </clipPath>
  </defs>
  <g id="マスクグループ_892178" data-name="マスクグループ 892178" transform="translate(-217 -3)" clip-path="url(#clip-path)">
    <g id="グループ_907483" data-name="グループ 907483" transform="translate(215.652 -4.094)">
      <g id="アートワーク_86" data-name="アートワーク 86" transform="translate(26.221 26.591) rotate(149)">
        <g id="グループ_1110546" data-name="グループ 1110546" transform="translate(-18.5 -20.503)">
          <g id="グループ_1110538" data-name="グループ 1110538" transform="translate(29.193 8.71)">
            <path id="手" d="M678.781,563.8a3.75,3.75,0,1,0,.743-4.829" transform="translate(-678.344 -557.633)" fill="#c79280"/>
            <path id="パス_1149432" data-name="パス 1149432" d="M672.4,548.069a4.187,4.187,0,0,0-2.725,1.008.437.437,0,0,0,.569.662,3.313,3.313,0,1,1-.657,4.267.437.437,0,0,0-.741.462,4.187,4.187,0,1,0,3.554-6.4Z" transform="translate(-668.779 -548.069)" fill="#231815"/>
          </g>
          <g id="グループ_1110539" data-name="グループ 1110539" transform="translate(4.548 0)">
            <path id="肉体" d="M140.6,372.887q-.186,2.256-.476,5.011a27.991,27.991,0,0,1-1.176,5.561H118.976a2.909,2.909,0,0,1-2.945-2.563L114.3,363.134a3.555,3.555,0,0,1-.112-.888q0-.1.006-.2l-.006-.061h.01a3.381,3.381,0,0,1,3.392-3.442,3.933,3.933,0,0,1,3.183,1.584,4.932,4.932,0,0,1,3.663-1.584,3.933,3.933,0,0,1,3.183,1.584,3.933,3.933,0,0,1,3.183-1.584,4.835,4.835,0,0,1,3.62,1.584,3.933,3.933,0,0,1,3.183-1.584,3.418,3.418,0,0,1,3.436,3.442h.01s.024,1.8-.095,5.671C140.889,369.74,140.6,372.887,140.6,372.887Z" transform="translate(-113.748 -358.102)" fill="#c79280"/>
            <path id="パス_1149433" data-name="パス 1149433" d="M128.038,348.539a4.411,4.411,0,0,0-3.192,1.353,5.58,5.58,0,0,0-3.61-1.353,4.411,4.411,0,0,0-3.183,1.343,4.411,4.411,0,0,0-3.183-1.343,5.764,5.764,0,0,0-3.652,1.355,4.411,4.411,0,0,0-3.194-1.355,3.614,3.614,0,0,0-2.732,1.14,4.366,4.366,0,0,0-1.087,2.612.436.436,0,0,0-.017.17l0,.028c0,.066,0,.131,0,.194a4,4,0,0,0,.118.963l1.73,17.729a3.209,3.209,0,0,0,1.1,2.113,3.468,3.468,0,0,0,2.279.844h19.977a.436.436,0,0,0,.413-.294,28.162,28.162,0,0,0,1.2-5.657c.184-1.73.344-3.419.476-5.02.008-.091.287-3.2.35-5.259.118-3.836.1-5.672.1-5.69a.438.438,0,0,0-.019-.122A3.834,3.834,0,0,0,128.038,348.539ZM124.855,351a.437.437,0,0,0,.352-.178,3.508,3.508,0,0,1,2.831-1.406,2.98,2.98,0,0,1,3,3.038.435.435,0,0,0,.01.064c0,.411.007,2.222-.1,5.561-.063,2.051-.344,5.178-.347,5.209v0c-.131,1.594-.291,3.276-.475,5a28.505,28.505,0,0,1-1.06,5.17H109.412a2.462,2.462,0,0,1-2.511-2.169l-1.733-17.762a.447.447,0,0,0-.012-.067,3.128,3.128,0,0,1-.1-.779c0-.058,0-.118.005-.179,0-.009,0-.017,0-.026s0-.018,0-.027a2.95,2.95,0,0,1,2.957-3.038,3.508,3.508,0,0,1,2.831,1.406.437.437,0,0,0,.7,0,4.482,4.482,0,0,1,3.311-1.406,3.508,3.508,0,0,1,2.831,1.406.437.437,0,0,0,.7,0,3.508,3.508,0,0,1,2.831-1.406,4.422,4.422,0,0,1,3.267,1.406A.437.437,0,0,0,124.855,351Z" transform="translate(-104.185 -348.539)" fill="#231815"/>
          </g>
          <g id="耳" transform="translate(0 13.936)">
            <g id="グループ_1110540" data-name="グループ 1110540">
              <path id="パス_1149434" data-name="パス 1149434" d="M22,26.561a20.013,20.013,0,0,1-6.163.8A27.76,27.76,0,0,1,10,26.744a24.439,24.439,0,0,1,5.138-6.781,8.934,8.934,0,0,1-.282-4.309c.289-1.212,1.635-1.32,2.264-2.305.4-.627-.429-3.345,1.417-3.348,1.5,0,.616,2.636,2.034,3.266,1.607.715,2.275-.386,3.569.785s-.185,3.2,2.1,4.006,10.46-.621,12.9,0c2.223.566,3.486,3.821,2.3,6.039a6.8,6.8,0,0,1-2.852,2.958,20.27,20.27,0,0,1-2.4,4.437c-1.6,2.219-4.437,4.992-5.485,4.684s-1.787-8.443-1.787-8.443A14.263,14.263,0,0,1,22,26.561Z" transform="translate(-9.563 -9.563)" fill="#fff"/>
              <path id="パス_1149435" data-name="パス 1149435" d="M8.977,0h0A1.507,1.507,0,0,0,7.453,1.051a5.1,5.1,0,0,0-.2,1.66,3.228,3.228,0,0,1-.067.84,2.93,2.93,0,0,1-.933.806A2.69,2.69,0,0,0,4.868,5.989a9.081,9.081,0,0,0,.208,4.272,24.756,24.756,0,0,0-5.033,6.73.437.437,0,0,0,.289.614,27.955,27.955,0,0,0,5.943.631,21.2,21.2,0,0,0,6.144-.772,15.048,15.048,0,0,0,6.53,1.178c.072.712.234,2.2.462,3.7a28.243,28.243,0,0,0,.575,2.935c.3,1.122.6,1.63,1.02,1.755a1.866,1.866,0,0,0,1.414-.33,9.467,9.467,0,0,0,1.535-1.158,22.362,22.362,0,0,0,3.013-3.359,20.86,20.86,0,0,0,2.4-4.38,7.49,7.49,0,0,0,2.889-3.065,4.891,4.891,0,0,0,.054-4.244A4.083,4.083,0,0,0,29.68,8.07a26.505,26.505,0,0,0-6.262.029c-2.573.175-5.49.372-6.6-.018-1.044-.367-1.091-.981-1.156-1.831a2.82,2.82,0,0,0-.791-2.086A2.454,2.454,0,0,0,12.71,3.5a2.728,2.728,0,0,1-1.525-.2c-.442-.2-.572-.711-.719-1.473S10.112,0,8.977,0ZM1.09,16.872a24.006,24.006,0,0,1,4.774-6.146.436.436,0,0,0,.124-.467,8.548,8.548,0,0,1-.271-4.067c.125-.523.517-.779,1.014-1.1A3.692,3.692,0,0,0,7.924,4.02a2.561,2.561,0,0,0,.2-1.3c.012-1.3.132-1.844.847-1.846h0c.341,0,.453.2.632,1.123A2.544,2.544,0,0,0,10.83,4.1a3.586,3.586,0,0,0,1.953.271,1.6,1.6,0,0,1,1.5.439,2.052,2.052,0,0,1,.506,1.506,2.474,2.474,0,0,0,1.737,2.588c1.28.45,4.034.263,6.95.065a27.162,27.162,0,0,1,5.987-.054,3.223,3.223,0,0,1,2.045,1.93,4.07,4.07,0,0,1-.024,3.48,6.473,6.473,0,0,1-2.646,2.766.44.44,0,0,0-.232.25,20.023,20.023,0,0,1-2.347,4.33,21.441,21.441,0,0,1-2.888,3.22c-1.217,1.091-1.88,1.331-2.091,1.306-.1-.1-.523-.73-1.037-4.193-.292-1.963-.465-3.857-.467-3.876a.436.436,0,0,0-.493-.393,13.978,13.978,0,0,1-6.67-1.139.436.436,0,0,0-.318-.012h0a19.735,19.735,0,0,1-5.881.777H6.281A29.14,29.14,0,0,1,1.09,16.872ZM21.3,26.212Z" transform="translate(0 0)" fill="#231815"/>
            </g>
            <path id="パス_1149436" data-name="パス 1149436" d="M66.185,263.31a16.578,16.578,0,0,0,6.286-.616,11.242,11.242,0,0,0,2.3-1.014s-1.575-.812-3.04-1.726c-.968-.6-1.746-1.215-1.746-1.215s-1.64,1.673-2.442,2.659A18.5,18.5,0,0,0,66.185,263.31Z" transform="translate(-63.296 -247.607)" fill="#ffb5bd"/>
            <path id="パス_1149437" data-name="パス 1149437" d="M536.53,79.511s1.818-5.6,2.022-5.793c.363-.065,1.2-.262,2.462-.539C540.874,73.8,538.133,78.525,536.53,79.511Z" transform="translate(-513.11 -55.634)" fill="#ffb5bd"/>
          </g>
          <g id="さくらんぼ" transform="translate(11.008 27.381)">
            <g id="グループ_1110541" data-name="グループ 1110541" transform="translate(0.457)">
              <ellipse id="楕円形_245704" data-name="楕円形 245704" cx="3.882" cy="3.882" rx="3.882" ry="3.882" transform="translate(0.437 0.437)" fill="#ffb5bd"/>
              <path id="パス_1149438" data-name="パス 1149438" d="M266.957,114.237a4.319,4.319,0,1,0,4.2,5.336h0a4.321,4.321,0,0,0-4.2-5.336Zm0,7.766a3.446,3.446,0,1,1,3.349-2.635h0A3.452,3.452,0,0,1,266.956,122Z" transform="translate(-262.637 -114.237)" fill="#231815"/>
            </g>
            <g id="グループ_1110542" data-name="グループ 1110542" transform="translate(0 5.544)">
              <path id="パス_1149439" data-name="パス 1149439" d="M262.167,89.462a10.279,10.279,0,0,0,3.61-3.911" transform="translate(-261.731 -85.114)" fill="#fff"/>
              <path id="パス_1149440" data-name="パス 1149440" d="M256.22,75.553a.436.436,0,0,0-.387.233A9.945,9.945,0,0,1,252.4,79.52a.437.437,0,0,0,.428.761,10.645,10.645,0,0,0,3.782-4.088.437.437,0,0,0-.386-.64Z" transform="translate(-252.174 -75.553)" fill="#231815"/>
            </g>
            <path id="パス_1149441" data-name="パス 1149441" d="M305.625,149.426a2.788,2.788,0,0,0-.942.159.262.262,0,0,0,.191.488,2.251,2.251,0,0,1,1.559.041,1.494,1.494,0,0,1,.861,1.051.262.262,0,0,0,.517-.081,2.021,2.021,0,0,0-1.166-1.448A2.507,2.507,0,0,0,305.625,149.426Z" transform="translate(-302.232 -144.282)"/>
          </g>
          <g id="グループ_1110543" data-name="グループ 1110543" transform="translate(9.348 5.988)">
            <path id="手-2" data-name="手" d="M229.1,632.253a3.75,3.75,0,1,0-4.534-1.82" transform="translate(-223.702 -624.514)" fill="#c79280"/>
            <path id="パス_1149442" data-name="パス 1149442" d="M218.336,614.949a4.188,4.188,0,0,0-3.706,6.12.437.437,0,1,0,.774-.4,3.313,3.313,0,1,1,4.006,1.609.437.437,0,0,0,.282.826,4.187,4.187,0,0,0-.4-8.041A4.216,4.216,0,0,0,218.336,614.949Z" transform="translate(-214.157 -614.949)" fill="#231815"/>
          </g>
          <g id="表情_ω_通常" data-name="表情　●ω●通常" transform="translate(17.191 15.474)">
            <ellipse id="楕円形_245705" data-name="楕円形 245705" cx="1.248" cy="1.248" rx="1.248" ry="1.248" transform="translate(1.748 1.412)" fill="#231815"/>
            <ellipse id="楕円形_245706" data-name="楕円形 245706" cx="1.248" cy="1.248" rx="1.248" ry="1.248" transform="translate(7.721 1.535)" fill="#231815"/>
            <path id="パス_1149443" data-name="パス 1149443" d="M489.4,552.074a1.107,1.107,0,0,0-.957.644,2.049,2.049,0,0,0-1.288-.633h0a.885.885,0,0,0-.749.314.96.96,0,0,0-.13.781.262.262,0,0,0,.506-.135.448.448,0,0,1,.041-.329.436.436,0,0,1,.333-.107h0c.463,0,1.006.543,1.176.752a.262.262,0,0,0,.458-.1c.007-.029.188-.741.712-.65a.434.434,0,0,1,.333.486.262.262,0,0,0,.522.039.946.946,0,0,0-.766-1.041A1.115,1.115,0,0,0,489.4,552.074Z" transform="translate(-482.21 -552.024)" fill="#231815"/>
            <g id="グループ_1110544" data-name="グループ 1110544">
              <path id="パス_1149444" data-name="パス 1149444" d="M394.048,570.051a.221.221,0,0,0-.038.438l1.181.208a.221.221,0,0,0,.076-.435l-1.181-.208A.223.223,0,0,0,394.048,570.051Z" transform="translate(-393.828 -570.051)" fill="#231815"/>
              <path id="パス_1149445" data-name="パス 1149445" d="M395.23,549.752a.222.222,0,0,0-.038,0l-1.181.208a.221.221,0,0,0,.076.435l1.181-.208a.221.221,0,0,0-.038-.438Z" transform="translate(-393.828 -548.866)" fill="#231815"/>
            </g>
            <g id="グループ_1110545" data-name="グループ 1110545" transform="translate(9.942)">
              <path id="パス_1149446" data-name="パス 1149446" d="M622.991,570.052a.223.223,0,0,0-.038,0l-1.181.208a.221.221,0,0,0,.076.435l1.181-.208a.221.221,0,0,0-.038-.438Z" transform="translate(-621.589 -570.052)" fill="#231815"/>
              <path id="パス_1149447" data-name="パス 1149447" d="M621.809,549.752a.221.221,0,0,0-.038.438l1.181.208a.221.221,0,1,0,.076-.435l-1.181-.208A.223.223,0,0,0,621.809,549.752Z" transform="translate(-621.589 -548.866)" fill="#231815"/>
            </g>
          </g>
        </g>
      </g>
      <g id="グループ_907482" data-name="グループ 907482" transform="translate(1.96 23.15) rotate(2)">
        <circle id="楕円形_245462" data-name="楕円形 245462" cx="7.625" cy="7.625" r="7.625" transform="translate(0.434 1.046)" fill="#fff"/>
        <g id="アートワーク_2" data-name="アートワーク 2" transform="translate(0 0.75) rotate(-2)">
          <g id="グループ_352631" data-name="グループ 352631" transform="translate(0 0)">
            <g id="グループ_352630" data-name="グループ 352630">
              <g id="グループ_352629" data-name="グループ 352629">
                <path id="パス_176515" data-name="パス 176515" d="M16.818,14.373a.825.825,0,0,0-1-.131l-1.274-1.274a8.079,8.079,0,1,0-1.584,1.584l1.274,1.274a.825.825,0,0,0,.131,1l4.161,4.161a1.731,1.731,0,0,0,2.448-2.448ZM3.655,12.527a6.278,6.278,0,1,1,4.434,1.834A6.278,6.278,0,0,1,3.655,12.527Z" fill="#ff92be" stroke="#231815" stroke-width="0.7"/>
              </g>
            </g>
          </g>
        </g>
      </g>
    </g>
  </g>
</svg>
