<svg xmlns="http://www.w3.org/2000/svg" xmlns:xlink="http://www.w3.org/1999/xlink" width="50" height="58" viewBox="0 0 50 58">
  <defs>
    <clipPath id="clip-path">
      <rect id="長方形_432423" data-name="長方形 432423" width="50" height="58" transform="translate(0 0.182)" fill="#fff" stroke="#707070" stroke-width="1"/>
    </clipPath>
    <clipPath id="clip-path-2">
      <rect id="長方形_432422" data-name="長方形 432422" width="45.556" height="53.558" transform="translate(216 3)" fill="#fff" stroke="#707070" stroke-width="1"/>
    </clipPath>
  </defs>
  <g id="マスクグループ_1111055" data-name="マスクグループ 1111055" transform="translate(0 -0.182)" clip-path="url(#clip-path)">
    <g id="マスクグループ_1111054" data-name="マスクグループ 1111054" transform="matrix(0.995, -0.105, 0.105, 0.995, -214.661, 24.356)" clip-path="url(#clip-path-2)">
      <g id="グループ_1125509" data-name="グループ 1125509" transform="translate(215.087 -6.857)">
        <g id="アートワーク_86" data-name="アートワーク 86" transform="translate(32.696 33.545) rotate(149)">
          <g id="グループ_1125504" data-name="グループ 1125504" transform="translate(-22.897 -25.376)">
            <g id="グループ_1125496" data-name="グループ 1125496" transform="translate(36.131 10.78)">
              <path id="手" d="M0,7.095A4.642,4.642,0,1,0,.919,1.118" transform="translate(0.54 0.54)" fill="#c79280"/>
              <path id="パス_1167441" data-name="パス 1167441" d="M4.481,0A5.181,5.181,0,0,0,1.108,1.248a.54.54,0,0,0,.7.82A4.1,4.1,0,1,1,1,7.349a.54.54,0,0,0-.917.572A5.182,5.182,0,1,0,4.481,0Z" transform="translate(0 0)" fill="#231815"/>
            </g>
            <g id="グループ_1125497" data-name="グループ 1125497" transform="translate(5.629 0)">
              <path id="肉体" d="M32.7,17.758q-.23,2.792-.589,6.2a34.644,34.644,0,0,1-1.456,6.882H5.929a3.6,3.6,0,0,1-3.646-3.172L.139,5.688A4.4,4.4,0,0,1,0,4.588q0-.127.007-.252L0,4.26H.012C.188,1.879,1.672,0,4.211,0A4.868,4.868,0,0,1,8.15,1.961,6.1,6.1,0,0,1,12.684,0a4.868,4.868,0,0,1,3.94,1.961A4.868,4.868,0,0,1,20.563,0a5.984,5.984,0,0,1,4.48,1.961A4.868,4.868,0,0,1,28.983,0c2.538,0,4.077,1.879,4.252,4.26h.012s.03,2.228-.117,7.019C33.05,13.863,32.7,17.758,32.7,17.758Z" transform="translate(0.54 0.54)" fill="#c79280"/>
              <path id="パス_1167442" data-name="パス 1167442" d="M29.523,0a5.46,5.46,0,0,0-3.951,1.675A6.906,6.906,0,0,0,21.1,0a5.46,5.46,0,0,0-3.94,1.663A5.46,5.46,0,0,0,13.224,0,7.134,7.134,0,0,0,8.7,1.677,5.459,5.459,0,0,0,4.751,0,4.474,4.474,0,0,0,1.369,1.411,5.4,5.4,0,0,0,.024,4.643.54.54,0,0,0,0,4.853l0,.035C0,4.969,0,5.05,0,5.128A4.954,4.954,0,0,0,.146,6.321L2.286,28.263a3.972,3.972,0,0,0,1.363,2.615A4.292,4.292,0,0,0,6.47,31.923H31.195a.54.54,0,0,0,.511-.364,34.857,34.857,0,0,0,1.483-7c.228-2.142.426-4.232.59-6.213.01-.112.355-3.963.433-6.509.146-4.747.118-7.02.118-7.043a.543.543,0,0,0-.023-.151A4.745,4.745,0,0,0,29.523,0Zm-3.94,3.042a.54.54,0,0,0,.436-.221,4.342,4.342,0,0,1,3.5-1.74,3.688,3.688,0,0,1,3.714,3.76.537.537,0,0,0,.012.08c0,.509.009,2.75-.118,6.882-.078,2.538-.426,6.408-.429,6.447v0c-.163,1.973-.36,4.055-.587,6.189a35.278,35.278,0,0,1-1.312,6.4H6.47a3.047,3.047,0,0,1-3.108-2.684L1.217,6.175A.554.554,0,0,0,1.2,6.093a3.871,3.871,0,0,1-.122-.965c0-.072,0-.146.006-.222,0-.011,0-.022,0-.032s0-.022,0-.034c.134-1.818,1.166-3.76,3.66-3.76a4.342,4.342,0,0,1,3.5,1.74.54.54,0,0,0,.872,0,5.547,5.547,0,0,1,4.1-1.74,4.342,4.342,0,0,1,3.5,1.74.54.54,0,0,0,.872,0,4.342,4.342,0,0,1,3.5-1.74,5.473,5.473,0,0,1,4.044,1.74A.54.54,0,0,0,25.583,3.042Z" transform="translate(0 0)" fill="#231815"/>
            </g>
            <g id="耳" transform="translate(0 17.248)">
              <g id="グループ_1125498" data-name="グループ 1125498" transform="translate(0 0)">
                <path id="パス_1167443" data-name="パス 1167443" d="M14.858,20.5a24.769,24.769,0,0,1-7.627.992A34.357,34.357,0,0,1,0,20.724a30.247,30.247,0,0,1,6.359-8.393A11.057,11.057,0,0,1,6.01,7c.357-1.5,2.023-1.634,2.8-2.853C9.308,3.369,8.282,0,10.567,0c1.856,0,.762,3.262,2.517,4.042,1.989.884,2.816-.478,4.418.972s-.229,3.966,2.593,4.958,12.946-.768,15.966,0c2.752.7,4.314,4.729,2.843,7.475a8.422,8.422,0,0,1-3.53,3.661A25.088,25.088,0,0,1,32.4,26.6c-1.983,2.746-5.492,6.178-6.788,5.8S23.4,21.946,23.4,21.946A17.653,17.653,0,0,1,14.858,20.5Z" transform="translate(0.54 0.54)" fill="#fff"/>
                <path id="パス_1167444" data-name="パス 1167444" d="M11.111,0h0A1.865,1.865,0,0,0,9.224,1.3a6.308,6.308,0,0,0-.245,2.055A4,4,0,0,1,8.9,4.4a3.627,3.627,0,0,1-1.155,1A3.33,3.33,0,0,0,6.025,7.412,11.239,11.239,0,0,0,6.282,12.7a30.639,30.639,0,0,0-6.229,8.33.54.54,0,0,0,.358.759,34.6,34.6,0,0,0,7.356.78,26.24,26.24,0,0,0,7.6-.955,18.625,18.625,0,0,0,8.083,1.457c.089.882.289,2.727.571,4.578a34.956,34.956,0,0,0,.712,3.633c.373,1.389.739,2.018,1.262,2.172a2.309,2.309,0,0,0,1.75-.408,11.717,11.717,0,0,0,1.9-1.433,27.677,27.677,0,0,0,3.729-4.157,25.818,25.818,0,0,0,2.968-5.421,9.27,9.27,0,0,0,3.575-3.793,6.054,6.054,0,0,0,.067-5.252,5.053,5.053,0,0,0-3.253-3c-1.52-.387-4.546-.181-7.75.036-3.185.216-6.8.461-8.17-.022-1.292-.454-1.35-1.214-1.431-2.266A3.491,3.491,0,0,0,18.4,5.154a3.037,3.037,0,0,0-2.674-.819,3.376,3.376,0,0,1-1.887-.246c-.547-.243-.707-.88-.89-1.823S12.515,0,11.111,0ZM1.35,20.882a29.711,29.711,0,0,1,5.908-7.607.54.54,0,0,0,.153-.579,10.58,10.58,0,0,1-.335-5.034c.154-.648.64-.964,1.255-1.364A4.57,4.57,0,0,0,9.808,4.975a3.17,3.17,0,0,0,.252-1.61c.015-1.61.163-2.283,1.049-2.285h0c.422,0,.561.248.782,1.39A3.148,3.148,0,0,0,13.4,5.076a4.439,4.439,0,0,0,2.417.335,1.986,1.986,0,0,1,1.858.543,2.54,2.54,0,0,1,.626,1.863c.086,1.121.193,2.515,2.15,3.2,1.585.557,4.993.325,8.6.081,2.978-.2,6.058-.411,7.41-.067A3.989,3.989,0,0,1,39,13.425a5.037,5.037,0,0,1-.03,4.307,8.011,8.011,0,0,1-3.275,3.423.545.545,0,0,0-.287.309,24.782,24.782,0,0,1-2.9,5.359,26.537,26.537,0,0,1-3.574,3.985c-1.506,1.35-2.327,1.648-2.588,1.616-.118-.125-.647-.9-1.284-5.189-.361-2.43-.576-4.774-.578-4.8a.54.54,0,0,0-.61-.487,17.3,17.3,0,0,1-8.255-1.41.54.54,0,0,0-.393-.014h0a24.425,24.425,0,0,1-7.279.962H7.773A36.066,36.066,0,0,1,1.35,20.882Zm25.009,11.56Z" transform="translate(0 0)" fill="#231815"/>
              </g>
              <path id="パス_1167445" data-name="パス 1167445" d="M0,5.656a20.518,20.518,0,0,0,7.78-.763,13.914,13.914,0,0,0,2.844-1.254S8.674,2.633,6.861,1.5C5.663.757,4.7,0,4.7,0S2.67,2.071,1.678,3.292A22.9,22.9,0,0,0,0,5.656Z" transform="translate(3.576 13.78)" fill="#ffb5bd"/>
              <path id="パス_1167446" data-name="パス 1167446" d="M0,7.836S2.25.909,2.5.667C2.951.586,3.985.343,5.549,0,5.376.763,1.984,6.616,0,7.836Z" transform="translate(28.986 21.715)" fill="#ffb5bd"/>
            </g>
            <g id="さくらんぼ" transform="translate(13.624 33.889)">
              <g id="グループ_1125499" data-name="グループ 1125499" transform="translate(0.565 0)">
                <ellipse id="楕円形_249798" data-name="楕円形 249798" cx="4.805" cy="4.805" rx="4.805" ry="4.805" transform="translate(0.541 0.541)" fill="#ffb5bd"/>
                <path id="パス_1167447" data-name="パス 1167447" d="M5.346,0a5.346,5.346,0,1,0,5.2,6.6h0A5.348,5.348,0,0,0,5.346,0Zm0,9.611A4.265,4.265,0,1,1,9.491,6.35h0A4.273,4.273,0,0,1,5.346,9.611Z" transform="translate(0 0)" fill="#231815"/>
              </g>
              <g id="グループ_1125500" data-name="グループ 1125500" transform="translate(0 6.861)">
                <path id="パス_1167448" data-name="パス 1167448" d="M0,4.84A12.722,12.722,0,0,0,4.468,0" transform="translate(0.54 0.54)" fill="#fff"/>
                <path id="パス_1167449" data-name="パス 1167449" d="M5.008,0A.54.54,0,0,0,4.53.289,12.308,12.308,0,0,1,.274,4.91a.54.54,0,0,0,.53.942A13.175,13.175,0,0,0,5.486.792.54.54,0,0,0,5.008,0Z" transform="translate(0 0)" fill="#231815"/>
              </g>
              <path id="パス_1167450" data-name="パス 1167450" d="M1.372,0A3.451,3.451,0,0,0,.206.2.324.324,0,0,0,.442.8,2.786,2.786,0,0,1,2.371.852a1.849,1.849,0,0,1,1.066,1.3.324.324,0,0,0,.64-.1A2.5,2.5,0,0,0,2.634.259,3.1,3.1,0,0,0,1.372,0Z" transform="translate(2.828 6.367)"/>
            </g>
            <g id="グループ_1125501" data-name="グループ 1125501" transform="translate(11.57 7.411)">
              <path id="手-2" data-name="手" d="M6.137,9.037A4.642,4.642,0,1,0,.525,6.784" transform="translate(0.539 0.541)" fill="#c79280"/>
              <path id="パス_1167451" data-name="パス 1167451" d="M5.172,0A5.183,5.183,0,0,0,.585,7.575a.54.54,0,1,0,.958-.5A4.1,4.1,0,1,1,6.5,9.067.54.54,0,0,0,6.85,10.09,5.182,5.182,0,0,0,6.359.137,5.218,5.218,0,0,0,5.172,0Z" transform="translate(0 0)" fill="#231815"/>
            </g>
            <g id="表情_ω_通常" data-name="表情　●ω●通常" transform="translate(21.277 19.152)">
              <ellipse id="楕円形_249799" data-name="楕円形 249799" cx="1.544" cy="1.545" rx="1.544" ry="1.545" transform="translate(2.164 1.747)" fill="#231815"/>
              <ellipse id="楕円形_249800" data-name="楕円形 249800" cx="1.544" cy="1.545" rx="1.544" ry="1.545" transform="translate(9.556 1.9)" fill="#231815"/>
              <path id="パス_1167452" data-name="パス 1167452" d="M3.909,0A1.37,1.37,0,0,0,2.724.8,2.536,2.536,0,0,0,1.13.014h0A1.1,1.1,0,0,0,.2.4a1.189,1.189,0,0,0-.161.967A.324.324,0,0,0,.666,1.2.554.554,0,0,1,.716.795.54.54,0,0,1,1.128.662h0c.573,0,1.245.672,1.456.931a.324.324,0,0,0,.567-.129c.009-.036.232-.917.882-.8a.538.538,0,0,1,.412.6.324.324,0,0,0,.647.048A1.171,1.171,0,0,0,4.145.021,1.379,1.379,0,0,0,3.909,0Z" transform="translate(4.993 0.061)" fill="#231815"/>
              <g id="グループ_1125502" data-name="グループ 1125502" transform="translate(0 0)">
                <path id="パス_1167453" data-name="パス 1167453" d="M.273,0A.273.273,0,0,0,.226.542L1.688.8A.273.273,0,0,0,1.782.261L.32,0A.275.275,0,0,0,.273,0Z" transform="translate(0 0)" fill="#231815"/>
                <path id="パス_1167454" data-name="パス 1167454" d="M1.735,0a.273.273,0,0,0-.048,0L.226.261A.273.273,0,1,0,.32.8L1.782.542A.273.273,0,0,0,1.735,0Z" transform="translate(0 1.097)" fill="#231815"/>
              </g>
              <g id="グループ_1125503" data-name="グループ 1125503" transform="translate(12.305 0)">
                <path id="パス_1167455" data-name="パス 1167455" d="M1.735,0a.279.279,0,0,0-.048,0L.226.261A.273.273,0,1,0,.32.8L1.782.542A.273.273,0,0,0,1.735,0Z" transform="translate(0)" fill="#231815"/>
                <path id="パス_1167456" data-name="パス 1167456" d="M.273,0A.273.273,0,0,0,.226.542L1.688.8A.273.273,0,1,0,1.782.261L.32,0A.279.279,0,0,0,.273,0Z" transform="translate(0 1.097)" fill="#231815"/>
              </g>
            </g>
          </g>
        </g>
        <g id="グループ_1125508" data-name="グループ 1125508" transform="matrix(0.996, -0.087, 0.087, 0.996, 0.719, 29.266)">
          <circle id="楕円形_249801" data-name="楕円形 249801" cx="9.437" cy="9.437" r="9.437" transform="translate(0.537 1.295)" fill="#fff"/>
          <g id="アートワーク_2" data-name="アートワーク 2" transform="translate(0 0.928) rotate(-2)">
            <g id="グループ_1125507" data-name="グループ 1125507" transform="translate(0 0)">
              <g id="グループ_1125506" data-name="グループ 1125506" transform="translate(0 0)">
                <g id="グループ_1125505" data-name="グループ 1125505">
                  <path id="パス_1167457" data-name="パス 1167457" d="M20.815,17.789a1.022,1.022,0,0,0-1.232-.162L18.007,16.05a10,10,0,1,0-1.961,1.961l1.577,1.577a1.022,1.022,0,0,0,.162,1.232l5.15,5.15a2.143,2.143,0,1,0,3.03-3.03ZM4.524,15.5a7.77,7.77,0,1,1,5.488,2.27A7.77,7.77,0,0,1,4.524,15.5Z" fill="#ff92be" stroke="#231815" stroke-width="1"/>
                </g>
              </g>
            </g>
          </g>
        </g>
      </g>
    </g>
  </g>
</svg>
