<svg xmlns="http://www.w3.org/2000/svg" xmlns:xlink="http://www.w3.org/1999/xlink" width="240" height="40" viewBox="0 0 240 40">
  <defs>
    <clipPath id="clip-path">
      <rect id="長方形_432213" data-name="長方形 432213" width="240" height="40" transform="translate(520 312)" fill="#fff" stroke="#707070" stroke-width="1"/>
    </clipPath>
  </defs>
  <g id="マスクグループ_1111037" data-name="マスクグループ 1111037" transform="translate(-520 -312)" clip-path="url(#clip-path)">
    <g id="エステワン_logo" transform="translate(640.04 331.012)">
      <g id="グループ_1125114" data-name="グループ 1125114" transform="translate(-120.04 -36.012)">
        <rect id="長方形_432210" data-name="長方形 432210" width="240.08" height="72.024" fill="none"/>
        <rect id="長方形_432211" data-name="長方形 432211" width="28.033" height="8.166" transform="translate(95.883 21.344)" fill="#444"/>
        <path id="パス_1166808" data-name="パス 1166808" d="M47.545,78.73V61.508H58.13V53.343H29.559v8.166h9.8V78.73H25.85v8.118H61.838V78.73Z" transform="translate(-15.507 -31.998)" fill="#444"/>
        <rect id="長方形_432212" data-name="長方形 432212" width="17.941" height="8.166" transform="translate(194.121 21.411)" fill="#ff6a9f"/>
        <path id="パス_1166809" data-name="パス 1166809" d="M533.475,73.87v5.883c0,9.476-3.995,11.33-10.895,11.33h-3.034v8.147h3.034c12.635,0,19.042-6.541,19.042-19.44V73.87Z" transform="translate(-311.659 -44.312)" fill="#ff6a9f"/>
        <path id="パス_1166810" data-name="パス 1166810" d="M160.08,64.977V53.343h-24.3V61.5h16.112v3.55c0,7.859-5.736,13.786-13.342,13.786h-6.159V86.95h6.159a21.176,21.176,0,0,0,16.705-7.872l8.089,9.272,6.265-5.237L159.237,71.227A23.238,23.238,0,0,0,160.08,64.977Z" transform="translate(-79.418 -31.999)" fill="#444"/>
        <path id="パス_1166811" data-name="パス 1166811" d="M229.436,82.741v8.166H245.3v2.568a2.913,2.913,0,0,1-2.91,2.91H237.01v8.166h5.376a11.075,11.075,0,0,0,11.076-11.075V90.907h8.256a4.158,4.158,0,0,1,3.706-3.453V82.741Z" transform="translate(-137.631 -49.634)" fill="#444"/>
        <g id="グループ_1125113" data-name="グループ 1125113" transform="translate(126.208 31.789)">
          <path id="パス_1166812" data-name="パス 1166812" d="M335.312,101.495q-2.552,3.439-5.1,6.881l-5.984-3.2c.488,1.7,2.006,6.781,3.142,10.538h16.008c1.009-3.776,2.361-8.893,2.8-10.614l-5.54,3.052Z" transform="translate(-320.7 -92.673)" fill="#ff8fc2"/>
          <path id="パス_1166813" data-name="パス 1166813" d="M380.008,99.928a1.971,1.971,0,1,0,1.971,1.971A1.971,1.971,0,0,0,380.008,99.928Z" transform="translate(-352.98 -91.733)" fill="#ff8fc2"/>
          <path id="パス_1166814" data-name="パス 1166814" d="M342.713,84.724l-.3,1.763a1,1,0,0,0,.227.982.952.952,0,0,0,1.054-.051l1.582-.832,1.583.832a1.41,1.41,0,0,0,.642.186.654.654,0,0,0,.37-.1.958.958,0,0,0,.269-1.012l-.3-1.763,1.281-1.248a.961.961,0,0,0,.378-.974.99.99,0,0,0-.868-.532l-1.77-.257h0l-.791-1.6c-.217-.441-.5-.662-.791-.662h0v0h0c-.287,0-.573.221-.791.662l-.791,1.6-1.77.257a1.466,1.466,0,0,0-.591.2.658.658,0,0,0-.286.356.983.983,0,0,0,.387.949Z" transform="translate(-330.775 -79.447)" fill="#ff8fc2"/>
          <path id="パス_1166815" data-name="パス 1166815" d="M317.387,99.928a1.971,1.971,0,1,0,1.971,1.971A1.971,1.971,0,0,0,317.387,99.928Z" transform="translate(-315.416 -91.733)" fill="#ff8fc2"/>
        </g>
        <path id="パス_1166816" data-name="パス 1166816" d="M384.618,53.51h-8.153l1.127,12.89h8.153l-.414-4.738H404.86v5.877c0,9.476-3.995,11.33-10.9,11.33h-3.034v8.147h3.034c12.635,0,19.042-6.541,19.042-19.44V53.51Z" transform="translate(-225.829 -32.099)" fill="#ff6a9f"/>
      </g>
    </g>
  </g>
</svg>
