<svg xmlns="http://www.w3.org/2000/svg" xmlns:xlink="http://www.w3.org/1999/xlink" width="280" height="50" viewBox="0 0 280 50">
  <defs>
    <clipPath id="clip-path">
      <rect id="長方形_432116" data-name="長方形 432116" width="280" height="50" transform="translate(105 744)" fill="#fff" stroke="#707070" stroke-width="1" opacity="0.83"/>
    </clipPath>
  </defs>
  <g id="マスクグループ_1111030" data-name="マスクグループ 1111030" transform="translate(-105 -744)" clip-path="url(#clip-path)">
    <g id="エステワン_logo_white" transform="translate(245 769.03)">
      <g id="グループ_1124798" data-name="グループ 1124798" transform="translate(-140 -42)">
        <rect id="長方形_432113" data-name="長方形 432113" width="280" height="84" fill="none"/>
        <rect id="長方形_432114" data-name="長方形 432114" width="32.694" height="9.523" transform="translate(111.826 24.893)" fill="#fff"/>
        <path id="パス_1166098" data-name="パス 1166098" d="M51.153,82.952V62.866H63.5V53.343H30.175v9.523H41.6V82.952H25.85V92.42H67.822V82.952Z" transform="translate(-13.787 -28.449)" fill="#fff"/>
        <rect id="長方形_432115" data-name="長方形 432115" width="20.924" height="9.523" transform="translate(226.399 24.971)" fill="#fff"/>
        <path id="パス_1166099" data-name="パス 1166099" d="M535.791,73.87v6.861c0,11.052-4.659,13.214-12.707,13.214h-3.538v9.5h3.538c14.736,0,22.208-7.628,22.208-22.673v-6.9Z" transform="translate(-277.092 -39.397)" fill="#fff"/>
        <path id="パス_1166100" data-name="パス 1166100" d="M164.684,66.911V53.343H136.345v9.508h18.791v4.14c0,9.166-6.69,16.079-15.561,16.079h-7.183v9.468h7.183a24.7,24.7,0,0,0,19.483-9.181l9.434,10.814,7.307-6.107L163.7,74.2A27.1,27.1,0,0,0,164.684,66.911Z" transform="translate(-70.609 -28.45)" fill="#fff"/>
        <path id="パス_1166101" data-name="パス 1166101" d="M229.436,82.741v9.524h18.5v3a3.4,3.4,0,0,1-3.394,3.394h-6.27v9.523h6.27A12.917,12.917,0,0,0,257.456,95.26v-3h9.628a4.85,4.85,0,0,1,4.323-4.027v-5.5Z" transform="translate(-122.366 -44.129)" fill="#fff"/>
        <g id="グループ_1124797" data-name="グループ 1124797" transform="translate(147.194 37.075)">
          <path id="パス_1166102" data-name="パス 1166102" d="M337.156,101.5q-2.976,4.011-5.952,8.025l-6.978-3.728c.569,1.985,2.339,7.908,3.665,12.29h18.67c1.177-4.4,2.754-10.371,3.264-12.379l-6.461,3.56Z" transform="translate(-320.114 -91.206)" fill="#fff"/>
          <path id="パス_1166103" data-name="パス 1166103" d="M380.336,99.928a2.3,2.3,0,1,0,2.3,2.3A2.3,2.3,0,0,0,380.336,99.928Z" transform="translate(-348.814 -90.37)" fill="#fff"/>
          <path id="パス_1166104" data-name="パス 1166104" d="M342.994,85.6l-.353,2.056a1.169,1.169,0,0,0,.265,1.145,1.11,1.11,0,0,0,1.229-.06l1.846-.971,1.846.971a1.646,1.646,0,0,0,.749.217.763.763,0,0,0,.431-.121,1.118,1.118,0,0,0,.314-1.18l-.353-2.056,1.494-1.456c.419-.408.558-.814.442-1.135a1.154,1.154,0,0,0-1.012-.621l-2.064-.3h0l-.922-1.869c-.253-.514-.589-.772-.923-.772h0v0h0c-.335,0-.668.258-.923.772l-.923,1.87-2.064.3a1.71,1.71,0,0,0-.689.235.768.768,0,0,0-.333.415,1.146,1.146,0,0,0,.451,1.106Z" transform="translate(-329.071 -79.447)" fill="#fff"/>
          <path id="パス_1166105" data-name="パス 1166105" d="M317.715,99.928a2.3,2.3,0,1,0,2.3,2.3A2.3,2.3,0,0,0,317.715,99.928Z" transform="translate(-315.416 -90.37)" fill="#fff"/>
        </g>
        <path id="パス_1166106" data-name="パス 1166106" d="M385.974,53.51h-9.509l1.315,15.034h9.509l-.483-5.525h22.776v6.854c0,11.052-4.659,13.214-12.707,13.214h-3.538v9.5h3.538c14.736,0,22.208-7.628,22.208-22.673V53.51Z" transform="translate(-200.781 -28.539)" fill="#fff"/>
      </g>
    </g>
  </g>
</svg>
