<svg xmlns="http://www.w3.org/2000/svg" xmlns:xlink="http://www.w3.org/1999/xlink" width="297" height="70" viewBox="0 0 297 70">
  <defs>
    <clipPath id="clip-path">
      <rect id="長方形_432182" data-name="長方形 432182" width="240" height="40" transform="translate(520 312)" fill="#fff" stroke="#707070" stroke-width="1"/>
    </clipPath>
    <clipPath id="clip-path-2">
      <rect id="長方形_432232" data-name="長方形 432232" width="57" height="70" transform="translate(530 5)" fill="#fff" stroke="#707070" stroke-width="1"/>
    </clipPath>
  </defs>
  <g id="グループ_1125539" data-name="グループ 1125539" transform="translate(-530 -427)">
    <g id="マスクグループ_1111032" data-name="マスクグループ 1111032" transform="translate(67 130)" clip-path="url(#clip-path)">
      <g id="エステワン_logo" transform="translate(640.04 331.012)">
        <g id="グループ_1124876" data-name="グループ 1124876" transform="translate(-120.04 -36.012)">
          <rect id="長方形_432179" data-name="長方形 432179" width="240.08" height="72.024" fill="none"/>
          <rect id="長方形_432180" data-name="長方形 432180" width="28.033" height="8.166" transform="translate(95.883 21.344)" fill="#444"/>
          <path id="パス_1166351" data-name="パス 1166351" d="M47.545,78.73V61.508H58.13V53.343H29.559v8.166h9.8V78.73H25.85v8.118H61.838V78.73Z" transform="translate(-15.507 -31.998)" fill="#444"/>
          <rect id="長方形_432181" data-name="長方形 432181" width="17.941" height="8.166" transform="translate(194.121 21.411)" fill="#ff6a9f"/>
          <path id="パス_1166352" data-name="パス 1166352" d="M533.475,73.87v5.883c0,9.476-3.995,11.33-10.895,11.33h-3.034v8.147h3.034c12.635,0,19.042-6.541,19.042-19.44V73.87Z" transform="translate(-311.659 -44.312)" fill="#ff6a9f"/>
          <path id="パス_1166353" data-name="パス 1166353" d="M160.08,64.977V53.343h-24.3V61.5h16.112v3.55c0,7.859-5.736,13.786-13.342,13.786h-6.159V86.95h6.159a21.176,21.176,0,0,0,16.705-7.872l8.089,9.272,6.265-5.237L159.237,71.227A23.238,23.238,0,0,0,160.08,64.977Z" transform="translate(-79.418 -31.999)" fill="#444"/>
          <path id="パス_1166354" data-name="パス 1166354" d="M229.436,82.741v8.166H245.3v2.568a2.913,2.913,0,0,1-2.91,2.91H237.01v8.166h5.376a11.075,11.075,0,0,0,11.076-11.075V90.907h8.256a4.158,4.158,0,0,1,3.706-3.453V82.741Z" transform="translate(-137.631 -49.634)" fill="#444"/>
          <g id="グループ_1124875" data-name="グループ 1124875" transform="translate(126.208 31.789)">
            <path id="パス_1166355" data-name="パス 1166355" d="M335.312,101.495q-2.552,3.439-5.1,6.881l-5.984-3.2c.488,1.7,2.006,6.781,3.142,10.538h16.008c1.009-3.776,2.361-8.893,2.8-10.614l-5.54,3.052Z" transform="translate(-320.7 -92.673)" fill="#ff8fc2"/>
            <path id="パス_1166356" data-name="パス 1166356" d="M380.008,99.928a1.971,1.971,0,1,0,1.971,1.971A1.971,1.971,0,0,0,380.008,99.928Z" transform="translate(-352.98 -91.733)" fill="#ff8fc2"/>
            <path id="パス_1166357" data-name="パス 1166357" d="M342.713,84.724l-.3,1.763a1,1,0,0,0,.227.982.952.952,0,0,0,1.054-.051l1.582-.832,1.583.832a1.41,1.41,0,0,0,.642.186.654.654,0,0,0,.37-.1.958.958,0,0,0,.269-1.012l-.3-1.763,1.281-1.248a.961.961,0,0,0,.378-.974.99.99,0,0,0-.868-.532l-1.77-.257h0l-.791-1.6c-.217-.441-.5-.662-.791-.662h0v0h0c-.287,0-.573.221-.791.662l-.791,1.6-1.77.257a1.466,1.466,0,0,0-.591.2.658.658,0,0,0-.286.356.983.983,0,0,0,.387.949Z" transform="translate(-330.775 -79.447)" fill="#ff8fc2"/>
            <path id="パス_1166358" data-name="パス 1166358" d="M317.387,99.928a1.971,1.971,0,1,0,1.971,1.971A1.971,1.971,0,0,0,317.387,99.928Z" transform="translate(-315.416 -91.733)" fill="#ff8fc2"/>
          </g>
          <path id="パス_1166359" data-name="パス 1166359" d="M384.618,53.51h-8.153l1.127,12.89h8.153l-.414-4.738H404.86v5.877c0,9.476-3.995,11.33-10.9,11.33h-3.034v8.147h3.034c12.635,0,19.042-6.541,19.042-19.44V53.51Z" transform="translate(-225.829 -32.099)" fill="#ff6a9f"/>
        </g>
      </g>
    </g>
    <g id="マスクグループ_1111038" data-name="マスクグループ 1111038" transform="translate(0 422)" clip-path="url(#clip-path-2)">
      <g id="グループ_1125180" data-name="グループ 1125180" transform="translate(517.677 -114.851)">
        <ellipse id="楕円形_249763" data-name="楕円形 249763" cx="20.279" cy="2.117" rx="20.279" ry="2.117" transform="translate(22.703 182.64)" fill="#5b2e02" opacity="0.08"/>
        <g id="アートワーク_86" data-name="アートワーク 86" transform="matrix(0.961, -0.276, 0.276, 0.961, 38.171, 150.169)">
          <g id="グループ_1125179" data-name="グループ 1125179" transform="translate(-22.773 -25.239)">
            <g id="グループ_1125171" data-name="グループ 1125171" transform="translate(35.936 29.45)">
              <path id="手" d="M0,2.176A4.617,4.617,0,1,1,.914,8.121" transform="translate(0.537 0.537)" fill="#c79280"/>
              <path id="パス_1166942" data-name="パス 1166942" d="M4.457,10.307A5.154,5.154,0,0,1,1.1,9.066a.537.537,0,0,1,.7-.815A4.079,4.079,0,1,0,.993,3a.537.537,0,1,1-.912-.569,5.154,5.154,0,1,1,4.375,7.879Z" transform="translate(0 0)" fill="#231815"/>
            </g>
            <g id="グループ_1125172" data-name="グループ 1125172" transform="translate(5.598 18.728)">
              <path id="肉体" d="M32.522,13.013q-.229-2.777-.585-6.168A34.457,34.457,0,0,0,30.489,0H5.9A3.581,3.581,0,0,0,2.272,3.155L.138,25.019A4.377,4.377,0,0,0,0,26.112c0,.084,0,.168.007.251L0,26.438H.012c.175,2.368,1.651,4.237,4.176,4.237a4.842,4.842,0,0,0,3.918-1.95,6.071,6.071,0,0,0,4.509,1.95,4.842,4.842,0,0,0,3.918-1.95,4.842,4.842,0,0,0,3.918,1.95,5.952,5.952,0,0,0,4.456-1.95,4.842,4.842,0,0,0,3.918,1.95,4.207,4.207,0,0,0,4.229-4.237h.012s.03-2.216-.117-6.981C32.872,16.887,32.522,13.013,32.522,13.013Z" transform="translate(0.537 0.537)" fill="#c79280"/>
              <path id="パス_1166943" data-name="パス 1166943" d="M29.364,31.751a5.43,5.43,0,0,1-3.93-1.666,6.869,6.869,0,0,1-4.444,1.666A5.43,5.43,0,0,1,17.071,30.1a5.43,5.43,0,0,1-3.918,1.654,7.1,7.1,0,0,1-4.5-1.668,5.43,5.43,0,0,1-3.932,1.668,4.449,4.449,0,0,1-3.363-1.4A5.374,5.374,0,0,1,.023,27.133.537.537,0,0,1,0,26.924l0-.035C0,26.808,0,26.728,0,26.65a4.927,4.927,0,0,1,.145-1.186L2.274,3.64a3.951,3.951,0,0,1,1.355-2.6A4.269,4.269,0,0,1,6.435,0H31.026a.537.537,0,0,1,.508.362,34.668,34.668,0,0,1,1.475,6.964c.227,2.13.424,4.209.586,6.179.01.111.353,3.942.431,6.474.145,4.722.117,6.982.117,7a.538.538,0,0,1-.023.15A4.72,4.72,0,0,1,29.364,31.751Zm-3.918-3.025a.537.537,0,0,1,.433.22,4.318,4.318,0,0,0,3.485,1.731,3.668,3.668,0,0,0,3.694-3.74.533.533,0,0,1,.012-.079c0-.506.009-2.735-.118-6.845-.078-2.524-.424-6.374-.427-6.412v0c-.162-1.962-.358-4.033-.584-6.156a35.09,35.09,0,0,0-1.305-6.365H6.435A3.03,3.03,0,0,0,3.344,3.744L1.211,25.608a.546.546,0,0,1-.014.082,3.851,3.851,0,0,0-.121.96c0,.071,0,.146.006.221,0,.011,0,.021,0,.032s0,.022,0,.034c.134,1.808,1.16,3.74,3.64,3.74A4.318,4.318,0,0,0,8.21,28.945a.537.537,0,0,1,.867,0,5.518,5.518,0,0,0,4.076,1.731,4.318,4.318,0,0,0,3.485-1.731.537.537,0,0,1,.867,0,4.318,4.318,0,0,0,3.485,1.731,5.444,5.444,0,0,0,4.022-1.731A.537.537,0,0,1,25.445,28.725Z" transform="translate(0 0)" fill="#231815"/>
            </g>
            <g id="耳" transform="translate(0 0)">
              <g id="グループ_1125173" data-name="グループ 1125173">
                <path id="パス_1166944" data-name="パス 1166944" d="M14.777,11.863a24.636,24.636,0,0,0-7.586-.986A34.172,34.172,0,0,0,0,11.638a30.084,30.084,0,0,0,6.325,8.348,11,11,0,0,0-.347,5.3c.355,1.492,2.013,1.626,2.787,2.838.493.771-.528,4.117,1.745,4.122,1.846,0,.758-3.245,2.5-4.021,1.978-.88,2.8.475,4.394-.966s-.228-3.945,2.579-4.931,12.877.764,15.88,0c2.737-.7,4.291-4.7,2.828-7.434a8.376,8.376,0,0,0-3.511-3.641,24.951,24.951,0,0,0-2.958-5.462C30.253,3.063,26.763-.35,25.474.029s-2.2,10.393-2.2,10.393A17.558,17.558,0,0,0,14.777,11.863Z" transform="translate(0.537 0.537)" fill="#fff"/>
                <path id="パス_1166945" data-name="パス 1166945" d="M11.051,33.324h0a1.855,1.855,0,0,1-1.872-1.293,6.274,6.274,0,0,1-.244-2.044,3.973,3.973,0,0,0-.082-1.034A3.607,3.607,0,0,0,7.7,27.96a3.312,3.312,0,0,1-1.707-2.008,11.178,11.178,0,0,1,.256-5.259,30.474,30.474,0,0,1-6.2-8.285.537.537,0,0,1,.356-.755,34.413,34.413,0,0,1,7.316-.776,26.1,26.1,0,0,1,7.563.95,18.524,18.524,0,0,1,8.039-1.45c.089-.877.288-2.712.568-4.554A34.768,34.768,0,0,1,24.6,2.211C24.975.83,25.339.2,25.859.051A2.3,2.3,0,0,1,27.6.457a11.654,11.654,0,0,1,1.889,1.426A27.527,27.527,0,0,1,33.2,6.017a25.679,25.679,0,0,1,2.952,5.392,9.22,9.22,0,0,1,3.556,3.772,6.021,6.021,0,0,1,.066,5.224,5.026,5.026,0,0,1-3.235,2.985c-1.512.385-4.522.18-7.708-.036-3.168-.215-6.759-.458-8.126.022-1.285.452-1.343,1.208-1.423,2.254A3.472,3.472,0,0,1,18.3,28.2a3.021,3.021,0,0,1-2.659.814,3.358,3.358,0,0,0-1.877.244c-.544.242-.7.875-.885,1.814S12.447,33.324,11.051,33.324ZM1.342,12.555a29.551,29.551,0,0,0,5.876,7.566.537.537,0,0,1,.152.575A10.523,10.523,0,0,0,7.038,25.7c.153.644.637.959,1.248,1.356a4.545,4.545,0,0,1,1.469,1.316,3.152,3.152,0,0,1,.25,1.6c.014,1.6.163,2.27,1.043,2.272h0c.42,0,.558-.247.778-1.383a3.131,3.131,0,0,1,1.5-2.591,4.415,4.415,0,0,1,2.4-.333,1.975,1.975,0,0,0,1.848-.54,2.526,2.526,0,0,0,.623-1.853c.085-1.115.192-2.5,2.139-3.186,1.576-.554,4.966-.324,8.555-.08,2.962.2,6.025.409,7.37.066a3.968,3.968,0,0,0,2.517-2.376,5.01,5.01,0,0,0-.03-4.283,7.968,7.968,0,0,0-3.257-3.4.542.542,0,0,1-.285-.308,24.648,24.648,0,0,0-2.889-5.33,26.393,26.393,0,0,0-3.555-3.963c-1.5-1.343-2.315-1.639-2.575-1.608-.118.125-.643.9-1.277,5.161-.359,2.416-.573,4.748-.575,4.771a.537.537,0,0,1-.607.484,17.207,17.207,0,0,0-8.211,1.4.537.537,0,0,1-.391.014h0A24.293,24.293,0,0,0,7.9,11.951H7.732A35.87,35.87,0,0,0,1.342,12.555Zm24.874-11.5Z" fill="#231815"/>
              </g>
              <path id="パス_1166946" data-name="パス 1166946" d="M0,.09A20.408,20.408,0,0,1,7.738.849,13.841,13.841,0,0,1,10.566,2.1s-1.939,1-3.742,2.124c-1.192.743-2.149,1.5-2.149,1.5S2.655,3.656,1.669,2.442A22.773,22.773,0,0,1,0,.09Z" transform="translate(3.556 13.903)" fill="#ffb5bd"/>
              <path id="パス_1166947" data-name="パス 1166947" d="M0,0S2.238,6.89,2.489,7.131c.446.08,1.475.322,3.03.663C5.347,7.036,1.974,1.214,0,0Z" transform="translate(28.83 3.932)" fill="#ffb5bd"/>
            </g>
            <g id="さくらんぼ" transform="translate(13.55 4.06)">
              <g id="グループ_1125174" data-name="グループ 1125174" transform="translate(0.562 2.079)">
                <ellipse id="楕円形_249764" data-name="楕円形 249764" cx="4.779" cy="4.779" rx="4.779" ry="4.779" transform="translate(0.538 0.538)" fill="#ffb5bd"/>
                <path id="パス_1166948" data-name="パス 1166948" d="M5.317,10.634a5.317,5.317,0,1,1,5.167-6.568h0a5.319,5.319,0,0,1-5.167,6.568Zm0-9.559A4.242,4.242,0,1,0,9.44,4.319h0A4.25,4.25,0,0,0,5.317,1.075Z" transform="translate(0 0)" fill="#231815"/>
              </g>
              <g id="グループ_1125175" data-name="グループ 1125175" transform="translate(0 0)">
                <path id="パス_1166949" data-name="パス 1166949" d="M0,0A12.654,12.654,0,0,1,4.444,4.814" transform="translate(0.537 0.537)" fill="#fff"/>
                <path id="パス_1166950" data-name="パス 1166950" d="M4.981,5.889A.537.537,0,0,1,4.505,5.6a12.241,12.241,0,0,0-4.232-4.6A.537.537,0,0,1,.8.069,13.1,13.1,0,0,1,5.456,5.1a.538.538,0,0,1-.475.788Z" fill="#231815"/>
              </g>
              <path id="パス_1166951" data-name="パス 1166951" d="M1.364,2.411a3.433,3.433,0,0,1-1.16-.2.322.322,0,0,1,.235-.6,2.771,2.771,0,0,0,1.919-.051A1.838,1.838,0,0,0,3.419.271a.322.322,0,0,1,.637.1A2.488,2.488,0,0,1,2.62,2.153,3.086,3.086,0,0,1,1.364,2.411Z" transform="translate(2.813 3.969)"/>
            </g>
            <g id="グループ_1125176" data-name="グループ 1125176" transform="translate(11.508 33.044)">
              <path id="手-2" data-name="手" d="M6.1,0A4.617,4.617,0,1,1,.522,2.241" transform="translate(0.536 0.537)" fill="#c79280"/>
              <path id="パス_1166952" data-name="パス 1166952" d="M5.144,10.064A5.155,5.155,0,0,1,.582,2.53a.537.537,0,1,1,.953.5,4.079,4.079,0,1,0,4.932-1.98A.537.537,0,0,1,6.813.029,5.155,5.155,0,0,1,9.53,7.63a5.12,5.12,0,0,1-3.206,2.3A5.193,5.193,0,0,1,5.144,10.064Z" transform="translate(0 0)" fill="#231815"/>
            </g>
            <g id="表情_ω_通常" data-name="表情　●ω●通常" transform="translate(21.162 26.468)">
              <ellipse id="楕円形_249765" data-name="楕円形 249765" cx="1.536" cy="1.536" rx="1.536" ry="1.536" transform="translate(2.152 0.152)" fill="#231815"/>
              <ellipse id="楕円形_249766" data-name="楕円形 249766" cx="1.536" cy="1.536" rx="1.536" ry="1.536" transform="translate(9.504 0)" fill="#231815"/>
              <path id="パス_1166953" data-name="パス 1166953" d="M3.888,1.7A1.363,1.363,0,0,1,2.709.911a2.523,2.523,0,0,1-1.586.779h0A1.089,1.089,0,0,1,.2,1.3,1.182,1.182,0,0,1,.039.343.322.322,0,0,1,.662.508a.551.551,0,0,0,.05.406.537.537,0,0,0,.41.131h0c.57,0,1.239-.668,1.448-.926a.323.323,0,0,1,.564.129c.009.036.231.912.877.8a.535.535,0,0,0,.41-.6A.322.322,0,0,1,5.065.4a1.164,1.164,0,0,1-.943,1.282A1.362,1.362,0,0,1,3.888,1.7Z" transform="translate(4.966 3.197)" fill="#231815"/>
              <g id="グループ_1125177" data-name="グループ 1125177" transform="translate(0 3.072)">
                <path id="パス_1166954" data-name="パス 1166954" d="M.271.8A.272.272,0,0,1,.225.26L1.679,0a.272.272,0,0,1,.094.535L.319.795A.269.269,0,0,1,.271.8Z" transform="translate(0 1.091)" fill="#231815"/>
                <path id="パス_1166955" data-name="パス 1166955" d="M1.726.8a.276.276,0,0,1-.047,0L.225.539A.272.272,0,0,1,.319,0L1.773.26A.272.272,0,0,1,1.726.8Z" transform="translate(0 0)" fill="#231815"/>
              </g>
              <g id="グループ_1125178" data-name="グループ 1125178" transform="translate(12.239 3.072)">
                <path id="パス_1166956" data-name="パス 1166956" d="M1.726.8a.269.269,0,0,1-.047,0L.225.539A.272.272,0,1,1,.319,0L1.773.26A.272.272,0,0,1,1.726.8Z" transform="translate(0 1.091)" fill="#231815"/>
                <path id="パス_1166957" data-name="パス 1166957" d="M.271.8A.272.272,0,0,1,.225.26L1.679,0a.272.272,0,1,1,.094.535L.319.795A.275.275,0,0,1,.271.8Z" transform="translate(0 0)" fill="#231815"/>
              </g>
            </g>
          </g>
        </g>
      </g>
    </g>
  </g>
</svg>
