<svg xmlns="http://www.w3.org/2000/svg" xmlns:xlink="http://www.w3.org/1999/xlink" width="100" height="115" viewBox="0 0 100 115">
  <defs>
    <clipPath id="clip-path">
      <rect id="長方形_427980" data-name="長方形 427980" width="100" height="115" transform="translate(622 153)" fill="#fff" stroke="#707070" stroke-width="1" opacity="0.39"/>
    </clipPath>
  </defs>
  <g id="マスクグループ_1110973" data-name="マスクグループ 1110973" transform="translate(-622 -153)" clip-path="url(#clip-path)">
    <g id="グループ_1122477" data-name="グループ 1122477" transform="translate(-0.5 -1.229)">
      <g id="アートワーク_84" data-name="アートワーク 84" transform="matrix(0.891, 0.454, -0.454, 0.891, 681.182, 195.149)">
        <g id="グループ_1122442" data-name="グループ 1122442" transform="translate(-27 -29.924)">
          <g id="グループ_1122435" data-name="グループ 1122435" transform="translate(0 34.916)">
            <path id="手" d="M10.12,2.58A5.474,5.474,0,1,0,9.036,9.628" transform="translate(0.637 0.637)" fill="#c79280"/>
            <path id="パス_1162013" data-name="パス 1162013" d="M6.11,12.22a6.111,6.111,0,0,0,3.978-1.472.637.637,0,0,0-.83-.967,4.836,4.836,0,1,1,.958-6.228A.637.637,0,0,0,11.3,2.88,6.11,6.11,0,1,0,6.11,12.22Z" transform="translate(0 0)" fill="#231815"/>
          </g>
          <g id="グループ_1122436" data-name="グループ 1122436" transform="translate(6.88 22.205)">
            <path id="肉体" d="M.65,15.429q.271-3.292.694-7.313A40.85,40.85,0,0,1,3.061,0H32.217a4.246,4.246,0,0,1,4.3,3.74l2.529,25.922a5.193,5.193,0,0,1,.164,1.3c0,.1,0,.2-.009.3l.009.089h-.015c-.208,2.808-1.958,5.024-4.951,5.024A5.741,5.741,0,0,1,29.6,34.057a7.2,7.2,0,0,1-5.346,2.312,5.741,5.741,0,0,1-4.646-2.312,5.741,5.741,0,0,1-4.646,2.312,7.056,7.056,0,0,1-5.283-2.312,5.741,5.741,0,0,1-4.646,2.312c-2.993,0-4.807-2.216-5.015-5.024H0s-.035-2.628.139-8.276C.235,20.022.65,15.429.65,15.429Z" transform="translate(0.637 0.637)" fill="#c79280"/>
            <path id="パス_1162014" data-name="パス 1162014" d="M5.669,37.643a6.438,6.438,0,0,0,4.659-1.975A8.144,8.144,0,0,0,15.6,37.643a6.439,6.439,0,0,0,4.646-1.96,6.439,6.439,0,0,0,4.646,1.961,8.413,8.413,0,0,0,5.33-1.977,6.438,6.438,0,0,0,4.662,1.977,5.275,5.275,0,0,0,3.988-1.663,6.372,6.372,0,0,0,1.587-3.812.636.636,0,0,0,.025-.248l0-.041c0-.1.007-.191.007-.283a5.837,5.837,0,0,0-.172-1.406L37.786,4.315A4.684,4.684,0,0,0,36.18,1.232,5.061,5.061,0,0,0,32.854,0H3.7a.637.637,0,0,0-.6.429A41.1,41.1,0,0,0,1.347,8.685c-.269,2.528-.5,4.993-.7,7.326-.011.128-.418,4.672-.511,7.676-.172,5.6-.139,8.278-.139,8.3a.638.638,0,0,0,.028.178C.331,35.45,2.582,37.643,5.669,37.643Zm4.646-3.586a.637.637,0,0,0-.514.261,5.12,5.12,0,0,1-4.132,2.052c-2.461,0-4.18-1.74-4.379-4.434a.628.628,0,0,0-.014-.094c0-.6-.011-3.243.139-8.115.092-2.993.5-7.557.506-7.6v0c.192-2.324.425-4.779.693-7.3A41.517,41.517,0,0,1,4.162,1.274H32.854a3.593,3.593,0,0,1,3.665,3.165l2.529,25.922a.635.635,0,0,0,.017.1,4.565,4.565,0,0,1,.144,1.138c0,.085,0,.173-.008.262,0,.013,0,.026,0,.038s0,.026,0,.039c-.158,2.143-1.375,4.434-4.315,4.434a5.12,5.12,0,0,1-4.132-2.052.637.637,0,0,0-1.028,0,6.542,6.542,0,0,1-4.833,2.052,5.12,5.12,0,0,1-4.132-2.052.637.637,0,0,0-1.028,0A5.12,5.12,0,0,1,15.6,36.369a6.454,6.454,0,0,1-4.769-2.052A.637.637,0,0,0,10.315,34.057Z" transform="translate(0 0)" fill="#231815"/>
          </g>
          <g id="耳" transform="translate(6.18 0)">
            <g id="グループ_1122437" data-name="グループ 1122437" transform="translate(0)">
              <path id="パス_1162015" data-name="パス 1162015" d="M29.022,14.065A29.208,29.208,0,0,1,38.016,12.9a40.515,40.515,0,0,1,8.526.9,35.667,35.667,0,0,1-7.5,9.9,13.039,13.039,0,0,1,.412,6.289c-.421,1.769-2.386,1.927-3.3,3.364-.585.914.626,4.881-2.069,4.887-2.189,0-.9-3.847-2.968-4.767-2.345-1.043-3.321.563-5.21-1.146s.27-4.677-3.058-5.846-15.266.906-18.827,0C.774,25.651-1.068,20.9.666,17.663a9.931,9.931,0,0,1,4.162-4.317A29.584,29.584,0,0,1,8.336,6.87c2.338-3.238,6.476-7.285,8-6.835s2.608,12.322,2.608,12.322A20.816,20.816,0,0,1,29.022,14.065Z" transform="translate(0.641 0.637)" fill="#fff"/>
              <path id="パス_1162016" data-name="パス 1162016" d="M34.718,39.51h.005a2.2,2.2,0,0,0,2.219-1.533,7.438,7.438,0,0,0,.289-2.423,4.711,4.711,0,0,1,.1-1.226,4.277,4.277,0,0,1,1.362-1.177,3.927,3.927,0,0,0,2.024-2.381,13.253,13.253,0,0,0-.3-6.235,36.131,36.131,0,0,0,7.345-9.823.637.637,0,0,0-.423-.9,40.8,40.8,0,0,0-8.674-.92,31.036,31.036,0,0,0-8.967,1.127A21.961,21.961,0,0,0,20.162,12.3c-.105-1.04-.341-3.215-.674-5.4a41.2,41.2,0,0,0-.839-4.284C18.209.984,17.778.242,17.161.061A2.721,2.721,0,0,0,15.1.542a13.812,13.812,0,0,0-2.24,1.69,32.639,32.639,0,0,0-4.4,4.9,30.446,30.446,0,0,0-3.5,6.392A10.932,10.932,0,0,0,.745,18a7.139,7.139,0,0,0-.078,6.194A5.959,5.959,0,0,0,4.5,27.731c1.792.456,5.361.214,9.139-.042,3.756-.255,8.013-.544,9.635.026,1.524.535,1.592,1.432,1.687,2.673a4.116,4.116,0,0,0,1.154,3.045,3.582,3.582,0,0,0,3.153.966,3.981,3.981,0,0,1,2.225.29c.645.287.834,1.038,1.05,2.15S33.062,39.509,34.718,39.51Zm11.51-24.624a35.036,35.036,0,0,1-6.967,8.97.637.637,0,0,0-.18.682,12.475,12.475,0,0,1,.4,5.936c-.182.764-.755,1.136-1.48,1.608a5.386,5.386,0,0,0-1.742,1.56,3.737,3.737,0,0,0-.3,1.9c-.017,1.9-.193,2.692-1.236,2.694h0c-.5,0-.662-.292-.923-1.64-.215-1.111-.483-2.494-1.783-3.072a5.236,5.236,0,0,0-2.85-.4,2.342,2.342,0,0,1-2.191-.641,3,3,0,0,1-.739-2.2c-.1-1.322-.227-2.966-2.535-3.777-1.869-.657-5.888-.384-10.143-.1-3.512.238-7.143.484-8.738.079a4.7,4.7,0,0,1-2.984-2.818A5.94,5.94,0,0,1,1.868,18.6,9.448,9.448,0,0,1,5.73,14.564a.643.643,0,0,0,.338-.365A29.222,29.222,0,0,1,9.493,7.88a31.3,31.3,0,0,1,4.215-4.7c1.777-1.592,2.744-1.943,3.052-1.906.14.148.763,1.066,1.514,6.124.425,2.865.678,5.624.681,5.652a.637.637,0,0,0,.719.574,20.4,20.4,0,0,1,9.735,1.662.637.637,0,0,0,.464.017,28.821,28.821,0,0,1,8.582-1.134h.2A42.615,42.615,0,0,1,46.228,14.886ZM16.737,1.254Z" transform="translate(0 0)" fill="#231815"/>
            </g>
            <path id="パス_1162017" data-name="パス 1162017" d="M12.527.107a24.2,24.2,0,0,0-9.174.9A16.407,16.407,0,0,0,0,2.486S2.3,3.672,4.437,5c1.413.88,2.548,1.773,2.548,1.773S9.379,4.334,10.549,2.9A27,27,0,0,0,12.527.107Z" transform="translate(31.076 16.484)" fill="#ffb5bd"/>
            <path id="パス_1162018" data-name="パス 1162018" d="M6.543,0S3.89,8.169,3.593,8.454c-.529.095-1.749.382-3.593.786C.2,8.341,4.2,1.439,6.543,0Z" transform="translate(7.096 4.662)" fill="#ffb5bd"/>
          </g>
          <g id="さくらんぼ" transform="translate(24.66 4.813)">
            <g id="グループ_1122438" data-name="グループ 1122438" transform="translate(0 2.463)">
              <ellipse id="楕円形_249466" data-name="楕円形 249466" cx="5.666" cy="5.666" rx="5.666" ry="5.666" transform="translate(0.638 0.639)" fill="#ffb5bd"/>
              <path id="パス_1162019" data-name="パス 1162019" d="M6.316,12.611a6.305,6.305,0,0,0,5.369-9.589,6.3,6.3,0,1,0-6.864,9.409A6.351,6.351,0,0,0,6.316,12.611ZM6.295,1.274a5.069,5.069,0,0,1,1.193.143A5.029,5.029,0,0,1,8.924,10.6,5.029,5.029,0,0,1,1.416,5.122h0A5.034,5.034,0,0,1,6.295,1.274Z" transform="translate(0 0)" fill="#231815"/>
            </g>
            <g id="グループ_1122439" data-name="グループ 1122439" transform="translate(6.732 0)">
              <path id="パス_1162020" data-name="パス 1162020" d="M5.268,0A15,15,0,0,0,0,5.708" transform="translate(0.637 0.637)" fill="#fff"/>
              <path id="パス_1162021" data-name="パス 1162021" d="M.637,6.982a.637.637,0,0,0,.564-.34,14.516,14.516,0,0,1,5.018-5.45A.637.637,0,0,0,5.593.082,15.537,15.537,0,0,0,.074,6.048a.637.637,0,0,0,.563.934Z" transform="translate(0 0)" fill="#231815"/>
            </g>
            <path id="パス_1162022" data-name="パス 1162022" d="M3.2,2.859a4.069,4.069,0,0,0,1.375-.232.382.382,0,0,0-.279-.712,3.285,3.285,0,0,1-2.275-.06A2.18,2.18,0,0,1,.76.321.382.382,0,0,0,0,.439a2.951,2.951,0,0,0,1.7,2.114A3.659,3.659,0,0,0,3.2,2.859Z" transform="translate(5.127 4.706)"/>
          </g>
          <g id="表情_ω_楽しい" data-name="表情　&gt;ω&lt;楽しい" transform="translate(12.032 31.319)">
            <path id="パス_1162023" data-name="パス 1162023" d="M1.4,2.02a1.616,1.616,0,0,0,1.4-.94A2.993,2.993,0,0,0,4.677,2h0a1.292,1.292,0,0,0,1.093-.458A1.4,1.4,0,0,0,5.963.406a.382.382,0,0,0-.739.2.654.654,0,0,1-.059.481.637.637,0,0,1-.486.156h0C4,1.239,3.209.447,2.96.141a.382.382,0,0,0-.669.152c-.011.043-.274,1.081-1.04.949A.634.634,0,0,1,.766.532.382.382,0,0,0,0,.476,1.381,1.381,0,0,0,1.122,2,1.635,1.635,0,0,0,1.4,2.02Z" transform="translate(4.981 3.852)" fill="#231815"/>
            <g id="グループ_1122440" data-name="グループ 1122440" transform="translate(14.51 3.704)">
              <path id="パス_1162024" data-name="パス 1162024" d="M2.046.947A.322.322,0,0,0,2.1.308L.378,0A.322.322,0,1,0,.266.639l1.724.3A.331.331,0,0,0,2.046.947Z" transform="translate(0 1.293)" fill="#231815"/>
              <path id="パス_1162025" data-name="パス 1162025" d="M.322.947a.324.324,0,0,0,.056,0L2.1.639A.322.322,0,0,0,1.99,0L.266.308A.322.322,0,0,0,.322.947Z" transform="translate(0 0)" fill="#231815"/>
            </g>
            <g id="グループ_1122441" data-name="グループ 1122441" transform="translate(0 3.704)">
              <path id="パス_1162026" data-name="パス 1162026" d="M.322.947a.323.323,0,0,0,.056,0L2.1.639A.322.322,0,0,0,1.99,0L.266.308A.322.322,0,0,0,.322.947Z" transform="translate(0 1.293)" fill="#231815"/>
              <path id="パス_1162027" data-name="パス 1162027" d="M2.046.947A.322.322,0,0,0,2.1.308L.378,0A.322.322,0,0,0,.266.639l1.724.3A.324.324,0,0,0,2.046.947Z" transform="translate(0 0)" fill="#231815"/>
            </g>
            <path id="パス_1162028" data-name="パス 1162028" d="M2.95,3.924a.478.478,0,0,0,.226-.9L1.412,2.078l1.83-1.2a.478.478,0,0,0-.524-.8L.216,1.72a.478.478,0,0,0,.036.821L2.725,3.867A.476.476,0,0,0,2.95,3.924Z" transform="translate(10.458 0)" fill="#231815"/>
            <path id="パス_1162029" data-name="パス 1162029" d="M.52,3.8a.474.474,0,0,0,.227-.058L3.06,2.5A.478.478,0,0,0,3.1,1.681L.746.083A.478.478,0,1,0,.209.873l1.7,1.157L.292,2.907a.478.478,0,0,0,.228.9Z" transform="translate(2.321 0.042)" fill="#231815"/>
          </g>
        </g>
      </g>
      <g id="グループ_1122418" data-name="グループ 1122418" transform="translate(620 195.913)">
        <g id="パス_1148417" data-name="パス 1148417" transform="translate(2.501 73.087) rotate(-90)" fill="#ffa1c4">
          <path d="M35,0A35,35,0,1,1,0,35,35,35,0,0,1,35,0Z" stroke="none"/>
          <path d="M 35 4 C 30.81326293945312 4 26.75388717651367 4.819084167480469 22.93462371826172 6.434486389160156 C 19.24364852905273 7.995651245117188 15.92797470092773 10.23141098022461 13.07968902587891 13.07968902587891 C 10.23141098022461 15.92797470092773 7.995651245117188 19.24364852905273 6.434486389160156 22.93462371826172 C 4.819084167480469 26.75388717651367 4 30.81326293945312 4 35 C 4 39.18673706054688 4.819084167480469 43.24611282348633 6.434486389160156 47.06537628173828 C 7.995651245117188 50.75634765625 10.23141098022461 54.07202529907227 13.07968902587891 56.92031097412109 C 15.92797470092773 59.76858520507812 19.24364852905273 62.00434875488281 22.93462371826172 63.56551361083984 C 26.75388717651367 65.18091583251953 30.81326293945312 66 35 66 C 39.18673706054688 66 43.24611282348633 65.18091583251953 47.06537628173828 63.56551361083984 C 50.75634765625 62.00434875488281 54.07202529907227 59.76858520507812 56.92031097412109 56.92031097412109 C 59.76858520507812 54.07202529907227 62.00434875488281 50.75634765625 63.56551361083984 47.06537628173828 C 65.18091583251953 43.24611282348633 66 39.18673706054688 66 35 C 66 30.81326293945312 65.18091583251953 26.75388717651367 63.56551361083984 22.93462371826172 C 62.00434875488281 19.24364852905273 59.76858520507812 15.92797470092773 56.92031097412109 13.07968902587891 C 54.07202529907227 10.23141098022461 50.75634765625 7.995651245117188 47.06537628173828 6.434486389160156 C 43.24611282348633 4.819084167480469 39.18673706054688 4 35 4 M 35 0 C 54.32996368408203 0 70 15.67003631591797 70 35 C 70 54.32996368408203 54.32996368408203 70 35 70 C 15.67003631591797 70 0 54.32996368408203 0 35 C 0 15.67003631591797 15.67003631591797 0 35 0 Z" stroke="none" fill="rgba(255,255,255,0.3)"/>
        </g>
        <path id="合体_32" data-name="合体 32" d="M.707.651a2.19,2.19,0,0,0-.7,1.611,2.167,2.167,0,0,0,.7,1.594l8.7,8.244L.7,20.341a2.181,2.181,0,0,0,0,3.208,2.414,2.414,0,0,0,1.656.645,2.414,2.414,0,0,0,1.656-.645l10.4-9.841a2.178,2.178,0,0,0,.07-3.134l-.02-.017L4.028.651A2.4,2.4,0,0,0,2.369,0,2.4,2.4,0,0,0,.707.651Z" transform="translate(25.404 43.647) rotate(-90)" fill="#fff"/>
      </g>
      <g id="アートワーク_85" data-name="アートワーク 85" transform="translate(680.641 211.853) rotate(21)">
        <g id="グループ_1110537" data-name="グループ 1110537" transform="translate(-6.444 -6.29)">
          <path id="手-2" data-name="手" d="M3.9.1A5.334,5.334,0,0,0,.259,4.14a6.1,6.1,0,0,0,4.5,7.017A5.439,5.439,0,0,0,11.57,7.05a5.831,5.831,0,0,0-.613-3.971" transform="translate(0.53 0.566)" fill="#c79280"/>
          <path id="パス_1149431" data-name="パス 1149431" d="M6.788,12.7a6.02,6.02,0,0,0,6.131-4.793,6.533,6.533,0,0,0-.684-4.434.7.7,0,0,0-.914-.308.643.643,0,0,0-.26.895A5.17,5.17,0,0,1,11.6,7.567,4.765,4.765,0,0,1,6.75,11.361,5.222,5.222,0,0,1,5.588,11.2,5.4,5.4,0,0,1,1.608,5,4.694,4.694,0,0,1,4.827,1.429.635.635,0,0,0,5.222.591a.709.709,0,0,0-.864-.44A5.93,5.93,0,0,0,.291,4.658a6.527,6.527,0,0,0,.941,4.867A6.889,6.889,0,0,0,5.32,12.492,6.6,6.6,0,0,0,6.788,12.7Z" transform="translate(-0.16 -0.121)" fill="#231815"/>
        </g>
      </g>
    </g>
  </g>
</svg>
