<svg xmlns="http://www.w3.org/2000/svg" width="50" height="50" viewBox="0 0 50 50">
  <g id="グループ_1123289" data-name="グループ 1123289" transform="translate(-1745 -545.813)">
    <g id="パス_1144197" data-name="パス 1144197" transform="translate(1745 595.813) rotate(-90)" fill="#ffa1c4">
      <path d="M25,0A25,25,0,1,1,0,25,25,25,0,0,1,25,0Z" stroke="none"/>
      <path d="M 25 3 C 22.02869987487793 3 19.14785957336426 3.581260681152344 16.43753051757812 4.727638244628906 C 13.81813812255859 5.835540771484375 11.46506118774414 7.4222412109375 9.443649291992188 9.443649291992188 C 7.4222412109375 11.46506118774414 5.835540771484375 13.81813812255859 4.727638244628906 16.43753051757812 C 3.581260681152344 19.14785957336426 3 22.02869987487793 3 25 C 3 27.97130012512207 3.581260681152344 30.85214042663574 4.727638244628906 33.56246948242188 C 5.835540771484375 36.18186187744141 7.4222412109375 38.53493881225586 9.443649291992188 40.55635070800781 C 11.46506118774414 42.5777587890625 13.81813812255859 44.16445922851562 16.43753051757812 45.27236175537109 C 19.14785957336426 46.41873931884766 22.02869987487793 47 25 47 C 27.97130012512207 47 30.85214042663574 46.41873931884766 33.56246948242188 45.27236175537109 C 36.18186187744141 44.16445922851562 38.53493881225586 42.5777587890625 40.55635070800781 40.55635070800781 C 42.5777587890625 38.53493881225586 44.16445922851562 36.18186187744141 45.27236175537109 33.56246948242188 C 46.41873931884766 30.85214042663574 47 27.97130012512207 47 25 C 47 22.02869987487793 46.41873931884766 19.14785957336426 45.27236175537109 16.43753051757812 C 44.16445922851562 13.81813812255859 42.5777587890625 11.46506118774414 40.55635070800781 9.443649291992188 C 38.53493881225586 7.4222412109375 36.18186187744141 5.835540771484375 33.56246948242188 4.727638244628906 C 30.85214042663574 3.581260681152344 27.97130012512207 3 25 3 M 25 0 C 38.80712127685547 0 50 11.19287872314453 50 25 C 50 38.80712127685547 38.80712127685547 50 25 50 C 11.19287872314453 50 0 38.80712127685547 0 25 C 0 11.19287872314453 11.19287872314453 0 25 0 Z" stroke="none" fill="rgba(255,255,255,0.4)"/>
    </g>
    <path id="合体_17" data-name="合体 17" d="M.472.434A1.46,1.46,0,0,0,.006,1.508,1.445,1.445,0,0,0,.473,2.571l5.8,5.5L.468,13.561a1.454,1.454,0,0,0,0,2.139,1.609,1.609,0,0,0,1.1.43,1.609,1.609,0,0,0,1.1-.43L9.614,9.139A1.452,1.452,0,0,0,9.66,7.05l-.013-.011L2.686.434A1.6,1.6,0,0,0,1.58,0,1.6,1.6,0,0,0,.472.434Z" transform="translate(1761.936 574.912) rotate(-90)" fill="#fff"/>
  </g>
</svg>
