<svg xmlns="http://www.w3.org/2000/svg" xmlns:xlink="http://www.w3.org/1999/xlink" width="60" height="74" viewBox="0 0 60 74">
  <defs>
    <clipPath id="clip-path">
      <rect id="長方形_427980" data-name="長方形 427980" width="60" height="74" transform="translate(1866 380)" fill="#fff" stroke="#707070" stroke-width="1" opacity="0.39"/>
    </clipPath>
  </defs>
  <g id="グループ_1124627" data-name="グループ 1124627" transform="translate(-24 -395)">
    <g id="マスクグループ_892236" data-name="マスクグループ 892236" transform="translate(-1842 15)" clip-path="url(#clip-path)">
      <g id="アートワーク_84" data-name="アートワーク 84" transform="matrix(0.891, 0.454, -0.454, 0.891, 1910.029, 402.126)">
        <g id="グループ_1110554" data-name="グループ 1110554" transform="translate(-20 -22.166)">
          <g id="グループ_1110547" data-name="グループ 1110547" transform="translate(0 25.864)">
            <path id="手" d="M686.277,559.984a4.054,4.054,0,1,0-.8,5.221" transform="translate(-678.309 -557.601)" fill="#c79280"/>
            <path id="パス_1149448" data-name="パス 1149448" d="M673.305,557.125a4.526,4.526,0,0,0,2.946-1.09.472.472,0,1,0-.615-.716,3.582,3.582,0,1,1,.71-4.613.472.472,0,0,0,.8-.5,4.526,4.526,0,1,0-3.842,6.919Z" transform="translate(-668.779 -548.073)" fill="#231815"/>
          </g>
          <g id="グループ_1110548" data-name="グループ 1110548" transform="translate(5.096 16.448)">
            <path id="肉体" d="M114.667,369.971q.2-2.439.514-5.417a30.26,30.26,0,0,1,1.272-6.012h21.6a3.145,3.145,0,0,1,3.184,2.77l1.873,19.2a3.846,3.846,0,0,1,.122.96q0,.111-.006.221l.006.066h-.011a3.655,3.655,0,0,1-3.667,3.721,4.252,4.252,0,0,1-3.441-1.713,5.332,5.332,0,0,1-3.96,1.713,4.252,4.252,0,0,1-3.441-1.713,4.252,4.252,0,0,1-3.441,1.713,5.227,5.227,0,0,1-3.913-1.713,4.252,4.252,0,0,1-3.441,1.713,3.7,3.7,0,0,1-3.714-3.721h-.011s-.026-1.946.1-6.131C114.359,373.373,114.667,369.971,114.667,369.971Z" transform="translate(-113.713 -358.07)" fill="#c79280"/>
            <path id="パス_1149449" data-name="パス 1149449" d="M108.384,376.426a4.769,4.769,0,0,0,3.451-1.463,6.032,6.032,0,0,0,3.9,1.463,4.769,4.769,0,0,0,3.441-1.452,4.769,4.769,0,0,0,3.441,1.452,6.232,6.232,0,0,0,3.948-1.465,4.769,4.769,0,0,0,3.453,1.465,3.907,3.907,0,0,0,2.954-1.232,4.72,4.72,0,0,0,1.176-2.824.471.471,0,0,0,.018-.183l0-.03c0-.071.005-.142.005-.21a4.323,4.323,0,0,0-.127-1.042l-1.87-19.166a3.469,3.469,0,0,0-1.19-2.284,3.749,3.749,0,0,0-2.464-.912h-21.6a.472.472,0,0,0-.446.318,30.445,30.445,0,0,0-1.3,6.116c-.2,1.872-.372,3.7-.515,5.426-.008.095-.31,3.461-.378,5.686-.128,4.147-.1,6.132-.1,6.152a.473.473,0,0,0,.021.132A4.145,4.145,0,0,0,108.384,376.426Zm3.441-2.657a.472.472,0,0,0-.381.193,3.793,3.793,0,0,1-3.06,1.52,3.222,3.222,0,0,1-3.244-3.284.465.465,0,0,0-.01-.07c0-.445-.008-2.4.1-6.011.068-2.217.372-5.6.375-5.632v0c.142-1.721.314-3.54.513-5.406a30.754,30.754,0,0,1,1.146-5.59h21.253a2.661,2.661,0,0,1,2.715,2.344l1.873,19.2a.471.471,0,0,0,.013.072,3.381,3.381,0,0,1,.107.843c0,.063,0,.128-.006.194,0,.009,0,.019,0,.028s0,.019,0,.029c-.117,1.588-1.019,3.284-3.2,3.284a3.793,3.793,0,0,1-3.06-1.52.472.472,0,0,0-.761,0,4.846,4.846,0,0,1-3.58,1.52,3.793,3.793,0,0,1-3.06-1.52.472.472,0,0,0-.761,0,3.793,3.793,0,0,1-3.06,1.52,4.781,4.781,0,0,1-3.532-1.52A.472.472,0,0,0,111.825,373.769Z" transform="translate(-104.185 -348.542)" fill="#231815"/>
          </g>
          <g id="耳" transform="translate(4.578)">
            <g id="グループ_1110549" data-name="グループ 1110549">
              <path id="パス_1149450" data-name="パス 1149450" d="M31.5,20.421a21.636,21.636,0,0,1,6.662-.866,30.011,30.011,0,0,1,6.316.668,26.42,26.42,0,0,1-5.555,7.331,9.658,9.658,0,0,1,.3,4.659c-.312,1.311-1.767,1.428-2.448,2.492-.433.677.463,3.616-1.532,3.62-1.621,0-.666-2.849-2.2-3.531-1.737-.773-2.46.417-3.859-.849s.2-3.464-2.265-4.33-11.308.671-13.946,0c-2.4-.611-3.768-4.131-2.484-6.529a7.356,7.356,0,0,1,3.083-3.2,21.914,21.914,0,0,1,2.6-4.8c1.732-2.4,4.8-5.4,5.929-5.063s1.932,9.127,1.932,9.127A15.419,15.419,0,0,1,31.5,20.421Z" transform="translate(-9.525 -9.531)" fill="#fff"/>
              <path id="パス_1149451" data-name="パス 1149451" d="M25.717,29.266h0a1.629,1.629,0,0,0,1.644-1.136,5.51,5.51,0,0,0,.214-1.8,3.49,3.49,0,0,1,.072-.908,3.168,3.168,0,0,1,1.009-.872,2.909,2.909,0,0,0,1.5-1.764,9.817,9.817,0,0,0-.225-4.618A26.764,26.764,0,0,0,35.375,10.9a.472.472,0,0,0-.313-.663,30.219,30.219,0,0,0-6.425-.682A22.989,22.989,0,0,0,22,10.387a16.268,16.268,0,0,0-7.06-1.273c-.078-.77-.253-2.382-.5-4a30.518,30.518,0,0,0-.622-3.173c-.326-1.213-.645-1.762-1.1-1.9A2.015,2.015,0,0,0,11.183.4,10.231,10.231,0,0,0,9.524,1.653,24.178,24.178,0,0,0,6.267,5.284a22.553,22.553,0,0,0-2.592,4.735A8.1,8.1,0,0,0,.552,13.332,5.288,5.288,0,0,0,.494,17.92a4.414,4.414,0,0,0,2.842,2.621c1.328.338,3.971.158,6.769-.031,2.782-.189,5.936-.4,7.137.019,1.129.4,1.18,1.061,1.25,1.98a3.049,3.049,0,0,0,.855,2.255,2.653,2.653,0,0,0,2.336.715,2.949,2.949,0,0,1,1.648.215c.478.212.618.769.777,1.593S24.49,29.266,25.717,29.266Zm8.526-18.24a25.953,25.953,0,0,1-5.161,6.644.472.472,0,0,0-.134.505,9.241,9.241,0,0,1,.293,4.4c-.135.566-.559.842-1.1,1.191a3.989,3.989,0,0,0-1.29,1.156,2.768,2.768,0,0,0-.22,1.407c-.013,1.406-.143,1.994-.916,2h0c-.369,0-.49-.217-.683-1.214a2.75,2.75,0,0,0-1.321-2.276,3.879,3.879,0,0,0-2.111-.293,1.735,1.735,0,0,1-1.623-.475,2.219,2.219,0,0,1-.547-1.628,2.675,2.675,0,0,0-1.878-2.8c-1.384-.486-4.361-.284-7.513-.071-2.6.176-5.291.359-6.473.058A3.485,3.485,0,0,1,1.357,17.54a4.4,4.4,0,0,1,.026-3.762,7,7,0,0,1,2.861-2.99.476.476,0,0,0,.251-.27A21.646,21.646,0,0,1,7.032,5.837a23.181,23.181,0,0,1,3.122-3.481C11.47,1.177,12.187.917,12.415.944c.1.11.565.789,1.122,4.537.315,2.122.5,4.166.5,4.187a.472.472,0,0,0,.533.425,15.109,15.109,0,0,1,7.211,1.231.472.472,0,0,0,.344.012,21.349,21.349,0,0,1,6.357-.84h.146A31.566,31.566,0,0,1,34.243,11.026ZM12.4.928Z" transform="translate(0 0)" fill="#231815"/>
            </g>
            <path id="パス_1149452" data-name="パス 1149452" d="M75.464,258.823a17.923,17.923,0,0,0-6.8.666,12.153,12.153,0,0,0-2.484,1.1s1.7.878,3.287,1.865c1.047.652,1.888,1.313,1.888,1.313s1.773-1.809,2.64-2.875A20,20,0,0,0,75.464,258.823Z" transform="translate(-43.166 -246.533)" fill="#ffb5bd"/>
            <path id="パス_1149453" data-name="パス 1149453" d="M541.377,73.182s-1.965,6.051-2.185,6.262c-.392.07-1.3.283-2.661.583C536.681,79.361,539.643,74.248,541.377,73.182Z" transform="translate(-531.274 -69.729)" fill="#ffb5bd"/>
          </g>
          <g id="さくらんぼ" transform="translate(18.267 3.565)">
            <g id="グループ_1110550" data-name="グループ 1110550" transform="translate(0 1.824)">
              <ellipse id="楕円形_245707" data-name="楕円形 245707" cx="4.197" cy="4.197" rx="4.197" ry="4.197" transform="translate(0.472 0.474)" fill="#ffb5bd"/>
              <path id="パス_1149454" data-name="パス 1149454" d="M267.288,123.558a4.676,4.676,0,1,0-1.107-.133A4.705,4.705,0,0,0,267.288,123.558Zm-.015-8.4a3.754,3.754,0,0,1,.883.106,3.725,3.725,0,1,1-4.5,2.744h0a3.729,3.729,0,0,1,3.614-2.85Z" transform="translate(-262.61 -114.216)" fill="#231815"/>
            </g>
            <g id="グループ_1110551" data-name="グループ 1110551" transform="translate(4.987)">
              <path id="パス_1149455" data-name="パス 1149455" d="M266.069,85.554a11.113,11.113,0,0,0-3.9,4.228" transform="translate(-261.695 -85.082)" fill="#fff"/>
              <path id="パス_1149456" data-name="パス 1149456" d="M252.646,80.725a.472.472,0,0,0,.418-.252,10.752,10.752,0,0,1,3.717-4.037.472.472,0,0,0-.463-.822,11.509,11.509,0,0,0-4.089,4.419.472.472,0,0,0,.417.692Z" transform="translate(-252.174 -75.554)" fill="#231815"/>
            </g>
            <path id="パス_1149457" data-name="パス 1149457" d="M306.883,151.545a3.014,3.014,0,0,0,1.018-.172.283.283,0,0,0-.206-.527,2.434,2.434,0,0,1-1.685-.045,1.614,1.614,0,0,1-.931-1.136.283.283,0,0,0-.559.088,2.186,2.186,0,0,0,1.261,1.566A2.71,2.71,0,0,0,306.883,151.545Z" transform="translate(-300.718 -145.942)"/>
          </g>
          <g id="表情_ω_楽しい" data-name="表情　&gt;ω&lt;楽しい" transform="translate(8.913 23.2)">
            <path id="パス_1149458" data-name="パス 1149458" d="M487.281,553.573a1.2,1.2,0,0,0,1.035-.7,2.217,2.217,0,0,0,1.393.684h0a.957.957,0,0,0,.81-.339,1.038,1.038,0,0,0,.14-.844.283.283,0,0,0-.547.145.484.484,0,0,1-.044.356.472.472,0,0,1-.36.115h0c-.5,0-1.088-.587-1.272-.813a.283.283,0,0,0-.5.113c-.008.032-.2.8-.77.7a.47.47,0,0,1-.36-.526.283.283,0,0,0-.565-.042,1.023,1.023,0,0,0,.828,1.126A1.207,1.207,0,0,0,487.281,553.573Z" transform="translate(-482.554 -549.223)" fill="#231815"/>
            <g id="グループ_1110552" data-name="グループ 1110552" transform="translate(10.748 2.744)">
              <path id="パス_1149459" data-name="パス 1149459" d="M395.343,570.758a.239.239,0,0,0,.041-.474l-1.277-.224a.239.239,0,1,0-.083.47l1.277.224A.242.242,0,0,0,395.343,570.758Z" transform="translate(-393.827 -569.098)" fill="#231815"/>
              <path id="パス_1149460" data-name="パス 1149460" d="M394.065,550.457a.241.241,0,0,0,.042,0l1.277-.224a.239.239,0,0,0-.083-.47l-1.277.225a.239.239,0,0,0,.041.474Z" transform="translate(-393.827 -549.755)" fill="#231815"/>
            </g>
            <g id="グループ_1110553" data-name="グループ 1110553" transform="translate(0 2.744)">
              <path id="パス_1149461" data-name="パス 1149461" d="M621.828,570.758a.241.241,0,0,0,.042,0l1.277-.224a.239.239,0,0,0-.083-.47l-1.277.224a.239.239,0,0,0,.041.474Z" transform="translate(-621.59 -569.099)" fill="#231815"/>
              <path id="パス_1149462" data-name="パス 1149462" d="M623.105,550.457a.239.239,0,0,0,.041-.474l-1.277-.225a.239.239,0,1,0-.083.47l1.277.224A.242.242,0,0,0,623.105,550.457Z" transform="translate(-621.59 -549.755)" fill="#231815"/>
            </g>
            <path id="パス_1149463" data-name="パス 1149463" d="M442.516,494.521a.354.354,0,0,0,.168-.666l-1.307-.7,1.356-.889a.354.354,0,0,0-.388-.592l-1.853,1.216a.354.354,0,0,0,.027.608l1.832.983A.353.353,0,0,0,442.516,494.521Z" transform="translate(-432.584 -491.615)" fill="#231815"/>
            <path id="パス_1149464" data-name="パス 1149464" d="M570.756,495.1a.351.351,0,0,0,.168-.043l1.714-.926a.354.354,0,0,0,.031-.6l-1.744-1.184a.354.354,0,1,0-.4.586l1.262.857-1.2.649a.354.354,0,0,0,.169.665Z" transform="translate(-568.652 -492.25)" fill="#231815"/>
          </g>
        </g>
      </g>
      <g id="グループ_1110113" data-name="グループ 1110113" transform="translate(121 -142)">
        <g id="パス_1148417" data-name="パス 1148417" transform="translate(1745 595.813) rotate(-90)" fill="#ffa1c4">
          <path d="M25,0A25,25,0,1,1,0,25,25,25,0,0,1,25,0Z" stroke="none"/>
          <path d="M 25 3 C 22.02869987487793 3 19.14785957336426 3.581260681152344 16.43753051757812 4.727638244628906 C 13.81813812255859 5.835540771484375 11.46506118774414 7.4222412109375 9.443649291992188 9.443649291992188 C 7.4222412109375 11.46506118774414 5.835540771484375 13.81813812255859 4.727638244628906 16.43753051757812 C 3.581260681152344 19.14785957336426 3 22.02869987487793 3 25 C 3 27.97130012512207 3.581260681152344 30.85214042663574 4.727638244628906 33.56246948242188 C 5.835540771484375 36.18186187744141 7.4222412109375 38.53493881225586 9.443649291992188 40.55635070800781 C 11.46506118774414 42.5777587890625 13.81813812255859 44.16445922851562 16.43753051757812 45.27236175537109 C 19.14785957336426 46.41873931884766 22.02869987487793 47 25 47 C 27.97130012512207 47 30.85214042663574 46.41873931884766 33.56246948242188 45.27236175537109 C 36.18186187744141 44.16445922851562 38.53493881225586 42.5777587890625 40.55635070800781 40.55635070800781 C 42.5777587890625 38.53493881225586 44.16445922851562 36.18186187744141 45.27236175537109 33.56246948242188 C 46.41873931884766 30.85214042663574 47 27.97130012512207 47 25 C 47 22.02869987487793 46.41873931884766 19.14785957336426 45.27236175537109 16.43753051757812 C 44.16445922851562 13.81813812255859 42.5777587890625 11.46506118774414 40.55635070800781 9.443649291992188 C 38.53493881225586 7.4222412109375 36.18186187744141 5.835540771484375 33.56246948242188 4.727638244628906 C 30.85214042663574 3.581260681152344 27.97130012512207 3 25 3 M 25 0 C 38.80712127685547 0 50 11.19287872314453 50 25 C 50 38.80712127685547 38.80712127685547 50 25 50 C 11.19287872314453 50 0 38.80712127685547 0 25 C 0 11.19287872314453 11.19287872314453 0 25 0 Z" stroke="none" fill="rgba(255,255,255,0.3)"/>
        </g>
        <path id="合体_32" data-name="合体 32" d="M.472.434A1.46,1.46,0,0,0,.006,1.508,1.445,1.445,0,0,0,.473,2.571l5.8,5.5L.468,13.561a1.454,1.454,0,0,0,0,2.139,1.609,1.609,0,0,0,1.1.43,1.609,1.609,0,0,0,1.1-.43L9.614,9.139A1.452,1.452,0,0,0,9.66,7.05l-.013-.011L2.686.434A1.6,1.6,0,0,0,1.58,0,1.6,1.6,0,0,0,.472.434Z" transform="translate(1761.936 574.912) rotate(-90)" fill="#fff"/>
      </g>
      <ellipse id="楕円形_245620" data-name="楕円形 245620" cx="1.327" cy="1.769" rx="1.327" ry="1.769" transform="matrix(0.999, -0.035, 0.035, 0.999, 1912.376, 411.527)" fill="#c79280"/>
      <g id="アートワーク_85" data-name="アートワーク 85" transform="translate(1910.029 414.788) rotate(21)">
        <g id="グループ_1110537" data-name="グループ 1110537" transform="translate(-4.785 -4.67)">
          <path id="手-2" data-name="手" d="M12.887,10a4.285,4.285,0,1,0,5.181,2.08" transform="translate(-9.481 -9.503)" fill="#c79280"/>
          <path id="パス_1149431" data-name="パス 1149431" d="M4.786,9.34A4.784,4.784,0,0,0,9.029,2.348a.5.5,0,1,0-.885.461A3.786,3.786,0,1,1,3.567.971.5.5,0,0,0,3.245.027,4.784,4.784,0,0,0,.723,7.082,4.789,4.789,0,0,0,4.786,9.34Z" transform="translate(0 0)" fill="#231815"/>
        </g>
      </g>
    </g>
  </g>
</svg>
