<svg xmlns="http://www.w3.org/2000/svg" width="70" height="70" viewBox="0 0 70 70">
  <g id="グループ_1122619" data-name="グループ 1122619" transform="translate(-2.501 -3.087)">
    <g id="パス_1148417" data-name="パス 1148417" transform="translate(2.501 73.087) rotate(-90)" fill="#ffa1c4">
      <path d="M35,0A35,35,0,1,1,0,35,35,35,0,0,1,35,0Z" stroke="none"/>
      <path d="M 35 4 C 30.81326293945312 4 26.75388717651367 4.819084167480469 22.93462371826172 6.434486389160156 C 19.24364852905273 7.995651245117188 15.92797470092773 10.23141098022461 13.07968902587891 13.07968902587891 C 10.23141098022461 15.92797470092773 7.995651245117188 19.24364852905273 6.434486389160156 22.93462371826172 C 4.819084167480469 26.75388717651367 4 30.81326293945312 4 35 C 4 39.18673706054688 4.819084167480469 43.24611282348633 6.434486389160156 47.06537628173828 C 7.995651245117188 50.75634765625 10.23141098022461 54.07202529907227 13.07968902587891 56.92031097412109 C 15.92797470092773 59.76858520507812 19.24364852905273 62.00434875488281 22.93462371826172 63.56551361083984 C 26.75388717651367 65.18091583251953 30.81326293945312 66 35 66 C 39.18673706054688 66 43.24611282348633 65.18091583251953 47.06537628173828 63.56551361083984 C 50.75634765625 62.00434875488281 54.07202529907227 59.76858520507812 56.92031097412109 56.92031097412109 C 59.76858520507812 54.07202529907227 62.00434875488281 50.75634765625 63.56551361083984 47.06537628173828 C 65.18091583251953 43.24611282348633 66 39.18673706054688 66 35 C 66 30.81326293945312 65.18091583251953 26.75388717651367 63.56551361083984 22.93462371826172 C 62.00434875488281 19.24364852905273 59.76858520507812 15.92797470092773 56.92031097412109 13.07968902587891 C 54.07202529907227 10.23141098022461 50.75634765625 7.995651245117188 47.06537628173828 6.434486389160156 C 43.24611282348633 4.819084167480469 39.18673706054688 4 35 4 M 35 0 C 54.32996368408203 0 70 15.67003631591797 70 35 C 70 54.32996368408203 54.32996368408203 70 35 70 C 15.67003631591797 70 0 54.32996368408203 0 35 C 0 15.67003631591797 15.67003631591797 0 35 0 Z" stroke="none" fill="rgba(255,255,255,0.3)"/>
    </g>
    <path id="合体_32" data-name="合体 32" d="M.707.651a2.19,2.19,0,0,0-.7,1.611,2.167,2.167,0,0,0,.7,1.594l8.7,8.244L.7,20.341a2.181,2.181,0,0,0,0,3.208,2.414,2.414,0,0,0,1.656.645,2.414,2.414,0,0,0,1.656-.645l10.4-9.841a2.178,2.178,0,0,0,.07-3.134l-.02-.017L4.028.651A2.4,2.4,0,0,0,2.369,0,2.4,2.4,0,0,0,.707.651Z" transform="translate(25.404 39.647) rotate(-90)" fill="#fff"/>
  </g>
</svg>
