<svg xmlns="http://www.w3.org/2000/svg" xmlns:xlink="http://www.w3.org/1999/xlink" width="700" height="3" viewBox="0 0 700 3">
  <defs>
    <clipPath id="clip-path">
      <rect id="長方形_432604" data-name="長方形 432604" width="700" height="3" transform="translate(610 546.5)" fill="#fff" stroke="#707070" stroke-width="1"/>
    </clipPath>
  </defs>
  <g id="マスクグループ_1111061" data-name="マスクグループ 1111061" transform="translate(-610 -546.5)" clip-path="url(#clip-path)">
    <path id="線_2473572" data-name="線 2473572" d="M700.556,1.5h-.006a1.5,1.5,0,0,1-1.5-1.5,1.5,1.5,0,0,1,1.5-1.5h.006a1.5,1.5,0,0,1,1.5,1.5A1.5,1.5,0,0,1,700.556,1.5Zm-7.006,0h-.005a1.5,1.5,0,0,1-1.5-1.5,1.5,1.5,0,0,1,1.5-1.5h.005a1.5,1.5,0,0,1,1.5,1.5A1.5,1.5,0,0,1,693.55,1.5Zm-7.005,0h-.006a1.5,1.5,0,0,1-1.5-1.5,1.5,1.5,0,0,1,1.5-1.5h.006a1.5,1.5,0,0,1,1.5,1.5A1.5,1.5,0,0,1,686.545,1.5Zm-7.006,0h-.005a1.5,1.5,0,0,1-1.5-1.5,1.5,1.5,0,0,1,1.5-1.5h.005a1.5,1.5,0,0,1,1.5,1.5A1.5,1.5,0,0,1,679.539,1.5Zm-7.005,0h-.006a1.5,1.5,0,0,1-1.5-1.5,1.5,1.5,0,0,1,1.5-1.5h.006a1.5,1.5,0,0,1,1.5,1.5A1.5,1.5,0,0,1,672.534,1.5Zm-7.006,0h-.005a1.5,1.5,0,0,1-1.5-1.5,1.5,1.5,0,0,1,1.5-1.5h.005a1.5,1.5,0,0,1,1.5,1.5A1.5,1.5,0,0,1,665.528,1.5Zm-7.005,0h-.005a1.5,1.5,0,0,1-1.5-1.5,1.5,1.5,0,0,1,1.5-1.5h.005a1.5,1.5,0,0,1,1.5,1.5A1.5,1.5,0,0,1,658.523,1.5Zm-7.005,0h-.005a1.5,1.5,0,0,1-1.5-1.5,1.5,1.5,0,0,1,1.5-1.5h.005a1.5,1.5,0,0,1,1.5,1.5A1.5,1.5,0,0,1,651.517,1.5Zm-7.005,0h-.006a1.5,1.5,0,0,1-1.5-1.5,1.5,1.5,0,0,1,1.5-1.5h.006a1.5,1.5,0,0,1,1.5,1.5A1.5,1.5,0,0,1,644.512,1.5Zm-7.006,0H637.5A1.5,1.5,0,0,1,636,0a1.5,1.5,0,0,1,1.5-1.5h.005a1.5,1.5,0,0,1,1.5,1.5A1.5,1.5,0,0,1,637.506,1.5Zm-7.005,0h-.006a1.5,1.5,0,0,1-1.5-1.5,1.5,1.5,0,0,1,1.5-1.5h.006A1.5,1.5,0,0,1,632,0,1.5,1.5,0,0,1,630.5,1.5Zm-7.006,0h-.005a1.5,1.5,0,0,1-1.5-1.5,1.5,1.5,0,0,1,1.5-1.5h.005a1.5,1.5,0,0,1,1.5,1.5A1.5,1.5,0,0,1,623.495,1.5Zm-7.005,0h-.006a1.5,1.5,0,0,1-1.5-1.5,1.5,1.5,0,0,1,1.5-1.5h.006a1.5,1.5,0,0,1,1.5,1.5A1.5,1.5,0,0,1,616.49,1.5Zm-7.006,0h-.005a1.5,1.5,0,0,1-1.5-1.5,1.5,1.5,0,0,1,1.5-1.5h.005a1.5,1.5,0,0,1,1.5,1.5A1.5,1.5,0,0,1,609.484,1.5Zm-7.005,0h-.005a1.5,1.5,0,0,1-1.5-1.5,1.5,1.5,0,0,1,1.5-1.5h.005a1.5,1.5,0,0,1,1.5,1.5A1.5,1.5,0,0,1,602.479,1.5Zm-7.005,0h-.005a1.5,1.5,0,0,1-1.5-1.5,1.5,1.5,0,0,1,1.5-1.5h.005a1.5,1.5,0,0,1,1.5,1.5A1.5,1.5,0,0,1,595.473,1.5Zm-7.005,0h-.006a1.5,1.5,0,0,1-1.5-1.5,1.5,1.5,0,0,1,1.5-1.5h.006a1.5,1.5,0,0,1,1.5,1.5A1.5,1.5,0,0,1,588.468,1.5Zm-7.006,0h-.005a1.5,1.5,0,0,1-1.5-1.5,1.5,1.5,0,0,1,1.5-1.5h.005a1.5,1.5,0,0,1,1.5,1.5A1.5,1.5,0,0,1,581.462,1.5Zm-7.005,0h-.006a1.5,1.5,0,0,1-1.5-1.5,1.5,1.5,0,0,1,1.5-1.5h.006a1.5,1.5,0,0,1,1.5,1.5A1.5,1.5,0,0,1,574.457,1.5Zm-7.006,0h-.005a1.5,1.5,0,0,1-1.5-1.5,1.5,1.5,0,0,1,1.5-1.5h.005a1.5,1.5,0,0,1,1.5,1.5A1.5,1.5,0,0,1,567.451,1.5Zm-7.005,0h-.006a1.5,1.5,0,0,1-1.5-1.5,1.5,1.5,0,0,1,1.5-1.5h.006a1.5,1.5,0,0,1,1.5,1.5A1.5,1.5,0,0,1,560.446,1.5Zm-7.006,0h-.005a1.5,1.5,0,0,1-1.5-1.5,1.5,1.5,0,0,1,1.5-1.5h.005a1.5,1.5,0,0,1,1.5,1.5A1.5,1.5,0,0,1,553.44,1.5Zm-7.005,0h-.006a1.5,1.5,0,0,1-1.5-1.5,1.5,1.5,0,0,1,1.5-1.5h.006a1.5,1.5,0,0,1,1.5,1.5A1.5,1.5,0,0,1,546.435,1.5Zm-7.006,0h-.005a1.5,1.5,0,0,1-1.5-1.5,1.5,1.5,0,0,1,1.5-1.5h.005a1.5,1.5,0,0,1,1.5,1.5A1.5,1.5,0,0,1,539.429,1.5Zm-7.005,0h-.005a1.5,1.5,0,0,1-1.5-1.5,1.5,1.5,0,0,1,1.5-1.5h.005a1.5,1.5,0,0,1,1.5,1.5A1.5,1.5,0,0,1,532.424,1.5Zm-7.005,0h-.005a1.5,1.5,0,0,1-1.5-1.5,1.5,1.5,0,0,1,1.5-1.5h.005a1.5,1.5,0,0,1,1.5,1.5A1.5,1.5,0,0,1,525.418,1.5Zm-7.005,0h-.006a1.5,1.5,0,0,1-1.5-1.5,1.5,1.5,0,0,1,1.5-1.5h.006a1.5,1.5,0,0,1,1.5,1.5A1.5,1.5,0,0,1,518.413,1.5Zm-7.006,0H511.4A1.5,1.5,0,0,1,509.9,0a1.5,1.5,0,0,1,1.5-1.5h.005a1.5,1.5,0,0,1,1.5,1.5A1.5,1.5,0,0,1,511.407,1.5Zm-7.005,0H504.4A1.5,1.5,0,0,1,502.9,0a1.5,1.5,0,0,1,1.5-1.5h.006A1.5,1.5,0,0,1,505.9,0,1.5,1.5,0,0,1,504.4,1.5Zm-7.006,0h-.005a1.5,1.5,0,0,1-1.5-1.5,1.5,1.5,0,0,1,1.5-1.5h.005A1.5,1.5,0,0,1,498.9,0,1.5,1.5,0,0,1,497.4,1.5Zm-7.005,0h-.006a1.5,1.5,0,0,1-1.5-1.5,1.5,1.5,0,0,1,1.5-1.5h.006a1.5,1.5,0,0,1,1.5,1.5A1.5,1.5,0,0,1,490.391,1.5Zm-7.006,0h-.005a1.5,1.5,0,0,1-1.5-1.5,1.5,1.5,0,0,1,1.5-1.5h.005a1.5,1.5,0,0,1,1.5,1.5A1.5,1.5,0,0,1,483.385,1.5Zm-7.005,0h-.006a1.5,1.5,0,0,1-1.5-1.5,1.5,1.5,0,0,1,1.5-1.5h.006a1.5,1.5,0,0,1,1.5,1.5A1.5,1.5,0,0,1,476.38,1.5Zm-7.006,0h-.005a1.5,1.5,0,0,1-1.5-1.5,1.5,1.5,0,0,1,1.5-1.5h.005a1.5,1.5,0,0,1,1.5,1.5A1.5,1.5,0,0,1,469.374,1.5Zm-7.005,0h-.006a1.5,1.5,0,0,1-1.5-1.5,1.5,1.5,0,0,1,1.5-1.5h.006a1.5,1.5,0,0,1,1.5,1.5A1.5,1.5,0,0,1,462.369,1.5Zm-7.006,0h-.005a1.5,1.5,0,0,1-1.5-1.5,1.5,1.5,0,0,1,1.5-1.5h.005a1.5,1.5,0,0,1,1.5,1.5A1.5,1.5,0,0,1,455.363,1.5Zm-7.005,0h-.006a1.5,1.5,0,0,1-1.5-1.5,1.5,1.5,0,0,1,1.5-1.5h.006a1.5,1.5,0,0,1,1.5,1.5A1.5,1.5,0,0,1,448.358,1.5Zm-7.006,0h-.005a1.5,1.5,0,0,1-1.5-1.5,1.5,1.5,0,0,1,1.5-1.5h.005a1.5,1.5,0,0,1,1.5,1.5A1.5,1.5,0,0,1,441.352,1.5Zm-7.005,0h-.006a1.5,1.5,0,0,1-1.5-1.5,1.5,1.5,0,0,1,1.5-1.5h.006a1.5,1.5,0,0,1,1.5,1.5A1.5,1.5,0,0,1,434.347,1.5Zm-7.006,0h-.005a1.5,1.5,0,0,1-1.5-1.5,1.5,1.5,0,0,1,1.5-1.5h.005a1.5,1.5,0,0,1,1.5,1.5A1.5,1.5,0,0,1,427.341,1.5Zm-7.005,0h-.006a1.5,1.5,0,0,1-1.5-1.5,1.5,1.5,0,0,1,1.5-1.5h.006a1.5,1.5,0,0,1,1.5,1.5A1.5,1.5,0,0,1,420.336,1.5Zm-7.006,0h-.005a1.5,1.5,0,0,1-1.5-1.5,1.5,1.5,0,0,1,1.5-1.5h.005a1.5,1.5,0,0,1,1.5,1.5A1.5,1.5,0,0,1,413.33,1.5Zm-7.005,0h-.006a1.5,1.5,0,0,1-1.5-1.5,1.5,1.5,0,0,1,1.5-1.5h.006a1.5,1.5,0,0,1,1.5,1.5A1.5,1.5,0,0,1,406.325,1.5Zm-7.006,0h-.005a1.5,1.5,0,0,1-1.5-1.5,1.5,1.5,0,0,1,1.5-1.5h.005a1.5,1.5,0,0,1,1.5,1.5A1.5,1.5,0,0,1,399.319,1.5Zm-7.005,0h-.006a1.5,1.5,0,0,1-1.5-1.5,1.5,1.5,0,0,1,1.5-1.5h.006a1.5,1.5,0,0,1,1.5,1.5A1.5,1.5,0,0,1,392.314,1.5Zm-7.006,0H385.3A1.5,1.5,0,0,1,383.8,0a1.5,1.5,0,0,1,1.5-1.5h.005a1.5,1.5,0,0,1,1.5,1.5A1.5,1.5,0,0,1,385.308,1.5Zm-7.005,0H378.3A1.5,1.5,0,0,1,376.8,0a1.5,1.5,0,0,1,1.5-1.5h.006A1.5,1.5,0,0,1,379.8,0,1.5,1.5,0,0,1,378.3,1.5Zm-7.006,0h-.005a1.5,1.5,0,0,1-1.5-1.5,1.5,1.5,0,0,1,1.5-1.5h.005A1.5,1.5,0,0,1,372.8,0,1.5,1.5,0,0,1,371.3,1.5Zm-7.005,0h-.006a1.5,1.5,0,0,1-1.5-1.5,1.5,1.5,0,0,1,1.5-1.5h.006a1.5,1.5,0,0,1,1.5,1.5A1.5,1.5,0,0,1,364.292,1.5Zm-7.006,0h-.005a1.5,1.5,0,0,1-1.5-1.5,1.5,1.5,0,0,1,1.5-1.5h.005a1.5,1.5,0,0,1,1.5,1.5A1.5,1.5,0,0,1,357.286,1.5Zm-7.005,0h-.006a1.5,1.5,0,0,1-1.5-1.5,1.5,1.5,0,0,1,1.5-1.5h.006a1.5,1.5,0,0,1,1.5,1.5A1.5,1.5,0,0,1,350.281,1.5Zm-7.006,0h-.005a1.5,1.5,0,0,1-1.5-1.5,1.5,1.5,0,0,1,1.5-1.5h.005a1.5,1.5,0,0,1,1.5,1.5A1.5,1.5,0,0,1,343.275,1.5Zm-7.005,0h-.006a1.5,1.5,0,0,1-1.5-1.5,1.5,1.5,0,0,1,1.5-1.5h.006a1.5,1.5,0,0,1,1.5,1.5A1.5,1.5,0,0,1,336.27,1.5Zm-7.006,0h-.005a1.5,1.5,0,0,1-1.5-1.5,1.5,1.5,0,0,1,1.5-1.5h.005a1.5,1.5,0,0,1,1.5,1.5A1.5,1.5,0,0,1,329.264,1.5Zm-7.005,0h-.006a1.5,1.5,0,0,1-1.5-1.5,1.5,1.5,0,0,1,1.5-1.5h.006a1.5,1.5,0,0,1,1.5,1.5A1.5,1.5,0,0,1,322.259,1.5Zm-7.006,0h-.005a1.5,1.5,0,0,1-1.5-1.5,1.5,1.5,0,0,1,1.5-1.5h.005a1.5,1.5,0,0,1,1.5,1.5A1.5,1.5,0,0,1,315.253,1.5Zm-7.005,0h-.006a1.5,1.5,0,0,1-1.5-1.5,1.5,1.5,0,0,1,1.5-1.5h.006C309.076-1.5,309.076,1.5,308.248,1.5Zm-7.006,0h-.005a1.5,1.5,0,0,1-1.5-1.5,1.5,1.5,0,0,1,1.5-1.5h.005a1.5,1.5,0,0,1,1.5,1.5A1.5,1.5,0,0,1,301.242,1.5Zm-7.005,0h-.006a1.5,1.5,0,0,1-1.5-1.5,1.5,1.5,0,0,1,1.5-1.5h.006a1.5,1.5,0,0,1,1.5,1.5A1.5,1.5,0,0,1,294.237,1.5Zm-7.006,0h-.005a1.5,1.5,0,0,1-1.5-1.5,1.5,1.5,0,0,1,1.5-1.5h.005a1.5,1.5,0,0,1,1.5,1.5A1.5,1.5,0,0,1,287.231,1.5Zm-7.005,0h-.006a1.5,1.5,0,0,1-1.5-1.5,1.5,1.5,0,0,1,1.5-1.5h.006a1.5,1.5,0,0,1,1.5,1.5A1.5,1.5,0,0,1,280.226,1.5Zm-7.006,0h-.005a1.5,1.5,0,0,1-1.5-1.5,1.5,1.5,0,0,1,1.5-1.5h.005a1.5,1.5,0,0,1,1.5,1.5A1.5,1.5,0,0,1,273.22,1.5Zm-7.005,0h-.006a1.5,1.5,0,0,1-1.5-1.5,1.5,1.5,0,0,1,1.5-1.5h.006a1.5,1.5,0,0,1,1.5,1.5A1.5,1.5,0,0,1,266.215,1.5Zm-7.006,0H259.2A1.5,1.5,0,0,1,257.7,0a1.5,1.5,0,0,1,1.5-1.5h.005a1.5,1.5,0,0,1,1.5,1.5A1.5,1.5,0,0,1,259.209,1.5Zm-7.005,0H252.2A1.5,1.5,0,0,1,250.7,0a1.5,1.5,0,0,1,1.5-1.5h.006A1.5,1.5,0,0,1,253.7,0,1.5,1.5,0,0,1,252.2,1.5Zm-7.006,0h-.005a1.5,1.5,0,0,1-1.5-1.5,1.5,1.5,0,0,1,1.5-1.5h.005A1.5,1.5,0,0,1,246.7,0,1.5,1.5,0,0,1,245.2,1.5Zm-7.005,0h-.006a1.5,1.5,0,0,1-1.5-1.5,1.5,1.5,0,0,1,1.5-1.5h.006a1.5,1.5,0,0,1,1.5,1.5A1.5,1.5,0,0,1,238.193,1.5Zm-7.006,0h-.005a1.5,1.5,0,0,1-1.5-1.5,1.5,1.5,0,0,1,1.5-1.5h.005a1.5,1.5,0,0,1,1.5,1.5A1.5,1.5,0,0,1,231.187,1.5Zm-7.005,0h-.006a1.5,1.5,0,0,1-1.5-1.5,1.5,1.5,0,0,1,1.5-1.5h.006a1.5,1.5,0,0,1,1.5,1.5A1.5,1.5,0,0,1,224.182,1.5Zm-7.006,0h-.005a1.5,1.5,0,0,1-1.5-1.5,1.5,1.5,0,0,1,1.5-1.5h.005a1.5,1.5,0,0,1,1.5,1.5A1.5,1.5,0,0,1,217.176,1.5Zm-7.005,0h-.006a1.5,1.5,0,0,1-1.5-1.5,1.5,1.5,0,0,1,1.5-1.5h.006a1.5,1.5,0,0,1,1.5,1.5A1.5,1.5,0,0,1,210.171,1.5Zm-7.006,0h-.005a1.5,1.5,0,0,1-1.5-1.5,1.5,1.5,0,0,1,1.5-1.5h.005a1.5,1.5,0,0,1,1.5,1.5A1.5,1.5,0,0,1,203.165,1.5Zm-7.005,0h-.006a1.5,1.5,0,0,1-1.5-1.5,1.5,1.5,0,0,1,1.5-1.5h.006a1.5,1.5,0,0,1,1.5,1.5A1.5,1.5,0,0,1,196.16,1.5Zm-7.006,0h-.005a1.5,1.5,0,0,1-1.5-1.5,1.5,1.5,0,0,1,1.5-1.5h.005a1.5,1.5,0,0,1,1.5,1.5A1.5,1.5,0,0,1,189.154,1.5Zm-7.005,0h-.006a1.5,1.5,0,0,1-1.5-1.5,1.5,1.5,0,0,1,1.5-1.5h.006a1.5,1.5,0,0,1,1.5,1.5A1.5,1.5,0,0,1,182.149,1.5Zm-7.011,0a1.5,1.5,0,0,1-1.5-1.5,1.5,1.5,0,0,1,1.5-1.5A1.5,1.5,0,0,1,176.643,0Zm-7,0h-.006a1.5,1.5,0,0,1-1.5-1.5,1.5,1.5,0,0,1,1.5-1.5h.006a1.5,1.5,0,0,1,1.5,1.5A1.5,1.5,0,0,1,168.138,1.5Zm-7.006,0h-.005a1.5,1.5,0,0,1-1.5-1.5,1.5,1.5,0,0,1,1.5-1.5h.005a1.5,1.5,0,0,1,1.5,1.5A1.5,1.5,0,0,1,161.132,1.5Zm-7.005,0h-.006a1.5,1.5,0,0,1-1.5-1.5,1.5,1.5,0,0,1,1.5-1.5h.006a1.5,1.5,0,0,1,1.5,1.5A1.5,1.5,0,0,1,154.127,1.5Zm-7.006,0h-.005a1.5,1.5,0,0,1-1.5-1.5,1.5,1.5,0,0,1,1.5-1.5h.005a1.5,1.5,0,0,1,1.5,1.5A1.5,1.5,0,0,1,147.121,1.5Zm-7.005,0h-.006a1.5,1.5,0,0,1-1.5-1.5,1.5,1.5,0,0,1,1.5-1.5h.006a1.5,1.5,0,0,1,1.5,1.5A1.5,1.5,0,0,1,140.116,1.5Zm-7.006,0H133.1A1.5,1.5,0,0,1,131.6,0a1.5,1.5,0,0,1,1.5-1.5h.005a1.5,1.5,0,0,1,1.5,1.5A1.5,1.5,0,0,1,133.11,1.5Zm-7.005,0H126.1A1.5,1.5,0,0,1,124.6,0a1.5,1.5,0,0,1,1.5-1.5h.006A1.5,1.5,0,0,1,127.6,0,1.5,1.5,0,0,1,126.1,1.5Zm-7.006,0h-.005a1.5,1.5,0,0,1-1.5-1.5,1.5,1.5,0,0,1,1.5-1.5h.005A1.5,1.5,0,0,1,120.6,0,1.5,1.5,0,0,1,119.1,1.5Zm-7.005,0h-.006a1.5,1.5,0,0,1-1.5-1.5,1.5,1.5,0,0,1,1.5-1.5h.006a1.5,1.5,0,0,1,1.5,1.5A1.5,1.5,0,0,1,112.094,1.5Zm-7.006,0h-.005a1.5,1.5,0,0,1-1.5-1.5,1.5,1.5,0,0,1,1.5-1.5h.005a1.5,1.5,0,0,1,1.5,1.5A1.5,1.5,0,0,1,105.088,1.5Zm-7.005,0h-.006a1.5,1.5,0,0,1-1.5-1.5,1.5,1.5,0,0,1,1.5-1.5h.006a1.5,1.5,0,0,1,1.5,1.5A1.5,1.5,0,0,1,98.083,1.5Zm-7.006,0h-.005a1.5,1.5,0,0,1-1.5-1.5,1.5,1.5,0,0,1,1.5-1.5h.005a1.5,1.5,0,0,1,1.5,1.5A1.5,1.5,0,0,1,91.077,1.5Zm-7.005,0h-.006a1.5,1.5,0,0,1-1.5-1.5,1.5,1.5,0,0,1,1.5-1.5h.006a1.5,1.5,0,0,1,1.5,1.5A1.5,1.5,0,0,1,84.072,1.5Zm-7.006,0h-.005a1.5,1.5,0,0,1-1.5-1.5,1.5,1.5,0,0,1,1.5-1.5h.005a1.5,1.5,0,0,1,1.5,1.5A1.5,1.5,0,0,1,77.066,1.5Zm-7.005,0h-.006a1.5,1.5,0,0,1-1.5-1.5,1.5,1.5,0,0,1,1.5-1.5h.006a1.5,1.5,0,0,1,1.5,1.5A1.5,1.5,0,0,1,70.061,1.5Zm-7.006,0H63.05A1.5,1.5,0,0,1,61.55,0a1.5,1.5,0,0,1,1.5-1.5h.005a1.5,1.5,0,0,1,1.5,1.5A1.5,1.5,0,0,1,63.055,1.5Zm-7.005,0h-.006a1.5,1.5,0,0,1-1.5-1.5,1.5,1.5,0,0,1,1.5-1.5h.006A1.5,1.5,0,0,1,57.55,0,1.5,1.5,0,0,1,56.05,1.5Zm-7.006,0h-.005a1.5,1.5,0,0,1-1.5-1.5,1.5,1.5,0,0,1,1.5-1.5h.005a1.5,1.5,0,0,1,1.5,1.5A1.5,1.5,0,0,1,49.044,1.5Zm-7.005,0h-.006a1.5,1.5,0,0,1-1.5-1.5,1.5,1.5,0,0,1,1.5-1.5h.006a1.5,1.5,0,0,1,1.5,1.5A1.5,1.5,0,0,1,42.039,1.5Zm-7.006,0h-.005a1.5,1.5,0,0,1-1.5-1.5,1.5,1.5,0,0,1,1.5-1.5h.005a1.5,1.5,0,0,1,1.5,1.5A1.5,1.5,0,0,1,35.033,1.5Zm-7.005,0h-.006a1.5,1.5,0,0,1-1.5-1.5,1.5,1.5,0,0,1,1.5-1.5h.006a1.5,1.5,0,0,1,1.5,1.5A1.5,1.5,0,0,1,28.028,1.5Zm-7.006,0h-.005a1.5,1.5,0,0,1-1.5-1.5,1.5,1.5,0,0,1,1.5-1.5h.005a1.5,1.5,0,0,1,1.5,1.5A1.5,1.5,0,0,1,21.022,1.5Zm-7.005,0h-.006a1.5,1.5,0,0,1-1.5-1.5,1.5,1.5,0,0,1,1.5-1.5h.006a1.5,1.5,0,0,1,1.5,1.5A1.5,1.5,0,0,1,14.017,1.5Zm-7.006,0H7.006A1.5,1.5,0,0,1,5.506,0a1.5,1.5,0,0,1,1.5-1.5h.005A1.5,1.5,0,0,1,8.511,0,1.5,1.5,0,0,1,7.011,1.5Z" transform="translate(606.494 548)" fill="#faacc8"/>
  </g>
</svg>
