<svg xmlns="http://www.w3.org/2000/svg" xmlns:xlink="http://www.w3.org/1999/xlink" width="305" height="2" viewBox="0 0 305 2">
  <defs>
    <clipPath id="clip-path">
      <rect id="長方形_431990" data-name="長方形 431990" width="305" height="2" transform="translate(-13031 -18321)" fill="#fff" stroke="#707070" stroke-width="1"/>
    </clipPath>
  </defs>
  <g id="マスクグループ_1111023" data-name="マスクグループ 1111023" transform="translate(13031 18321)" clip-path="url(#clip-path)">
    <path id="線_2473573" data-name="線 2473573" d="M300.28,1h-.005a1,1,0,0,1-1-1,1,1,0,0,1,1-1h.005a1,1,0,0,1,1,1A1,1,0,0,1,300.28,1Zm-6.005,0h-.005a1,1,0,0,1-1-1,1,1,0,0,1,1-1h.005a1,1,0,0,1,1,1A1,1,0,0,1,294.275,1ZM288.27,1h-.005a1,1,0,0,1-1-1,1,1,0,0,1,1-1h.005a1,1,0,0,1,1,1A1,1,0,0,1,288.27,1Zm-6.005,0h-.005a1,1,0,0,1-1-1,1,1,0,0,1,1-1h.005a1,1,0,0,1,1,1A1,1,0,0,1,282.264,1Zm-6.005,0h-.006a1,1,0,0,1-1-1,1,1,0,0,1,1-1h.006a1,1,0,0,1,1,1A1,1,0,0,1,276.259,1Zm-6.006,0h-.005a1,1,0,0,1-1-1,1,1,0,0,1,1-1h.005a1,1,0,0,1,1,1A1,1,0,0,1,270.253,1Zm-6.005,0h-.005a1,1,0,0,1-1-1,1,1,0,0,1,1-1h.005a1,1,0,0,1,1,1A1,1,0,0,1,264.247,1Zm-6.005,0h-.005a1,1,0,0,1-1-1,1,1,0,0,1,1-1h.005a1,1,0,0,1,1,1A1,1,0,0,1,258.242,1Zm-6.006,0h-.005a1,1,0,0,1-1-1,1,1,0,0,1,1-1h.005a1,1,0,0,1,1,1A1,1,0,0,1,252.236,1Zm-6.005,0h-.006a1,1,0,0,1-1-1,1,1,0,0,1,1-1h.006a1,1,0,0,1,1,1A1,1,0,0,1,246.231,1Zm-6.006,0h-.005a1,1,0,0,1-1-1,1,1,0,0,1,1-1h.005a1,1,0,0,1,1,1A1,1,0,0,1,240.225,1ZM234.22,1h-.006a1,1,0,0,1-1-1,1,1,0,0,1,1-1h.006a1,1,0,0,1,1,1A1,1,0,0,1,234.22,1Zm-6.006,0h-.005a1,1,0,0,1-1-1,1,1,0,0,1,1-1h.005a1,1,0,0,1,1,1A1,1,0,0,1,228.214,1Zm-6.005,0H222.2a1,1,0,0,1-1-1,1,1,0,0,1,1-1h.005a1,1,0,0,1,1,1A1,1,0,0,1,222.209,1ZM216.2,1H216.2a1,1,0,0,1-1-1,1,1,0,0,1,1-1h.006a1,1,0,0,1,1,1A1,1,0,0,1,216.2,1ZM210.2,1h-.005a1,1,0,0,1-1-1,1,1,0,0,1,1-1h.005a1,1,0,0,1,1,1A1,1,0,0,1,210.2,1Zm-6.005,0h-.006a1,1,0,0,1-1-1,1,1,0,0,1,1-1h.006a1,1,0,0,1,1,1A1,1,0,0,1,204.193,1Zm-6.006,0h-.005a1,1,0,0,1-1-1,1,1,0,0,1,1-1h.005a1,1,0,0,1,1,1A1,1,0,0,1,198.187,1Zm-6.005,0h-.006a1,1,0,0,1-1-1,1,1,0,0,1,1-1h.006a1,1,0,0,1,1,1A1,1,0,0,1,192.182,1Zm-6.006,0h-.005a1,1,0,0,1-1-1,1,1,0,0,1,1-1h.005a1,1,0,0,1,1,1A1,1,0,0,1,186.176,1Zm-6.005,0h-.006a1,1,0,0,1-1-1,1,1,0,0,1,1-1h.006a1,1,0,0,1,1,1A1,1,0,0,1,180.171,1Zm-6.006,0h-.005a1,1,0,0,1-1-1,1,1,0,0,1,1-1h.005a1,1,0,0,1,1,1A1,1,0,0,1,174.165,1ZM168.16,1h-.005a1,1,0,0,1-1-1,1,1,0,0,1,1-1h.005a1,1,0,0,1,1,1A1,1,0,0,1,168.16,1Zm-6.005,0h-.006a1,1,0,0,1-1-1,1,1,0,0,1,1-1h.006a1,1,0,0,1,1,1A1,1,0,0,1,162.154,1Zm-6.006,0h-.005a1,1,0,0,1-1-1,1,1,0,0,1,1-1h.005a1,1,0,0,1,1,1A1,1,0,0,1,156.148,1Zm-6.005,0h-.006a1,1,0,0,1-1-1,1,1,0,0,1,1-1h.006a1,1,0,0,1,1,1A1,1,0,0,1,150.143,1Zm-6.006,0h-.005a1,1,0,0,1-1-1,1,1,0,0,1,1-1h.005a1,1,0,0,1,1,1A1,1,0,0,1,144.137,1Zm-6.005,0h-.006a1,1,0,0,1-1-1,1,1,0,0,1,1-1h.006a1,1,0,0,1,1,1A1,1,0,0,1,138.132,1Zm-6.006,0h-.005a1,1,0,0,1-1-1,1,1,0,0,1,1-1h.005a1,1,0,0,1,1,1A1,1,0,0,1,132.126,1Zm-6.005,0h-.006a1,1,0,0,1-1-1,1,1,0,0,1,1-1h.006a1,1,0,0,1,1,1A1,1,0,0,1,126.121,1Zm-6.006,0h-.006a1,1,0,0,1-1-1,1,1,0,0,1,1-1h.006a1,1,0,0,1,1,1A1,1,0,0,1,120.116,1ZM114.11,1H114.1a1,1,0,0,1-1-1,1,1,0,0,1,1-1h.006a1,1,0,0,1,1,1A1,1,0,0,1,114.11,1ZM108.1,1H108.1a1,1,0,0,1-1-1,1,1,0,0,1,1-1h.006a1,1,0,0,1,1,1A1,1,0,0,1,108.1,1ZM102.1,1h-.006a1,1,0,0,1-1-1,1,1,0,0,1,1-1h.006a1,1,0,0,1,1,1A1,1,0,0,1,102.1,1ZM96.093,1h-.006a1,1,0,0,1-1-1,1,1,0,0,1,1-1h.006a1,1,0,0,1,1,1A1,1,0,0,1,96.093,1ZM90.088,1h-.006a1,1,0,0,1-1-1,1,1,0,0,1,1-1h.006a1,1,0,0,1,1,1A1,1,0,0,1,90.088,1ZM84.082,1h-.005a1,1,0,0,1-1-1,1,1,0,0,1,1-1h.005a1,1,0,0,1,1,1A1,1,0,0,1,84.082,1ZM78.077,1h-.006a1,1,0,0,1-1-1,1,1,0,0,1,1-1h.006a1,1,0,0,1,1,1A1,1,0,0,1,78.077,1ZM72.072,1h-.006a1,1,0,0,1-1-1,1,1,0,0,1,1-1h.006a1,1,0,0,1,1,1A1,1,0,0,1,72.072,1ZM66.066,1h-.006a1,1,0,0,1-1-1,1,1,0,0,1,1-1h.006a1,1,0,0,1,1,1A1,1,0,0,1,66.066,1ZM60.061,1h-.006a1,1,0,0,1-1-1,1,1,0,0,1,1-1h.006a1,1,0,0,1,1,1A1,1,0,0,1,60.061,1ZM54.055,1h-.006a1,1,0,0,1-1-1,1,1,0,0,1,1-1h.006a1,1,0,0,1,1,1A1,1,0,0,1,54.055,1ZM48.049,1h-.006a1,1,0,0,1-1-1,1,1,0,0,1,1-1h.006a1,1,0,0,1,1,1A1,1,0,0,1,48.049,1ZM42.044,1h-.005a1,1,0,0,1-1-1,1,1,0,0,1,1-1h.005a1,1,0,0,1,1,1A1,1,0,0,1,42.044,1ZM36.039,1h-.006a1,1,0,0,1-1-1,1,1,0,0,1,1-1h.006a1,1,0,0,1,1,1A1,1,0,0,1,36.039,1ZM30.033,1h-.006a1,1,0,0,1-1-1,1,1,0,0,1,1-1h.006a1,1,0,0,1,1,1A1,1,0,0,1,30.033,1ZM24.028,1h-.006a1,1,0,0,1-1-1,1,1,0,0,1,1-1h.006a1,1,0,0,1,1,1A1,1,0,0,1,24.028,1ZM18.022,1h-.005a1,1,0,0,1-1-1,1,1,0,0,1,1-1h.005a1,1,0,0,1,1,1A1,1,0,0,1,18.022,1ZM12.017,1h-.006a1,1,0,0,1-1-1,1,1,0,0,1,1-1h.006a1,1,0,0,1,1,1A1,1,0,0,1,12.017,1ZM6.011,1H6.005a1,1,0,0,1-1-1,1,1,0,0,1,1-1h.006a1,1,0,0,1,1,1A1,1,0,0,1,6.011,1ZM.005,1H0A1,1,0,0,1-1,0,1,1,0,0,1,0-1H.005a1,1,0,0,1,1,1A1,1,0,0,1,.005,1Z" transform="translate(-13029 -18320)" fill="#faacc8"/>
  </g>
</svg>
