<svg xmlns="http://www.w3.org/2000/svg" xmlns:xlink="http://www.w3.org/1999/xlink" width="550" height="3" viewBox="0 0 550 3">
  <defs>
    <clipPath id="clip-path">
      <rect id="長方形_432373" data-name="長方形 432373" width="550" height="3" transform="translate(685 714)" fill="#fff" stroke="#707070" stroke-width="1"/>
    </clipPath>
  </defs>
  <g id="マスクグループ_1111050" data-name="マスクグループ 1111050" transform="translate(-685 -714)" clip-path="url(#clip-path)">
    <path id="線_2473569" data-name="線 2473569" d="M546.435,1.5h-.005a1.5,1.5,0,0,1-1.5-1.5,1.5,1.5,0,0,1,1.5-1.5h.005a1.5,1.5,0,0,1,1.5,1.5A1.5,1.5,0,0,1,546.435,1.5Zm-7.005,0h-.005a1.5,1.5,0,0,1-1.5-1.5,1.5,1.5,0,0,1,1.5-1.5h.005a1.5,1.5,0,0,1,1.5,1.5A1.5,1.5,0,0,1,539.429,1.5Zm-7.005,0h-.005a1.5,1.5,0,0,1-1.5-1.5,1.5,1.5,0,0,1,1.5-1.5h.005a1.5,1.5,0,0,1,1.5,1.5A1.5,1.5,0,0,1,532.424,1.5Zm-7.005,0h-.006a1.5,1.5,0,0,1-1.5-1.5,1.5,1.5,0,0,1,1.5-1.5h.006a1.5,1.5,0,0,1,1.5,1.5A1.5,1.5,0,0,1,525.418,1.5Zm-7.006,0h-.005a1.5,1.5,0,0,1-1.5-1.5,1.5,1.5,0,0,1,1.5-1.5h.005a1.5,1.5,0,0,1,1.5,1.5A1.5,1.5,0,0,1,518.412,1.5Zm-7.005,0H511.4A1.5,1.5,0,0,1,509.9,0a1.5,1.5,0,0,1,1.5-1.5h.006a1.5,1.5,0,0,1,1.5,1.5A1.5,1.5,0,0,1,511.407,1.5Zm-7.006,0H504.4A1.5,1.5,0,0,1,502.9,0a1.5,1.5,0,0,1,1.5-1.5h.005A1.5,1.5,0,0,1,505.9,0,1.5,1.5,0,0,1,504.4,1.5Zm-7.005,0h-.005a1.5,1.5,0,0,1-1.5-1.5,1.5,1.5,0,0,1,1.5-1.5h.005A1.5,1.5,0,0,1,498.9,0,1.5,1.5,0,0,1,497.4,1.5Zm-7.005,0h-.005a1.5,1.5,0,0,1-1.5-1.5,1.5,1.5,0,0,1,1.5-1.5h.005a1.5,1.5,0,0,1,1.5,1.5A1.5,1.5,0,0,1,490.391,1.5Zm-7.005,0h-.006a1.5,1.5,0,0,1-1.5-1.5,1.5,1.5,0,0,1,1.5-1.5h.006a1.5,1.5,0,0,1,1.5,1.5A1.5,1.5,0,0,1,483.385,1.5Zm-7.006,0h-.005a1.5,1.5,0,0,1-1.5-1.5,1.5,1.5,0,0,1,1.5-1.5h.005a1.5,1.5,0,0,1,1.5,1.5A1.5,1.5,0,0,1,476.379,1.5Zm-7.005,0h-.005a1.5,1.5,0,0,1-1.5-1.5,1.5,1.5,0,0,1,1.5-1.5h.005a1.5,1.5,0,0,1,1.5,1.5A1.5,1.5,0,0,1,469.374,1.5Zm-7.005,0h-.005a1.5,1.5,0,0,1-1.5-1.5,1.5,1.5,0,0,1,1.5-1.5h.005a1.5,1.5,0,0,1,1.5,1.5A1.5,1.5,0,0,1,462.368,1.5Zm-7.005,0h-.005a1.5,1.5,0,0,1-1.5-1.5,1.5,1.5,0,0,1,1.5-1.5h.005a1.5,1.5,0,0,1,1.5,1.5A1.5,1.5,0,0,1,455.363,1.5Zm-7.005,0h-.006a1.5,1.5,0,0,1-1.5-1.5,1.5,1.5,0,0,1,1.5-1.5h.006a1.5,1.5,0,0,1,1.5,1.5A1.5,1.5,0,0,1,448.358,1.5Zm-7.006,0h-.005a1.5,1.5,0,0,1-1.5-1.5,1.5,1.5,0,0,1,1.5-1.5h.005a1.5,1.5,0,0,1,1.5,1.5A1.5,1.5,0,0,1,441.352,1.5Zm-7.005,0h-.005a1.5,1.5,0,0,1-1.5-1.5,1.5,1.5,0,0,1,1.5-1.5h.005a1.5,1.5,0,0,1,1.5,1.5A1.5,1.5,0,0,1,434.346,1.5Zm-7.005,0h-.005a1.5,1.5,0,0,1-1.5-1.5,1.5,1.5,0,0,1,1.5-1.5h.005a1.5,1.5,0,0,1,1.5,1.5A1.5,1.5,0,0,1,427.341,1.5Zm-7.005,0h-.006a1.5,1.5,0,0,1-1.5-1.5,1.5,1.5,0,0,1,1.5-1.5h.006a1.5,1.5,0,0,1,1.5,1.5A1.5,1.5,0,0,1,420.336,1.5Zm-7.006,0h-.005a1.5,1.5,0,0,1-1.5-1.5,1.5,1.5,0,0,1,1.5-1.5h.005a1.5,1.5,0,0,1,1.5,1.5A1.5,1.5,0,0,1,413.33,1.5Zm-7.005,0h-.005a1.5,1.5,0,0,1-1.5-1.5,1.5,1.5,0,0,1,1.5-1.5h.005a1.5,1.5,0,0,1,1.5,1.5A1.5,1.5,0,0,1,406.324,1.5Zm-7.005,0h-.005a1.5,1.5,0,0,1-1.5-1.5,1.5,1.5,0,0,1,1.5-1.5h.005a1.5,1.5,0,0,1,1.5,1.5A1.5,1.5,0,0,1,399.319,1.5Zm-7.005,0h-.005a1.5,1.5,0,0,1-1.5-1.5,1.5,1.5,0,0,1,1.5-1.5h.005a1.5,1.5,0,0,1,1.5,1.5A1.5,1.5,0,0,1,392.314,1.5Zm-7.005,0H385.3A1.5,1.5,0,0,1,383.8,0a1.5,1.5,0,0,1,1.5-1.5h.006a1.5,1.5,0,0,1,1.5,1.5A1.5,1.5,0,0,1,385.308,1.5Zm-7.006,0H378.3A1.5,1.5,0,0,1,376.8,0a1.5,1.5,0,0,1,1.5-1.5h.005A1.5,1.5,0,0,1,379.8,0,1.5,1.5,0,0,1,378.3,1.5Zm-7.005,0h-.005a1.5,1.5,0,0,1-1.5-1.5,1.5,1.5,0,0,1,1.5-1.5h.005A1.5,1.5,0,0,1,372.8,0,1.5,1.5,0,0,1,371.3,1.5Zm-7.005,0h-.005a1.5,1.5,0,0,1-1.5-1.5,1.5,1.5,0,0,1,1.5-1.5h.005a1.5,1.5,0,0,1,1.5,1.5A1.5,1.5,0,0,1,364.292,1.5Zm-7.005,0h-.006a1.5,1.5,0,0,1-1.5-1.5,1.5,1.5,0,0,1,1.5-1.5h.006a1.5,1.5,0,0,1,1.5,1.5A1.5,1.5,0,0,1,357.286,1.5Zm-7.006,0h-.005a1.5,1.5,0,0,1-1.5-1.5,1.5,1.5,0,0,1,1.5-1.5h.005a1.5,1.5,0,0,1,1.5,1.5A1.5,1.5,0,0,1,350.28,1.5Zm-7.005,0h-.005a1.5,1.5,0,0,1-1.5-1.5,1.5,1.5,0,0,1,1.5-1.5h.005a1.5,1.5,0,0,1,1.5,1.5A1.5,1.5,0,0,1,343.275,1.5Zm-7.005,0h-.005a1.5,1.5,0,0,1-1.5-1.5,1.5,1.5,0,0,1,1.5-1.5h.005a1.5,1.5,0,0,1,1.5,1.5A1.5,1.5,0,0,1,336.27,1.5Zm-7.005,0h-.005a1.5,1.5,0,0,1-1.5-1.5,1.5,1.5,0,0,1,1.5-1.5h.005a1.5,1.5,0,0,1,1.5,1.5A1.5,1.5,0,0,1,329.264,1.5Zm-7.005,0h-.006a1.5,1.5,0,0,1-1.5-1.5,1.5,1.5,0,0,1,1.5-1.5h.006a1.5,1.5,0,0,1,1.5,1.5A1.5,1.5,0,0,1,322.259,1.5Zm-7.006,0h-.005a1.5,1.5,0,0,1-1.5-1.5,1.5,1.5,0,0,1,1.5-1.5h.005a1.5,1.5,0,0,1,1.5,1.5A1.5,1.5,0,0,1,315.253,1.5Zm-7.005,0h-.005a1.5,1.5,0,0,1-1.5-1.5,1.5,1.5,0,0,1,1.5-1.5h.005a1.5,1.5,0,0,1,1.5,1.5A1.5,1.5,0,0,1,308.247,1.5Zm-7.005,0h-.005a1.5,1.5,0,0,1-1.5-1.5,1.5,1.5,0,0,1,1.5-1.5h.005a1.5,1.5,0,0,1,1.5,1.5A1.5,1.5,0,0,1,301.242,1.5Zm-7.005,0h-.006a1.5,1.5,0,0,1-1.5-1.5,1.5,1.5,0,0,1,1.5-1.5h.006a1.5,1.5,0,0,1,1.5,1.5A1.5,1.5,0,0,1,294.237,1.5Zm-7.006,0h-.005a1.5,1.5,0,0,1-1.5-1.5,1.5,1.5,0,0,1,1.5-1.5h.005a1.5,1.5,0,0,1,1.5,1.5A1.5,1.5,0,0,1,287.231,1.5Zm-7.005,0h-.005a1.5,1.5,0,0,1-1.5-1.5,1.5,1.5,0,0,1,1.5-1.5h.005a1.5,1.5,0,0,1,1.5,1.5A1.5,1.5,0,0,1,280.225,1.5Zm-7.005,0h-.005a1.5,1.5,0,0,1-1.5-1.5,1.5,1.5,0,0,1,1.5-1.5h.005a1.5,1.5,0,0,1,1.5,1.5A1.5,1.5,0,0,1,273.22,1.5Zm-7.005,0h-.005a1.5,1.5,0,0,1-1.5-1.5,1.5,1.5,0,0,1,1.5-1.5h.005a1.5,1.5,0,0,1,1.5,1.5A1.5,1.5,0,0,1,266.215,1.5Zm-7.005,0H259.2A1.5,1.5,0,0,1,257.7,0a1.5,1.5,0,0,1,1.5-1.5h.006a1.5,1.5,0,0,1,1.5,1.5A1.5,1.5,0,0,1,259.209,1.5Zm-7.006,0H252.2A1.5,1.5,0,0,1,250.7,0a1.5,1.5,0,0,1,1.5-1.5h.006A1.5,1.5,0,0,1,253.7,0,1.5,1.5,0,0,1,252.2,1.5Zm-7.006,0h-.005a1.5,1.5,0,0,1-1.5-1.5,1.5,1.5,0,0,1,1.5-1.5h.005A1.5,1.5,0,0,1,246.7,0,1.5,1.5,0,0,1,245.2,1.5Zm-7.005,0h-.006a1.5,1.5,0,0,1-1.5-1.5,1.5,1.5,0,0,1,1.5-1.5h.006a1.5,1.5,0,0,1,1.5,1.5A1.5,1.5,0,0,1,238.193,1.5Zm-7.006,0h-.005a1.5,1.5,0,0,1-1.5-1.5,1.5,1.5,0,0,1,1.5-1.5h.005a1.5,1.5,0,0,1,1.5,1.5A1.5,1.5,0,0,1,231.187,1.5Zm-7.005,0h-.006a1.5,1.5,0,0,1-1.5-1.5,1.5,1.5,0,0,1,1.5-1.5h.006a1.5,1.5,0,0,1,1.5,1.5A1.5,1.5,0,0,1,224.182,1.5Zm-7.006,0h-.005a1.5,1.5,0,0,1-1.5-1.5,1.5,1.5,0,0,1,1.5-1.5h.005a1.5,1.5,0,0,1,1.5,1.5A1.5,1.5,0,0,1,217.176,1.5Zm-7.005,0h-.006a1.5,1.5,0,0,1-1.5-1.5,1.5,1.5,0,0,1,1.5-1.5h.006a1.5,1.5,0,0,1,1.5,1.5A1.5,1.5,0,0,1,210.171,1.5Zm-7.006,0h-.005a1.5,1.5,0,0,1-1.5-1.5,1.5,1.5,0,0,1,1.5-1.5h.005a1.5,1.5,0,0,1,1.5,1.5A1.5,1.5,0,0,1,203.165,1.5Zm-7.005,0h-.005a1.5,1.5,0,0,1-1.5-1.5,1.5,1.5,0,0,1,1.5-1.5h.005a1.5,1.5,0,0,1,1.5,1.5A1.5,1.5,0,0,1,196.16,1.5Zm-7.005,0h-.006a1.5,1.5,0,0,1-1.5-1.5,1.5,1.5,0,0,1,1.5-1.5h.006a1.5,1.5,0,0,1,1.5,1.5A1.5,1.5,0,0,1,189.154,1.5Zm-7.006,0h-.005a1.5,1.5,0,0,1-1.5-1.5,1.5,1.5,0,0,1,1.5-1.5h.005a1.5,1.5,0,0,1,1.5,1.5A1.5,1.5,0,0,1,182.148,1.5Zm-7.005,0h-.006a1.5,1.5,0,0,1-1.5-1.5,1.5,1.5,0,0,1,1.5-1.5h.006a1.5,1.5,0,0,1,1.5,1.5A1.5,1.5,0,0,1,175.143,1.5Zm-7.006,0h-.005a1.5,1.5,0,0,1-1.5-1.5,1.5,1.5,0,0,1,1.5-1.5h.005a1.5,1.5,0,0,1,1.5,1.5A1.5,1.5,0,0,1,168.137,1.5Zm-7.005,0h-.006a1.5,1.5,0,0,1-1.5-1.5,1.5,1.5,0,0,1,1.5-1.5h.006a1.5,1.5,0,0,1,1.5,1.5A1.5,1.5,0,0,1,161.132,1.5Zm-7.006,0h-.005a1.5,1.5,0,0,1-1.5-1.5,1.5,1.5,0,0,1,1.5-1.5h.005a1.5,1.5,0,0,1,1.5,1.5A1.5,1.5,0,0,1,154.126,1.5Zm-7.005,0h-.006a1.5,1.5,0,0,1-1.5-1.5,1.5,1.5,0,0,1,1.5-1.5h.006a1.5,1.5,0,0,1,1.5,1.5A1.5,1.5,0,0,1,147.121,1.5Zm-7.006,0h-.005a1.5,1.5,0,0,1-1.5-1.5,1.5,1.5,0,0,1,1.5-1.5h.005a1.5,1.5,0,0,1,1.5,1.5A1.5,1.5,0,0,1,140.115,1.5Zm-7.005,0H133.1A1.5,1.5,0,0,1,131.6,0a1.5,1.5,0,0,1,1.5-1.5h.005a1.5,1.5,0,0,1,1.5,1.5A1.5,1.5,0,0,1,133.11,1.5Zm-7.006,0H126.1A1.5,1.5,0,0,1,124.6,0a1.5,1.5,0,0,1,1.5-1.5h.006A1.5,1.5,0,0,1,127.6,0,1.5,1.5,0,0,1,126.1,1.5Zm-7.006,0h-.006a1.5,1.5,0,0,1-1.5-1.5,1.5,1.5,0,0,1,1.5-1.5h.006A1.5,1.5,0,0,1,120.6,0,1.5,1.5,0,0,1,119.1,1.5Zm-7.006,0h-.006a1.5,1.5,0,0,1-1.5-1.5,1.5,1.5,0,0,1,1.5-1.5h.006a1.5,1.5,0,0,1,1.5,1.5A1.5,1.5,0,0,1,112.093,1.5Zm-7.006,0h-.006a1.5,1.5,0,0,1-1.5-1.5,1.5,1.5,0,0,1,1.5-1.5h.006a1.5,1.5,0,0,1,1.5,1.5A1.5,1.5,0,0,1,105.088,1.5Zm-7.006,0h-.005a1.5,1.5,0,0,1-1.5-1.5,1.5,1.5,0,0,1,1.5-1.5h.005a1.5,1.5,0,0,1,1.5,1.5A1.5,1.5,0,0,1,98.082,1.5Zm-7.005,0h-.006a1.5,1.5,0,0,1-1.5-1.5,1.5,1.5,0,0,1,1.5-1.5h.006a1.5,1.5,0,0,1,1.5,1.5A1.5,1.5,0,0,1,91.077,1.5Zm-7.006,0h-.006a1.5,1.5,0,0,1-1.5-1.5,1.5,1.5,0,0,1,1.5-1.5h.006a1.5,1.5,0,0,1,1.5,1.5A1.5,1.5,0,0,1,84.072,1.5Zm-7.006,0h-.006a1.5,1.5,0,0,1-1.5-1.5,1.5,1.5,0,0,1,1.5-1.5h.006a1.5,1.5,0,0,1,1.5,1.5A1.5,1.5,0,0,1,77.066,1.5Zm-7.006,0h-.006a1.5,1.5,0,0,1-1.5-1.5,1.5,1.5,0,0,1,1.5-1.5h.006a1.5,1.5,0,0,1,1.5,1.5A1.5,1.5,0,0,1,70.061,1.5Zm-7.006,0h-.006a1.5,1.5,0,0,1-1.5-1.5,1.5,1.5,0,0,1,1.5-1.5h.006a1.5,1.5,0,0,1,1.5,1.5A1.5,1.5,0,0,1,63.055,1.5Zm-7.006,0h-.006a1.5,1.5,0,0,1-1.5-1.5,1.5,1.5,0,0,1,1.5-1.5h.006a1.5,1.5,0,0,1,1.5,1.5A1.5,1.5,0,0,1,56.049,1.5Zm-7.006,0h-.005a1.5,1.5,0,0,1-1.5-1.5,1.5,1.5,0,0,1,1.5-1.5h.005a1.5,1.5,0,0,1,1.5,1.5A1.5,1.5,0,0,1,49.044,1.5Zm-7.005,0h-.006a1.5,1.5,0,0,1-1.5-1.5,1.5,1.5,0,0,1,1.5-1.5h.006a1.5,1.5,0,0,1,1.5,1.5A1.5,1.5,0,0,1,42.039,1.5Zm-7.006,0h-.006a1.5,1.5,0,0,1-1.5-1.5,1.5,1.5,0,0,1,1.5-1.5h.006a1.5,1.5,0,0,1,1.5,1.5A1.5,1.5,0,0,1,35.033,1.5Zm-7.006,0h-.006a1.5,1.5,0,0,1-1.5-1.5,1.5,1.5,0,0,1,1.5-1.5h.006a1.5,1.5,0,0,1,1.5,1.5A1.5,1.5,0,0,1,28.028,1.5Zm-7.006,0h-.005a1.5,1.5,0,0,1-1.5-1.5,1.5,1.5,0,0,1,1.5-1.5h.005a1.5,1.5,0,0,1,1.5,1.5A1.5,1.5,0,0,1,21.022,1.5Zm-7.005,0h-.006a1.5,1.5,0,0,1-1.5-1.5,1.5,1.5,0,0,1,1.5-1.5h.006a1.5,1.5,0,0,1,1.5,1.5A1.5,1.5,0,0,1,14.017,1.5Zm-7.006,0H7.005A1.5,1.5,0,0,1,5.505,0a1.5,1.5,0,0,1,1.5-1.5h.006A1.5,1.5,0,0,1,8.511,0,1.5,1.5,0,0,1,7.011,1.5ZM.005,1.5H0A1.5,1.5,0,0,1-1.5,0,1.5,1.5,0,0,1,0-1.5H.005A1.5,1.5,0,0,1,1.505,0,1.5,1.5,0,0,1,.005,1.5Z" transform="translate(686.5 715.5)" fill="#faacc8"/>
  </g>
</svg>
