<svg xmlns="http://www.w3.org/2000/svg" xmlns:xlink="http://www.w3.org/1999/xlink" width="28" height="28" viewBox="0 0 28 28">
  <defs>
    <clipPath id="clip-path">
      <rect id="長方形_430236" data-name="長方形 430236" width="28" height="28" transform="translate(7087 527)" fill="#fff" stroke="#707070" stroke-width="1"/>
    </clipPath>
    <clipPath id="clip-path-2">
      <rect id="長方形_430235" data-name="長方形 430235" width="22.281" height="20.021" transform="translate(0 0)" fill="#39c278"/>
    </clipPath>
  </defs>
  <g id="マスクグループ_1110943" data-name="マスクグループ 1110943" transform="translate(-7087 -527)" clip-path="url(#clip-path)">
    <g id="グループ_1119391" data-name="グループ 1119391" transform="translate(7089.86 531.32)">
      <g id="グループ_1119390" data-name="グループ 1119390" clip-path="url(#clip-path-2)">
        <path id="パス_1157829" data-name="パス 1157829" d="M0,275.117v8.944a3.329,3.329,0,0,0,3.328,3.328h9.938A3.334,3.334,0,0,0,16.6,284.06v-8.944a3.336,3.336,0,0,0-3.335-3.331H3.328A3.331,3.331,0,0,0,0,275.117m2.222,0A1.112,1.112,0,0,1,3.328,274h9.938a1.123,1.123,0,0,1,1.116,1.113v8.944a1.126,1.126,0,0,1-1.116,1.109H3.328a1.114,1.114,0,0,1-1.106-1.109Z" transform="translate(0 -267.367)" fill="#39c278"/>
        <path id="パス_1157830" data-name="パス 1157830" d="M363.633,12.265V3.323a1.113,1.113,0,0,0-1.111-1.111h-9.936a1.109,1.109,0,0,0-1.109,1.1h-2.224A3.325,3.325,0,0,1,352.586,0h9.936a3.324,3.324,0,0,1,3.333,3.318v8.941a3.34,3.34,0,0,1-3.333,3.331h-1.239V13.373h1.239a1.11,1.11,0,0,0,1.111-1.109" transform="translate(-343.574 -0.005)" fill="#39c278"/>
      </g>
    </g>
  </g>
</svg>
