<svg xmlns="http://www.w3.org/2000/svg" xmlns:xlink="http://www.w3.org/1999/xlink" width="20" height="20" viewBox="0 0 20 20">
  <defs>
    <clipPath id="clip-path">
      <rect id="長方形_431611" data-name="長方形 431611" width="20" height="20" transform="translate(-11719 -18324)" fill="#fff" stroke="#707070" stroke-width="1"/>
    </clipPath>
  </defs>
  <g id="マスクグループ_1111006" data-name="マスクグループ 1111006" transform="translate(11719 18324)" clip-path="url(#clip-path)">
    <path id="パス_1163397" data-name="パス 1163397" d="M17.7,15.107l-3.539-2.749a1.7,1.7,0,0,0-2.346.27l-.658.811a1.3,1.3,0,0,1-.37.318c-.244.135-.895.505-3.268-2.278-2.343-2.757-1.877-3.341-1.7-3.562a1.29,1.29,0,0,1,.371-.312l.907-.52a1.7,1.7,0,0,0,.639-2.273L5.59.879a1.682,1.682,0,0,0-2.23-.7L2.542.584a4.375,4.375,0,0,0-2.148,2.5C-.953,6.752,1.379,11.369,4.038,14.5,6.4,17.27,10.009,20,13.493,20a6.283,6.283,0,0,0,1.2-.114,4.4,4.4,0,0,0,2.839-1.756l.507-.708a1.684,1.684,0,0,0-.338-2.315" transform="translate(-11718 -18324)" fill="#fff"/>
  </g>
</svg>
