<svg xmlns="http://www.w3.org/2000/svg" xmlns:xlink="http://www.w3.org/1999/xlink" width="28" height="28" viewBox="0 0 28 28">
  <defs>
    <clipPath id="clip-path">
      <rect id="長方形_430234" data-name="長方形 430234" width="28" height="28" transform="translate(7638 875)" fill="#fff" stroke="#707070" stroke-width="1"/>
    </clipPath>
  </defs>
  <g id="マスクグループ_1110942" data-name="マスクグループ 1110942" transform="translate(-7638 -875)" clip-path="url(#clip-path)">
    <path id="合体_41" data-name="合体 41" d="M1.381,22.578A1.371,1.371,0,0,1,0,21.209V19.956a8.364,8.364,0,0,1,3.993-7.14,8.18,8.18,0,0,0,9.568,0,8.372,8.372,0,0,1,4,7.14v1.253a1.376,1.376,0,0,1-1.379,1.369Zm20.158-7.364V12.481H18.806a1.243,1.243,0,1,1,0-2.485h2.733V7.263a1.243,1.243,0,1,1,2.485,0V10h2.733a1.243,1.243,0,1,1,0,2.485H24.024v2.733a1.243,1.243,0,0,1-2.485,0ZM2.6,6.177a6.178,6.178,0,1,1,6.178,6.178A6.177,6.177,0,0,1,2.6,6.177Z" transform="translate(7638 877.8)" fill="#fff"/>
  </g>
</svg>
