<svg xmlns="http://www.w3.org/2000/svg" width="14" height="14" viewBox="0 0 14 14">
  <g id="グループ_1121481" data-name="グループ 1121481" transform="translate(-731.854 -200.5)">
    <path id="パス_1160902" data-name="パス 1160902" d="M7,0A7,7,0,1,1,0,7,7,7,0,0,1,7,0Z" transform="translate(731.854 200.5)" fill="#ededed"/>
    <path id="合体_32" data-name="合体 32" d="M.2.182a.612.612,0,0,0-.2.45.605.605,0,0,0,.2.445l2.43,2.3L.2,5.68a.609.609,0,0,0,0,.9.674.674,0,0,0,.462.18.674.674,0,0,0,.462-.18l2.9-2.748a.608.608,0,0,0,.02-.875l-.005,0L1.125.182A.669.669,0,0,0,.662,0,.669.669,0,0,0,.2.182Z" transform="translate(737.229 204.123)" fill="#fff" stroke="#fff" stroke-linecap="round" stroke-linejoin="round" stroke-width="0.3"/>
  </g>
</svg>
